<?xml version="1.0" encoding="utf-8"?>
<!-- Generator: Adobe Illustrator 27.9.0, SVG Export Plug-In . SVG Version: 6.00 Build 0)  -->
<svg version="1.1" id="lanches-title-icon-18" xmlns="http://www.w3.org/2000/svg" xmlns:xlink="http://www.w3.org/1999/xlink"
	 x="0px" y="0px" viewBox="0 0 12 12" style="enable-background:new 0 0 12 12;" xml:space="preserve">
<style type="text/css">
	.st0{fill:none;}
</style>
<path d="M11.4,8.2L10.1,6l1.3-2.1c0.1-0.2,0-0.4-0.1-0.5c-0.1,0-0.1,0-0.2,0H0.7C0.3,3.3,0,3.6,0,4v4c0,0.4,0.3,0.7,0.7,0.7h10.4
	c0.2,0,0.3-0.1,0.3-0.3C11.4,8.3,11.4,8.2,11.4,8.2 M3.5,7.1H3.1L2,5.6v1.5H1.7V5H2l1.1,1.5V5h0.4L3.5,7.1z M5.6,5.3H4.4v0.5h1.1
	v0.3H4.4v0.5h1.2V7H4.1V5h1.5L5.6,5.3z M8.4,7.1H8L7.5,5.5L7,7.1H6.6L5.9,5h0.4l0.4,1.5L7.3,5h0.4l0.5,1.5L8.6,5H9L8.4,7.1z"/>
<path class="st0" d="M0,3.3h11.4v5.3H0V3.3z"/>
</svg>
