<?xml version="1.0" encoding="utf-8"?>
<!-- Generator: Adobe Illustrator 27.9.0, SVG Export Plug-In . SVG Version: 6.00 Build 0)  -->
<svg version="1.1"
	 id="Layer_1" xmlns:svg="http://www.w3.org/2000/svg" xmlns:sodipodi="http://sodipodi.sourceforge.net/DTD/sodipodi-0.dtd" xmlns:inkscape="http://www.inkscape.org/namespaces/inkscape" xmlns:dc="http://purl.org/dc/elements/1.1/" xmlns:cc="http://creativecommons.org/ns#" xmlns:rdf="http://www.w3.org/1999/02/22-rdf-syntax-ns#" inkscape:version="0.92.2 (5c3e80d, 2017-08-06)" sodipodi:docname="99-app-logo-2.svg"
	 xmlns="http://www.w3.org/2000/svg" xmlns:xlink="http://www.w3.org/1999/xlink" x="0px" y="0px" viewBox="0 0 62.5 43.4"
	 style="enable-background:new 0 0 62.5 43.4;" xml:space="preserve">
<sodipodi:namedview  bordercolor="#666666" borderopacity="1" fit-margin-bottom="0" fit-margin-left="0" fit-margin-right="0" fit-margin-top="0" gridtolerance="10" guidetolerance="10" id="namedview14" inkscape:current-layer="LOGO_ANDROID" inkscape:cx="68.076008" inkscape:cy="114.75218" inkscape:pageopacity="0" inkscape:pageshadow="2" inkscape:window-height="837" inkscape:window-maximized="1" inkscape:window-width="1600" inkscape:window-x="-8" inkscape:window-y="-8" inkscape:zoom="1.668772" objecttolerance="10" pagecolor="#ffffff" showgrid="false">
	</sodipodi:namedview>
<g id="LOGO_ANDROID" transform="translate(0.1506881,104.91258)">
	
		<g id="g13" transform="matrix(0.20996658,0,0,0.20996658,4.1070593,-104.91258)" inkscape:export-filename="G:\Users\suitedoalex\sites\99-app-logo-8.png" inkscape:export-xdpi="51.257355" inkscape:export-ydpi="51.257355">
		<path id="path11" inkscape:connector-curvature="0" d="M108.8,29c8.4,11.3,13.5,25.1,14.1,40.1v2.6c0,14.6-4.3,28.2-11.8,39.5
			l-59.8,91.3l-1.6,2.5c-0.7,1-1.8,1.6-2.9,1.6H-2c-2.3,0-3.8-2.6-2.5-4.6l39.7-60.5C3.4,134-20.3,105.6-20.3,71.6l0.1-2.6
			c0.5-14.9,5.6-28.7,14-40c13-17.6,34-29,57.6-29C74.9,0,95.8,11.4,108.8,29z M72.3,84.8l2-3c2.1-3.9,3.3-8.2,3.3-12.7
			c0-14.4-11.7-26.1-26.2-26.1c-14.5,0-26.2,11.7-26.2,26.2c0,14.5,11.7,26.2,26.2,26.2C59.9,95.3,67.5,91.1,72.3,84.8z M263.4,29
			c8.4,11.3,13.5,25.1,14.1,40.1v2.6c0,14.6-4.3,28.2-11.8,39.5l-59.8,91.3l-1.6,2.5c-0.7,1-1.8,1.6-2.9,1.6h-48.7
			c-2.3,0-3.8-2.6-2.5-4.6l39.7-60.5c-31.8-7.3-55.5-35.8-55.5-69.8l0.1-2.6c0.5-14.9,5.6-28.7,14-40c13-17.6,34-29,57.6-29
			C229.4,0,250.3,11.4,263.4,29L263.4,29z M226.8,84.8l2-3c2.1-3.9,3.3-8.2,3.3-12.7c0-14.4-11.7-26.1-26.2-26.1
			c-14.5,0-26.2,11.7-26.2,26.2c0,14.5,11.7,26.2,26.2,26.2C214.4,95.3,222,91.1,226.8,84.8z"/>
	</g>
</g>
</svg>
