<?xml version="1.0" encoding="UTF-8" standalone="no"?>
<!DOCTYPE svg PUBLIC "-//W3C//DTD SVG 1.1//EN" "http://www.w3.org/Graphics/SVG/1.1/DTD/svg11.dtd">
<svg width="589.8" height="180.3" xmlns="http://www.w3.org/2000/svg" xmlns:xlink="http://www.w3.org/1999/xlink" version="1.1">
 <desc>Logo of Avis</desc>
 <g>
  <path fill="#d4002a" fill-rule="nonzero" id="path14" d="m572.37628,17.82001l0,-4.6875l2.67877,0c1.54993,0 3.2912,0.4425 3.2912,2.24374c0,1.99002 -1.92755,2.44376 -3.65631,2.44376l-2.31366,0zm-2.96381,9.26501l2.96381,0l0,-6.875l2.16248,0l3.8075,6.875l3.58881,0l-4.43262,-7.20251c2.32251,-0.51624 3.80261,-2.0625 3.80261,-4.44376c0,-3.53 -3.0376,-4.82248 -6.18878,-4.82248l-5.7038,0l0,16.46875zm-6.61877,-8.16751c0,-6.82251 5.52008,-12.33749 12.29132,-12.33749c6.85004,0 12.39624,5.51498 12.39624,12.33749c0,6.74625 -5.5462,12.35001 -12.39624,12.35001c-6.77124,0 -12.29132,-5.60376 -12.29132,-12.35001zm-2.3175,0c0,8.10999 6.55127,14.45374 14.60883,14.45374c8.15125,0 14.70868,-6.34375 14.70868,-14.45374c0,-8.10251 -6.55743,-14.57751 -14.70868,-14.57751c-8.05756,0 -14.60883,6.47501 -14.60883,14.57751zm-213.01743,156.72501l41.6087,0l0,-171.30252l-41.6087,0l0,171.30252zm-16.57376,-171.30252l-45.71875,0l-39.67627,123.79001l-40.39124,-123.79001l-46.45001,0l64.83374,171.30252l41.375,0l66.0275,-171.30252l0.00003,0zm-146.99249,171.30252l-70.06125,-171.30252l-41.21126,0l-72.62001,171.30252l45.7675,0l12.56001,-33.62375l66.32123,0l13.29877,33.62375l45.94501,0zm-70.63251,-66.76501l-43.05125,0l21.75374,-58.79749l21.29752,58.79749zm404.90125,-61.78998c-10.88498,-9.76251 -20.83878,-12.98502 -31.48251,-12.98502c-10.64374,0 -23.95752,3.64252 -23.95752,17.19125c0,11.35501 10.17255,15.20499 26.39001,20.31c23.2225,7.5025 53.21872,17.1925 53.21872,51.30374c0,39.42874 -31.6962,57.0925 -65.56119,57.0925c-24.4425,0 -49.13,-8.94501 -64.11877,-24.67749l25.36749,-26.0325c10.10504,10.87875 25.1925,16.59875 38.75128,16.59875c12.56873,0 23.70624,-4.85876 23.70624,-18.63251c0,-13.06625 -13.07751,-17.43625 -35.57123,-24.72375c-21.75629,-7.00751 -43.77881,-17.87 -43.77881,-48.81873c0,-37.99002 34.35126,-53.71378 66.27252,-53.71378c19.36749,0 41.14127,7.26877 56.13876,21.03375l-25.375,26.05377"/>
 </g>
</svg>