<?xml version="1.0" encoding="utf-8"?>
<!-- Generator: Adobe Illustrator 27.9.0, SVG Export Plug-In . SVG Version: 6.00 Build 0)  -->
<svg version="1.1" id="Layer_1" xmlns="http://www.w3.org/2000/svg" xmlns:xlink="http://www.w3.org/1999/xlink" x="0px" y="0px"
	 viewBox="0 0 589.8 180.3" style="enable-background:new 0 0 589.8 180.3;" xml:space="preserve">
<style type="text/css">
	.st0{fill:#FFFFFF;}
</style>
<g>
	<path id="path14" class="st0" d="M572.4,17.8v-4.7h2.7c1.5,0,3.3,0.4,3.3,2.2c0,2-1.9,2.4-3.7,2.4H572.4z M569.4,27.1h3v-6.9h2.2
		l3.8,6.9h3.6l-4.4-7.2c2.3-0.5,3.8-2.1,3.8-4.4c0-3.5-3-4.8-6.2-4.8h-5.7V27.1z M562.8,18.9c0-6.8,5.5-12.3,12.3-12.3
		c6.9,0,12.4,5.5,12.4,12.3c0,6.7-5.5,12.4-12.4,12.4C568.3,31.3,562.8,25.7,562.8,18.9z M560.5,18.9c0,8.1,6.6,14.5,14.6,14.5
		c8.2,0,14.7-6.3,14.7-14.5c0-8.1-6.6-14.6-14.7-14.6C567,4.3,560.5,10.8,560.5,18.9z M347.5,175.6h41.6V4.3h-41.6V175.6z
		 M330.9,4.3h-45.7l-39.7,123.8L205.1,4.3h-46.5l64.8,171.3h41.4L330.9,4.3L330.9,4.3z M183.9,175.6L113.8,4.3H72.6L0,175.6h45.8
		L58.3,142h66.3l13.3,33.6H183.9z M113.3,108.9H70.2L92,50.1L113.3,108.9z M518.2,47.1c-10.9-9.8-20.8-13-31.5-13s-24,3.6-24,17.2
		c0,11.4,10.2,15.2,26.4,20.3c23.2,7.5,53.2,17.2,53.2,51.3c0,39.4-31.7,57.1-65.6,57.1c-24.4,0-49.1-8.9-64.1-24.7l25.4-26
		c10.1,10.9,25.2,16.6,38.8,16.6c12.6,0,23.7-4.9,23.7-18.6c0-13.1-13.1-17.4-35.6-24.7c-21.8-7-43.8-17.9-43.8-48.8
		c0-38,34.4-53.7,66.3-53.7c19.4,0,41.1,7.3,56.1,21L518.2,47.1"/>
</g>
</svg>
