<?xml version="1.0" encoding="utf-8"?>
<!-- Generator: Adobe Illustrator 27.9.0, SVG Export Plug-In . SVG Version: 6.00 Build 0)  -->
<svg version="1.1" id="Layer_1" xmlns="http://www.w3.org/2000/svg" xmlns:xlink="http://www.w3.org/1999/xlink" x="0px" y="0px"
	 viewBox="0 0 379.6 137.9" style="enable-background:new 0 0 379.6 137.9;" xml:space="preserve">
<style type="text/css">
	.st0{fill:#FFD100;}
	.st1{fill:#9D9D9C;}
</style>
<polygon class="st0" points="353.7,137.9 0,137.9 4.1,118.8 357.7,118.8 "/>
<path d="M268.9,85.9c-3.2-3.4-1.3-10.2,0.4-17.8l5.5-25.9h22.7l4.1-19.3h-22.7l4-19.3h-21.4l-14,66.3c-2.1,9.9-2.9,17.7,1.4,26
	c4,7.8,17.7,15.2,35,10.5l3.8-17.9C275.9,89.9,271.2,88.4,268.9,85.9z"/>
<polygon points="87.7,3.5 77.5,51.4 40,51.4 50.1,3.5 28.6,3.5 6.7,106.4 28.3,106.4 35.8,70.7 73.4,70.7 65.8,106.4 87.2,106.4 
	109.1,3.5 "/>
<path d="M211,30.1c-7.5,6.2-11.7,14.4-14.5,27.4l-10.4,48.9h21.4l8.6-40.6c2-9.5,3.6-15.4,7.2-19.1c4.9-5,12-5.3,20.5-4.6l4.1-19.3
	C232.9,19,219.8,22.7,211,30.1z"/>
<polygon points="378.1,22.8 311.2,22.8 307.2,42.1 345.9,42.1 297.4,87.8 293.5,106.4 360.3,106.4 364.4,87 325.5,87 374.2,41.2 "/>
<path d="M152.5,21.3c-7.2,0-17.1,2.2-26.8,9.9c-21.9,17.2-32.8,76.7,14.3,76.7c12.2,0,25.8-3.9,35.2-11l-8.5-14.4
	c-7.1,5.5-43,17.4-39.2-11.7h56.1c0-0.1,7.1-23.3-3.1-37.4C171.6,21.5,155.5,21.3,152.5,21.3z M166.5,53.2h-34.3
	c1.2-4.6,8.5-16,22-14.8C168.7,39.8,166.5,53.2,166.5,53.2z"/>
<g id="Registered_Trademark_2_">
	<path class="st1" d="M374.8,95.6C374.8,95.6,374.8,95.6,374.8,95.6c-3.4,0-6.6,2.7-7.3,6c-0.1,0.4-0.1,0.8-0.1,1.2v0
		c0,2.6,1.9,4.6,4.8,4.7c0,0,0,0,0,0c3.3,0,6.5-2.7,7.2-6c0.1-0.4,0.1-0.8,0.1-1.2C379.6,97.6,377.7,95.6,374.8,95.6z M378.6,101.4
		c-0.6,2.8-3.5,5.3-6.4,5.3h0c-2.5-0.1-3.9-1.6-4-3.9c0-0.4,0-0.7,0.1-1.1c0.6-2.8,3.5-5.3,6.4-5.3c2.6,0.1,4,1.6,4,3.9
		C378.7,100.6,378.7,101,378.6,101.4z"/>
	<path class="st1" d="M374.3,98.7h-2.5l-1.2,5.7h1.3l0.4-1.8h1l0.8,1.8h1.5l-1-2c0.8-0.3,1.4-0.9,1.6-1.8
		C376.4,99.4,375.7,98.7,374.3,98.7z M374.8,100.7c-0.1,0.5-0.5,0.8-1.2,0.8h-1.2l0.3-1.7h1.2C374.7,99.8,375,100.1,374.8,100.7z"/>
</g>
</svg>
