<?xml version="1.0" encoding="utf-8"?>
<!-- Generator: Adobe Illustrator 27.9.0, SVG Export Plug-In . SVG Version: 6.00 Build 0)  -->
<svg version="1.1" id="Layer_1" xmlns="http://www.w3.org/2000/svg" xmlns:xlink="http://www.w3.org/1999/xlink" x="0px" y="0px"
	 viewBox="0 0 120 24" style="enable-background:new 0 0 120 24;" xml:space="preserve">
<style type="text/css">
	.st0{fill:#78DE1F;}
	.st1{fill:#01602A;}
	.st2{fill:#FFFFFF;}
</style>
<path class="st0" d="M12.9,0.1L7.3,2.4C7.2,2.5,7.1,2.6,7,2.7C6.9,2.8,6.8,3,6.8,3.1v6.2l4.4-1.8c0.7-0.3,1.3-0.7,1.7-1.3
	c0.4-0.6,0.6-1.3,0.6-2.1V0.6c0-0.1,0-0.2,0-0.2c0-0.1-0.1-0.1-0.2-0.2c-0.1,0-0.1-0.1-0.2-0.1C13,0.1,13,0.1,12.9,0.1z"/>
<path class="st1" d="M0.1,12.7V16c0,4.6,3.3,7.9,7.9,7.9h5c0.1,0,0.2,0,0.2,0c0.1,0,0.1-0.1,0.2-0.1c0.1-0.1,0.1-0.1,0.1-0.2
	c0-0.1,0-0.2,0-0.2v-5.5c0-0.1,0-0.2,0-0.2c0-0.1-0.1-0.1-0.1-0.2c-0.1-0.1-0.1-0.1-0.2-0.1c-0.1,0-0.2,0-0.2,0H7.9
	c-0.1,0-0.3,0-0.4-0.1c-0.1,0-0.2-0.1-0.3-0.2C7,16.8,7,16.7,6.9,16.5c0-0.1-0.1-0.3-0.1-0.4V9.4l-6.3,2.6c-0.1,0.1-0.3,0.2-0.4,0.3
	S0.1,12.5,0.1,12.7z"/>
<path class="st2" d="M40.7,5.6c-4.2,0-7.5,3.3-7.5,7.5s3.3,7.5,7.5,7.5c4.2,0,7.5-3.3,7.5-7.5S45,5.6,40.7,5.6z M40.7,17.6
	c-2.6,0-4.3-2-4.3-4.5c0-2.6,1.8-4.5,4.3-4.5c2.5,0,4.3,2,4.3,4.5C45,15.6,43.2,17.6,40.7,17.6z"/>
<path class="st2" d="M63.3,16.5l-2.4-1.3c0,0-0.1,0-0.1,0c0,0-0.1,0-0.1,0c0,0-0.1,0-0.1,0.1c0,0,0,0.1-0.1,0.1
	C60.3,16,59.7,16.6,59,17c-0.7,0.4-1.4,0.6-2.2,0.6c-2.6,0-4.4-2-4.4-4.5c0-2.6,1.8-4.5,4.4-4.5c0.8,0,1.6,0.2,2.2,0.6
	c0.7,0.4,1.2,1,1.6,1.7c0,0,0,0.1,0.1,0.1c0,0,0,0,0.1,0.1c0,0,0.1,0,0.1,0c0,0,0.1,0,0.1,0l2.4-1.3c0,0,0.1,0,0.1-0.1
	c0,0,0-0.1,0-0.1c0,0,0-0.1,0-0.1c0,0,0-0.1,0-0.1c-1.3-2.3-3.7-3.8-6.6-3.8c-4.3,0-7.6,3.2-7.6,7.5c0,4.2,3.3,7.5,7.6,7.5
	c2.9,0,5.3-1.5,6.6-3.8c0-0.1,0-0.1,0-0.2C63.4,16.5,63.3,16.5,63.3,16.5z"/>
<path class="st2" d="M32.8,17.4h-7.3V6.1c0-0.1,0-0.1-0.1-0.2c0,0-0.1-0.1-0.2-0.1h-2.7c-0.1,0-0.1,0-0.2,0.1c0,0-0.1,0.1-0.1,0.2
	v11.5c0,1.6,1,2.6,2.6,2.6h7.9c0.1,0,0.1,0,0.2-0.1c0,0,0.1-0.1,0.1-0.2v-2.4c0-0.1,0-0.1-0.1-0.2C33,17.4,32.9,17.4,32.8,17.4z"/>
<path class="st2" d="M104.2,17.4h-7.5l7.4-8.8c0.1-0.1,0.1-0.2,0.1-0.3V6.1c0-0.1,0-0.1-0.1-0.2c0,0-0.1-0.1-0.2-0.1H93
	c-0.1,0-0.1,0-0.2,0.1s-0.1,0.1-0.1,0.2v2.4c0,0.1,0,0.1,0.1,0.2c0,0,0.1,0.1,0.2,0.1h7.2l-7.4,8.8c-0.1,0.1-0.1,0.2-0.1,0.3V20
	c0,0.1,0,0.1,0.1,0.2c0,0,0.1,0.1,0.2,0.1h11.4c0.1,0,0.1,0,0.2-0.1c0,0,0.1-0.1,0.1-0.2v-2.4c0-0.1,0-0.1-0.1-0.2
	C104.3,17.4,104.3,17.4,104.2,17.4z"/>
<path class="st2" d="M90.3,0.8h-2.7c-0.1,0-0.1,0-0.2,0.1c0,0-0.1,0.1-0.1,0.2v2.8c0,0.1,0,0.1,0.1,0.2c0,0,0.1,0.1,0.2,0.1h1
	c0.3,0,0.5,0,0.7-0.1c0.2-0.1,0.4-0.2,0.6-0.4c0.2-0.2,0.3-0.4,0.4-0.6c0.1-0.2,0.1-0.5,0.1-0.7V1c0-0.1,0-0.1-0.1-0.2
	C90.4,0.8,90.3,0.8,90.3,0.8z"/>
<path class="st2" d="M119.7,5.9H117c-0.1,0-0.1,0-0.2,0.1c0,0-0.1,0.1-0.1,0.2v1.7c-0.8-1.2-2.5-2.2-4.6-2.2c-3.9,0-6.9,3.4-6.9,7.5
	c0,4.1,3,7.5,6.9,7.5c2.1,0,3.8-1.1,4.6-2.2V20c0,0.1,0,0.1,0.1,0.2c0,0,0.1,0.1,0.2,0.1h2.7c0.1,0,0.1,0,0.2-0.1
	c0,0,0.1-0.1,0.1-0.2V6.1c0-0.1,0-0.1-0.1-0.2C119.8,5.9,119.8,5.9,119.7,5.9z M112.8,17.7c-2.5,0-4.3-2-4.3-4.6
	c0-2.6,1.8-4.6,4.3-4.6c2.5,0,4.3,2,4.3,4.6S115.3,17.7,112.8,17.7z"/>
<path class="st2" d="M78.6,5.9h-2.7c-0.1,0-0.1,0-0.2,0.1c0,0-0.1,0.1-0.1,0.2v1.7c-0.8-1.2-2.5-2.2-4.6-2.2c-3.9,0-6.9,3.4-6.9,7.5
	c0,4.1,3,7.5,6.9,7.5c2.1,0,3.8-1.1,4.6-2.2V20c0,0.1,0,0.1,0.1,0.2c0,0,0.1,0.1,0.2,0.1h2.7c0.1,0,0.1,0,0.2-0.1
	c0,0,0.1-0.1,0.1-0.2V6.1c0-0.1,0-0.1-0.1-0.2C78.7,5.9,78.7,5.9,78.6,5.9z M71.7,17.7c-2.5,0-4.3-2-4.3-4.6c0-2.6,1.7-4.6,4.3-4.6
	c2.5,0,4.3,2,4.3,4.6S74.2,17.7,71.7,17.7L71.7,17.7z"/>
<path class="st2" d="M90.3,5.9h-2.7c-0.1,0-0.2,0.1-0.2,0.2V20c0,0.1,0.1,0.2,0.2,0.2h2.7c0.1,0,0.2-0.1,0.2-0.2V6.1
	C90.5,6,90.4,5.9,90.3,5.9z"/>
<path class="st2" d="M84.5,0.8h-2.7c-0.1,0-0.2,0.1-0.2,0.2v19c0,0.1,0.1,0.2,0.2,0.2h2.7c0.1,0,0.2-0.1,0.2-0.2V1
	C84.7,0.9,84.6,0.8,84.5,0.8z"/>
</svg>
