<?xml version="1.0" encoding="utf-8"?>
<!-- Generator: Adobe Illustrator 27.9.0, SVG Export Plug-In . SVG Version: 6.00 Build 0)  -->
<svg version="1.1" id="Layer_1" xmlns="http://www.w3.org/2000/svg" xmlns:xlink="http://www.w3.org/1999/xlink" x="0px" y="0px"
	 viewBox="0 0 1577 486" style="enable-background:new 0 0 1577 486;" xml:space="preserve">
<style type="text/css">
	.st0{clip-path:url(#SVGID_00000085950029234966012090000009795006214908812196_);}
	.st1{fill-rule:evenodd;clip-rule:evenodd;fill:#FFFFFF;}
</style>
<g>
	<defs>
		<rect id="SVGID_1_" x="-460.1" y="-5634.2" width="10708.5" height="6688.9"/>
	</defs>
	<clipPath id="SVGID_00000092416206212364751260000016986013074929116330_">
		<use xlink:href="#SVGID_1_"  style="overflow:visible;"/>
	</clipPath>
	<g id="Clip-Path:_Page_1" style="clip-path:url(#SVGID_00000092416206212364751260000016986013074929116330_);">
		<g id="Page_1">
			<path id="Path_34" class="st1" d="M1314.3,70.5v266.3c0,30.5,1.3,61.5,2.1,73.6h-80.3l-3.4-33.4h-0.8
				c-17.6,29.2-49.4,39.3-78.2,39.3c-54.4,0-107.5-42.7-107.5-120.4c-0.4-78.2,53.5-124.6,113.3-124.6c27.2,0,51.9,6.3,64,22.6h1.3
				V70.5L1314.3,70.5z M1224.4,281.2c0-2.9,0-7.1-0.5-10.4c-3.3-18.4-18.8-33-39.3-33c-32.2,0-47.3,25-47.3,54.7
				c0,33.5,19.7,53.1,46.9,53.1c20.9,0,36.4-15.5,39.3-33.4c0.9-5.1,0.9-10.9,0.9-15.9V281.2z M1572.8,352.2
				c0,24.7,1.7,47.7,3.8,57.7h-80.8l-4.6-19.6h-1.6c-17.2,18.8-41.9,25.5-68.6,25.5c-51.5,0-81.6-35.5-81.6-73.6
				c0-62.7,56-91.5,144.3-91.5V249c0-8.4-5.9-18.8-41-18.8c-25.9,0-55.6,10-70.7,18.4l-15.9-56c15.5-8,50.2-21.8,102.5-21.8
				c80.3,0,114.2,40.6,114.2,103.3L1572.8,352.2z M1486.6,304.5c-39.7,0-58.5,10-58.5,28.9c0,13.3,9.2,20.9,25.5,20.9
				c13.8,0,28-10.5,31.8-24.3c1.2-3.7,1.2-8.3,1.2-12.5V304.5z M2.5,252.6c0-33-0.8-60.2-1.7-81.1h74.5l3.3,30.1h2.1
				c7.1-10,27.2-35.5,72.8-35.5c30.5,0,56.1,14.2,66.9,39.3h1.3c10.4-13.4,21.7-23,34.7-29.3c12.8-6.7,27.4-10,43.9-10
				c51.9,0,84.9,36,84.9,104.1v135h-86.1V283.6c0-30.1-10.5-46.4-31-46.4c-15,0-24.7,10-28.4,21.3c-2.1,5.8-2.5,13.4-2.5,18v128.7
				h-86.6V283.6c0-30.1-10.5-46.4-30.6-46.4c-18,0-25.9,13.8-28.4,20.9c-2.5,6.2-2.5,12.1-2.5,17.5v129.6H2.5L2.5,252.6z"/>
			<path id="Path_35" class="st1" d="M536.3,410.9c-72.8,0-133.9-43.5-133.9-120.4c0-71.1,49.8-124.6,139.7-124.6
				c77.4,0,130.9,49.7,130.9,119.6c0,79.8-61,125.4-136.3,125.4H536.3z M538.4,348.6c25.5,0,40.5-21.3,40.5-60.2
				c0-32.6-12.1-60.2-40.5-60.2c-31.4,0-42.7,30.1-42.7,60.2c0,33.4,13,60.2,42.3,60.2H538.4z M758,171.7l29.7,101.2
				c5,17.6,8.3,34.7,11.3,50.6h2c2.6-17.1,5.5-32.6,10.1-50.6l26.8-101.2h96.2l-92.5,233.7h-92l-89.5-233.7L758,171.7z
				 M1000.2,486.1c-38.5-53.9-61.5-120.4-61.5-191.9c0-77.7,17.1-148.8,61.5-205.2l64,34.3c-39.8,45.5-53.6,105.3-53.6,170.9
				c0,59,19.7,113.7,53.6,157.6L1000.2,486.1z M1064,93.2c-25.6,0-46.3-20.7-46.3-46.2c0-25.6,20.7-46.2,46.3-46.2
				c25.5,0,46.2,20.6,46.2,46.2C1110.2,72.5,1089.5,93.2,1064,93.2z"/>
		</g>
	</g>
</g>
</svg>
