<svg xmlns:dc="http://purl.org/dc/elements/1.1/" xmlns:cc="http://creativecommons.org/ns#" xmlns:rdf="http://www.w3.org/1999/02/22-rdf-syntax-ns#" xmlns:svg="http://www.w3.org/2000/svg" xmlns="http://www.w3.org/2000/svg" xmlns:sodipodi="http://sodipodi.sourceforge.net/DTD/sodipodi-0.dtd" xmlns:inkscape="http://www.inkscape.org/namespaces/inkscape" version="1.1" id="svg2" xml:space="preserve" sodipodi:docname="unidas_rac2.ai" viewBox="44.25 68.45 494.16 156.44"><metadata id="metadata8"><rdf:RDF><cc:Work rdf:about=""><dc:format>image/svg+xml</dc:format><dc:type rdf:resource="http://purl.org/dc/dcmitype/StillImage"/></cc:Work></rdf:RDF></metadata><defs id="defs6"><clipPath clipPathUnits="userSpaceOnUse" id="clipPath18"><path d="M 0,220 H 437 V 0 H 0 Z" id="path16"/></clipPath></defs><sodipodi:namedview pagecolor="#ffffff" bordercolor="#666666" borderopacity="1" objecttolerance="10" gridtolerance="10" guidetolerance="10" inkscape:pageopacity="0" inkscape:pageshadow="2" inkscape:window-width="640" inkscape:window-height="480" id="namedview4"/><g id="g10" inkscape:groupmode="layer" inkscape:label="unidas_rac2" transform="matrix(1.3333333,0,0,-1.3333333,0,293.33333)"><g id="g12"><g id="g14" clip-path="url(#clipPath18)"><g id="g20" transform="translate(87.7959,142.21)"><path d="m 0,0 c -15.524,0 -28.155,-12.63 -28.155,-28.155 0,-15.525 12.631,-28.156 28.155,-28.156 15.525,0 28.155,12.631 28.155,28.156 C 28.155,-12.63 15.525,0 0,0 m 0,-82.764 c -30.111,0 -54.608,24.497 -54.608,54.609 0,30.111 24.497,54.608 54.608,54.608 30.111,0 54.608,-24.497 54.608,-54.608 0,-30.112 -24.497,-54.609 -54.608,-54.609" style="fill:#005b9e;fill-opacity:1;fill-rule:nonzero;stroke:none" id="path22"/></g><g id="g24" transform="translate(164.3818,135.7695)"><path d="m 0,0 h 8.85 c 1.517,0 2.748,-1.23 2.748,-2.748 v -25.165 c 0,-2.949 0.802,-5.227 2.408,-6.831 1.605,-1.607 3.686,-2.408 6.241,-2.408 1.573,0 3.047,0.31 4.423,0.934 1.376,0.621 2.556,1.489 3.538,2.605 0.983,1.112 1.752,2.407 2.31,3.882 0.556,1.474 0.836,3.062 0.836,4.766 V 0 h 11.597 v -46.096 h -8.509 c -1.458,0 -2.662,1.138 -2.744,2.593 l -0.148,2.616 c -0.59,-0.656 -1.312,-1.343 -2.162,-2.064 -0.852,-0.722 -1.835,-1.393 -2.949,-2.015 -1.115,-0.623 -2.392,-1.13 -3.833,-1.523 -1.442,-0.394 -3.081,-0.59 -4.914,-0.59 -5.767,0 -10.157,1.72 -13.171,5.16 C 1.507,-38.479 0,-33.844 0,-28.012 Z" style="fill:#005b9e;fill-opacity:1;fill-rule:nonzero;stroke:none" id="path26"/></g><g id="g28" transform="translate(211.2075,135.7695)"><path d="m 0,0 h 8.509 c 1.458,0 2.662,-1.138 2.744,-2.594 l 0.148,-2.615 c 0.59,0.654 1.293,1.342 2.113,2.064 0.819,0.72 1.801,1.391 2.949,2.015 1.145,0.622 2.44,1.13 3.882,1.524 1.441,0.392 3.079,0.589 4.915,0.589 5.764,0 10.156,-1.72 13.17,-5.16 3.013,-3.44 4.521,-8.077 4.521,-13.908 v -28.011 h -8.849 c -1.519,0 -2.749,1.231 -2.749,2.748 v 25.165 c 0,2.949 -0.803,5.225 -2.408,6.83 -1.606,1.606 -3.685,2.409 -6.241,2.409 -1.572,0 -3.047,-0.312 -4.423,-0.934 -1.376,-0.623 -2.555,-1.491 -3.538,-2.604 -0.983,-1.116 -1.754,-2.409 -2.31,-3.882 -0.558,-1.475 -0.835,-3.065 -0.835,-4.767 V -46.096 H 2.749 C 1.23,-46.096 0,-44.865 0,-43.348 Z" style="fill:#005b9e;fill-opacity:1;fill-rule:nonzero;stroke:none" id="path30"/></g><g id="g32" transform="translate(257.2568,135.7695)"><path d="m 0,0 h 8.849 c 1.518,0 2.749,-1.23 2.749,-2.748 V -46.096 H 2.749 C 1.23,-46.096 0,-44.865 0,-43.348 Z" style="fill:#005b9e;fill-opacity:1;fill-rule:nonzero;stroke:none" id="path34"/></g><g id="g36" transform="translate(305.4468,124.2705)"><path d="m 0,0 c -1.115,0.916 -2.408,1.556 -3.882,1.916 -1.475,0.359 -3.359,0.54 -5.652,0.54 -2.294,0 -4.194,-0.441 -5.7,-1.326 -1.508,-0.885 -2.819,-2.049 -3.932,-3.489 -0.983,-1.312 -1.754,-2.835 -2.31,-4.571 -0.557,-1.736 -0.835,-3.554 -0.835,-5.455 0,-3.93 0.983,-7.208 2.949,-9.828 1.966,-2.622 4.816,-3.932 8.55,-3.932 1.966,0 3.637,0.376 5.013,1.131 1.376,0.752 2.489,1.72 3.341,2.9 0.852,1.178 1.475,2.471 1.869,3.882 0.392,1.408 0.589,2.767 0.589,4.079 z m 0,-30.076 c -0.589,-0.655 -1.312,-1.344 -2.163,-2.064 -0.852,-0.722 -1.852,-1.377 -2.997,-1.965 -1.147,-0.59 -2.425,-1.082 -3.833,-1.475 -1.41,-0.393 -2.998,-0.59 -4.767,-0.59 -2.491,0 -4.948,0.525 -7.371,1.573 -2.426,1.047 -4.588,2.587 -6.487,4.619 -1.902,2.031 -3.44,4.521 -4.62,7.47 -1.179,2.948 -1.769,6.322 -1.769,10.123 0,3.603 0.524,6.765 1.572,9.486 1.048,2.717 2.359,5.027 3.932,6.928 1.31,1.573 2.752,2.883 4.324,3.932 1.574,1.047 3.161,1.916 4.767,2.604 1.605,0.689 3.161,1.179 4.669,1.474 1.507,0.295 2.816,0.443 3.931,0.443 1.507,0 2.752,-0.049 3.735,-0.148 0.983,-0.098 1.868,-0.23 2.654,-0.393 0.786,-0.165 1.506,-0.378 2.162,-0.638 C -1.606,11.04 -0.852,10.745 0,10.418 V 30.96 h 8.751 c 1.518,0 2.749,-1.231 2.749,-2.749 V -34.597 H 2.87 c -1.449,0 -2.648,1.124 -2.743,2.57 z" style="fill:#005b9e;fill-opacity:1;fill-rule:nonzero;stroke:none" id="path38"/></g><g id="g40" transform="translate(350.2852,110.5098)"><path d="m 0,0 c -1.18,0.064 -2.327,0.131 -3.44,0.197 -0.918,0.065 -1.884,0.114 -2.9,0.148 -1.016,0.032 -1.884,0.049 -2.604,0.049 -3.735,0 -6.357,-0.738 -7.863,-2.212 -1.508,-1.474 -2.261,-3.162 -2.261,-5.062 0,-1.966 0.704,-3.506 2.114,-4.619 1.408,-1.115 3.489,-1.671 6.241,-1.671 1.376,0 2.703,0.229 3.98,0.688 1.278,0.458 2.408,1.081 3.391,1.868 0.983,0.786 1.784,1.703 2.408,2.752 C -0.312,-6.815 0,-5.7 0,-4.521 Z m 0,-16.512 c -1.246,-1.508 -3.146,-2.85 -5.701,-4.029 -2.555,-1.18 -5.405,-1.77 -8.55,-1.77 -1.902,0 -3.785,0.295 -5.652,0.885 -1.868,0.59 -3.572,1.489 -5.111,2.702 -1.54,1.212 -2.786,2.768 -3.735,4.669 -0.95,1.9 -1.425,4.128 -1.425,6.684 0,2.62 0.491,4.963 1.474,7.027 0.983,2.064 2.359,3.8 4.128,5.209 1.77,1.408 3.898,2.473 6.389,3.195 2.49,0.72 5.241,1.081 8.256,1.081 0.917,0 1.932,-0.017 3.047,-0.049 C -5.767,9.058 -4.686,9.009 -3.637,8.944 -2.457,8.878 -1.246,8.813 0,8.748 v 1.081 c 0,2.293 -0.918,4.094 -2.752,5.405 -1.835,1.31 -4.227,1.966 -7.175,1.966 -3.278,0 -5.897,-0.427 -7.863,-1.277 -1.092,-0.474 -2.114,-0.968 -3.064,-1.482 -1.249,-0.673 -2.799,-0.302 -3.592,0.873 l -3.861,5.719 c 0.917,0.654 1.966,1.327 3.145,2.016 1.18,0.687 2.556,1.309 4.129,1.867 1.572,0.556 3.39,1.015 5.454,1.376 2.064,0.359 4.473,0.54 7.225,0.54 2.948,0 5.617,-0.41 8.01,-1.228 2.391,-0.821 4.438,-1.966 6.143,-3.44 1.703,-1.475 3.013,-3.243 3.931,-5.308 0.917,-2.064 1.376,-4.309 1.376,-6.732 v -30.96 H 2.862 c -1.445,0 -2.644,1.119 -2.742,2.562 z" style="fill:#005b9e;fill-opacity:1;fill-rule:nonzero;stroke:none" id="path42"/></g><g id="g44" transform="translate(369.2036,100.9121)"><path d="m 0,0 c 0.929,1.008 2.476,1.201 3.585,0.396 1.071,-0.779 2.289,-1.462 3.651,-2.051 2.195,-0.951 4.701,-1.426 7.519,-1.426 2.489,0 4.487,0.327 5.995,0.982 1.507,0.655 2.261,1.737 2.261,3.245 0,0.654 -0.132,1.26 -0.393,1.818 C 22.355,3.52 21.798,4.061 20.947,4.585 20.095,5.109 18.915,5.633 17.409,6.158 15.9,6.682 13.871,7.239 11.315,7.828 9.742,8.222 8.104,8.745 6.4,9.401 c -1.704,0.655 -3.292,1.556 -4.766,2.703 -1.475,1.146 -2.688,2.522 -3.637,4.128 -0.951,1.605 -1.425,3.522 -1.425,5.749 0,2.293 0.556,4.341 1.671,6.144 1.113,1.801 2.57,3.308 4.374,4.521 1.801,1.211 3.833,2.145 6.093,2.801 2.261,0.655 4.537,0.983 6.831,0.983 4.062,0 7.519,-0.427 10.369,-1.278 2.851,-0.852 5.422,-2.13 7.716,-3.833 l -4.502,-6.126 c -0.797,-1.085 -2.267,-1.444 -3.459,-0.819 -0.869,0.455 -1.852,0.886 -2.949,1.294 -2.031,0.752 -4.423,1.13 -7.175,1.13 -2.752,0 -4.668,-0.41 -5.749,-1.229 C 8.71,24.749 8.17,23.751 8.17,22.571 c 0,-1.441 0.9,-2.572 2.703,-3.39 1.801,-0.821 4.602,-1.688 8.403,-2.605 2.359,-0.525 4.472,-1.18 6.339,-1.966 1.868,-0.786 3.473,-1.768 4.817,-2.948 1.342,-1.18 2.374,-2.572 3.095,-4.178 0.721,-1.606 1.081,-3.522 1.081,-5.749 0,-2.228 -0.525,-4.243 -1.572,-6.045 -1.049,-1.802 -2.474,-3.326 -4.275,-4.57 -1.803,-1.245 -3.9,-2.212 -6.291,-2.899 -2.392,-0.689 -4.931,-1.033 -7.617,-1.033 -4.325,0 -8.224,0.607 -11.696,1.819 -3.474,1.212 -6.258,2.998 -8.354,5.356 z" style="fill:#005b9e;fill-opacity:1;fill-rule:nonzero;stroke:none" id="path46"/></g><g id="g48" transform="translate(269.313,149.0059)"><path d="m 0,0 c 0,-3.438 -2.787,-6.225 -6.225,-6.225 -3.438,0 -6.225,2.787 -6.225,6.225 0,3.438 2.787,6.225 6.225,6.225 C -2.787,6.225 0,3.438 0,0" style="fill:#005b9e;fill-opacity:1;fill-rule:nonzero;stroke:none" id="path50"/></g><g id="g52" transform="translate(175.458,63.958)"><path d="m 0,0 v 1.765 c -0.111,0.044 -0.366,0.083 -0.766,0.116 -0.4,0.033 -0.849,0.066 -1.348,0.099 -0.5,0.034 -0.983,0.051 -1.449,0.051 -1.111,0 -1.959,-0.162 -2.547,-0.483 -0.589,-0.321 -0.989,-0.722 -1.2,-1.198 -0.211,-0.479 -0.316,-0.95 -0.316,-1.416 0,-0.822 0.288,-1.455 0.866,-1.899 0.577,-0.443 1.376,-0.665 2.398,-0.665 0.776,0 1.493,0.171 2.147,0.517 0.655,0.343 1.188,0.793 1.599,1.347 C -0.206,-1.211 0,-0.622 0,0 m 0.1,-5.562 -0.067,1.865 c -0.554,-0.754 -1.315,-1.326 -2.281,-1.715 -0.966,-0.388 -1.937,-0.582 -2.913,-0.582 -0.845,0 -1.682,0.155 -2.515,0.466 -0.832,0.31 -1.52,0.821 -2.064,1.532 -0.544,0.71 -0.817,1.653 -0.817,2.83 0,1.665 0.589,2.997 1.766,3.996 1.176,1 2.853,1.499 5.028,1.499 0.488,0 0.993,-0.017 1.515,-0.05 C -1.727,4.246 -1.255,4.213 -0.833,4.18 -0.411,4.146 -0.133,4.117 0,4.096 v 0.566 c 0,1.154 -0.35,1.982 -1.049,2.481 -0.699,0.5 -1.648,0.75 -2.847,0.75 -1.155,0 -2.082,-0.163 -2.781,-0.484 C -7.376,7.088 -7.959,6.76 -8.425,6.427 l -1.398,2.032 c 0.554,0.443 1.32,0.876 2.297,1.298 0.977,0.421 2.297,0.633 3.963,0.633 1.975,0 3.541,-0.484 4.695,-1.449 C 2.286,7.976 2.863,6.604 2.863,4.828 v -9.024 -0.566 c 0,-0.222 0.012,-0.489 0.034,-0.8 z" style="fill:#005b9e;fill-opacity:1;fill-rule:nonzero;stroke:none" id="path54"/></g><path d="m 182.277,80.608 h 2.997 V 58.396 h -2.997 z" style="fill:#005b9e;fill-opacity:1;fill-rule:nonzero;stroke:none" id="path56"/><g id="g58" transform="translate(189.1934,64.5908)"><path d="M 0,0 V 9.291 H 2.997 V 0.199 c 0,-1.443 0.3,-2.498 0.899,-3.164 0.599,-0.666 1.465,-0.998 2.597,-0.998 1.154,0 2.054,0.299 2.697,0.899 0.644,0.599 1.105,1.359 1.382,2.281 0.278,0.921 0.417,1.881 0.417,2.881 v 7.193 h 2.997 v -13.92 -0.616 c 0,-0.322 0.011,-0.639 0.034,-0.949 h -2.865 l -0.099,2.298 C 10.811,-4.252 10.467,-4.635 10.023,-5.045 9.579,-5.457 9.019,-5.807 8.342,-6.094 7.664,-6.383 6.849,-6.527 5.894,-6.527 c -2.02,0 -3.508,0.588 -4.462,1.765 C 0.477,-3.586 0,-1.998 0,0" style="fill:#005b9e;fill-opacity:1;fill-rule:nonzero;stroke:none" id="path60"/></g><g id="g62" transform="translate(218.2969,64.7236)"><path d="m 0,0 v 6.428 c -0.199,0.066 -0.538,0.16 -1.016,0.283 -0.477,0.121 -1.193,0.183 -2.147,0.183 -1.133,0 -2.12,-0.24 -2.964,-0.716 C -6.971,5.699 -7.631,5.039 -8.108,4.196 -8.586,3.352 -8.824,2.375 -8.824,1.266 c 0,-0.933 0.149,-1.787 0.449,-2.565 0.3,-0.777 0.783,-1.398 1.449,-1.865 0.666,-0.466 1.52,-0.699 2.564,-0.699 0.999,0 1.82,0.188 2.465,0.566 0.643,0.377 1.12,0.859 1.431,1.449 C -0.155,-1.26 0,-0.645 0,0 m -10.456,-11.688 1.398,2.198 c 0.511,-0.356 1.138,-0.66 1.882,-0.916 0.743,-0.255 1.649,-0.383 2.714,-0.383 1.487,0 2.598,0.41 3.33,1.232 0.733,0.821 1.099,1.898 1.099,3.23 v 1.897 c -0.199,-0.177 -0.499,-0.427 -0.899,-0.748 -0.4,-0.322 -0.916,-0.617 -1.548,-0.883 -0.633,-0.266 -1.416,-0.4 -2.348,-0.4 -1.51,0 -2.792,0.334 -3.847,1 -1.054,0.666 -1.853,1.582 -2.397,2.747 -0.544,1.165 -0.816,2.481 -0.816,3.946 0,1.599 0.367,3.025 1.099,4.28 0.732,1.254 1.754,2.236 3.063,2.947 1.31,0.71 2.831,1.064 4.563,1.064 1.243,0 2.414,-0.111 3.513,-0.332 C 1.449,8.969 2.331,8.725 2.997,8.459 V -6.327 c 0,-2.22 -0.655,-3.951 -1.965,-5.194 -1.309,-1.245 -3.13,-1.866 -5.461,-1.866 -1.576,0 -2.83,0.178 -3.762,0.533 -0.933,0.356 -1.688,0.745 -2.265,1.166" style="fill:#005b9e;fill-opacity:1;fill-rule:nonzero;stroke:none" id="path64"/></g><g id="g66" transform="translate(225.1973,64.5908)"><path d="M 0,0 V 9.291 H 2.997 V 0.199 c 0,-1.443 0.3,-2.498 0.899,-3.164 0.599,-0.666 1.465,-0.998 2.597,-0.998 1.154,0 2.054,0.299 2.697,0.899 0.644,0.599 1.105,1.359 1.382,2.281 0.278,0.921 0.417,1.881 0.417,2.881 v 7.193 h 2.997 v -13.92 -0.616 c 0,-0.322 0.011,-0.639 0.034,-0.949 h -2.865 l -0.099,2.298 C 10.811,-4.252 10.467,-4.635 10.023,-5.045 9.579,-5.457 9.019,-5.807 8.342,-6.094 7.664,-6.383 6.849,-6.527 5.894,-6.527 c -2.02,0 -3.508,0.588 -4.462,1.765 C 0.477,-3.586 0,-1.998 0,0" style="fill:#005b9e;fill-opacity:1;fill-rule:nonzero;stroke:none" id="path68"/></g><g id="g70" transform="translate(245.4766,67.4873)"><path d="M 0,0 H 9.124 C 9.035,1.199 8.613,2.221 7.858,3.064 7.104,3.908 6.038,4.33 4.662,4.33 3.707,4.33 2.886,4.118 2.198,3.697 1.51,3.275 0.982,2.736 0.616,2.082 0.25,1.427 0.044,0.733 0,0 m 10.123,-5.028 1.698,-1.798 C 11.6,-7.093 11.2,-7.442 10.623,-7.875 10.045,-8.309 9.296,-8.697 8.375,-9.041 7.453,-9.385 6.338,-9.557 5.028,-9.557 c -1.598,0 -3.008,0.35 -4.229,1.049 -1.221,0.699 -2.17,1.676 -2.847,2.93 -0.678,1.254 -1.015,2.703 -1.015,4.346 0,1.509 0.327,2.875 0.982,4.096 0.654,1.221 1.564,2.193 2.73,2.914 1.165,0.722 2.503,1.082 4.013,1.082 1.798,0 3.252,-0.432 4.362,-1.298 1.11,-0.867 1.92,-1.988 2.431,-3.364 0.511,-1.376 0.766,-2.852 0.766,-4.428 L 0,-2.23 c 0.021,-0.912 0.267,-1.727 0.732,-2.449 0.467,-0.721 1.082,-1.288 1.849,-1.698 0.766,-0.411 1.593,-0.616 2.481,-0.616 1.309,0 2.391,0.222 3.247,0.666 0.854,0.444 1.459,0.877 1.814,1.299" style="fill:#005b9e;fill-opacity:1;fill-rule:nonzero;stroke:none" id="path72"/></g><path d="m 260.845,80.608 h 2.997 V 58.396 h -2.997 z" style="fill:#005b9e;fill-opacity:1;fill-rule:nonzero;stroke:none" id="path74"/><g id="g76" transform="translate(285.1191,64.9229)"><path d="m 0,0 v 5.529 c -0.399,0.332 -0.91,0.61 -1.531,0.832 -0.622,0.222 -1.377,0.333 -2.265,0.333 -1.443,0 -2.647,-0.51 -3.613,-1.532 -0.966,-1.021 -1.448,-2.42 -1.448,-4.195 0,-0.979 0.161,-1.877 0.482,-2.697 0.322,-0.823 0.816,-1.472 1.482,-1.95 0.666,-0.476 1.509,-0.715 2.531,-0.715 1.044,0 1.882,0.239 2.514,0.715 0.633,0.478 1.099,1.061 1.399,1.748 C -0.149,-1.243 0,-0.6 0,0 M 0.101,-6.526 0,-4.562 C -0.155,-4.74 -0.438,-5.027 -0.849,-5.428 -1.26,-5.827 -1.81,-6.187 -2.497,-6.51 c -0.689,-0.321 -1.532,-0.482 -2.531,-0.482 -1.31,0 -2.487,0.328 -3.53,0.982 -1.044,0.655 -1.865,1.581 -2.463,2.781 -0.6,1.198 -0.9,2.608 -0.9,4.229 0,1.465 0.25,2.725 0.749,3.779 0.5,1.055 1.15,1.915 1.948,2.581 0.799,0.666 1.66,1.16 2.581,1.482 0.921,0.322 1.792,0.482 2.614,0.482 0.843,0 1.57,-0.088 2.181,-0.265 C -1.237,8.881 -0.621,8.637 0,8.326 v 7.36 H 2.997 V -4.961 -5.577 c 0,-0.322 0.011,-0.639 0.033,-0.949 z" style="fill:#005b9e;fill-opacity:1;fill-rule:nonzero;stroke:none" id="path78"/></g><g id="g80" transform="translate(294.4102,67.4873)"><path d="M 0,0 H 9.124 C 9.035,1.199 8.613,2.221 7.858,3.064 7.104,3.908 6.038,4.33 4.662,4.33 3.707,4.33 2.886,4.118 2.198,3.697 1.51,3.275 0.982,2.736 0.616,2.082 0.25,1.427 0.044,0.733 0,0 m 10.123,-5.028 1.698,-1.798 C 11.6,-7.093 11.2,-7.442 10.623,-7.875 10.045,-8.309 9.296,-8.697 8.375,-9.041 7.453,-9.385 6.338,-9.557 5.028,-9.557 c -1.598,0 -3.008,0.35 -4.229,1.049 -1.221,0.699 -2.17,1.676 -2.847,2.93 -0.678,1.254 -1.015,2.703 -1.015,4.346 0,1.509 0.327,2.875 0.982,4.096 0.654,1.221 1.564,2.193 2.73,2.914 1.165,0.722 2.503,1.082 4.013,1.082 1.798,0 3.252,-0.432 4.362,-1.298 1.11,-0.867 1.92,-1.988 2.431,-3.364 0.511,-1.376 0.766,-2.852 0.766,-4.428 L 0,-2.23 c 0.021,-0.912 0.267,-1.727 0.732,-2.449 0.467,-0.721 1.082,-1.288 1.849,-1.698 0.766,-0.411 1.593,-0.616 2.481,-0.616 1.309,0 2.391,0.222 3.247,0.666 0.854,0.444 1.459,0.877 1.814,1.299" style="fill:#005b9e;fill-opacity:1;fill-rule:nonzero;stroke:none" id="path82"/></g><g id="g84" transform="translate(327.6104,62.459)"><path d="M 0,0 1.831,-1.931 C 1.143,-2.708 0.288,-3.335 -0.732,-3.813 -1.754,-4.29 -2.92,-4.528 -4.229,-4.528 c -1.666,0 -3.103,0.355 -4.313,1.065 -1.21,0.71 -2.147,1.682 -2.813,2.913 -0.666,1.233 -0.999,2.649 -0.999,4.246 0,1.51 0.343,2.887 1.032,4.13 0.687,1.243 1.648,2.237 2.881,2.981 1.231,0.743 2.635,1.115 4.212,1.115 1.309,0 2.464,-0.234 3.462,-0.699 0.999,-0.466 1.854,-1.099 2.565,-1.898 L -0.167,7.427 c -0.466,0.576 -1.032,1.032 -1.698,1.365 -0.666,0.333 -1.454,0.5 -2.364,0.5 -1.066,0 -1.982,-0.262 -2.748,-0.783 C -7.742,7.987 -8.325,7.304 -8.725,6.461 -9.124,5.616 -9.324,4.696 -9.324,3.696 c 0,-0.955 0.205,-1.859 0.616,-2.714 0.41,-0.854 0.993,-1.547 1.748,-2.081 0.755,-0.533 1.665,-0.798 2.731,-0.798 0.91,0 1.725,0.171 2.447,0.515 C -1.061,-1.038 -0.467,-0.577 0,0" style="fill:#005b9e;fill-opacity:1;fill-rule:nonzero;stroke:none" id="path86"/></g><g id="g88" transform="translate(342.0557,63.958)"><path d="m 0,0 v 1.765 c -0.111,0.044 -0.366,0.083 -0.766,0.116 -0.4,0.033 -0.849,0.066 -1.348,0.099 -0.5,0.034 -0.983,0.051 -1.449,0.051 -1.111,0 -1.959,-0.162 -2.547,-0.483 -0.589,-0.321 -0.989,-0.722 -1.2,-1.198 -0.211,-0.479 -0.316,-0.95 -0.316,-1.416 0,-0.822 0.288,-1.455 0.866,-1.899 0.577,-0.443 1.376,-0.665 2.398,-0.665 0.776,0 1.493,0.171 2.147,0.517 0.655,0.343 1.188,0.793 1.599,1.347 C -0.206,-1.211 0,-0.622 0,0 m 0.1,-5.562 -0.067,1.865 c -0.554,-0.754 -1.315,-1.326 -2.281,-1.715 -0.966,-0.388 -1.937,-0.582 -2.913,-0.582 -0.845,0 -1.682,0.155 -2.515,0.466 -0.832,0.31 -1.52,0.821 -2.064,1.532 -0.544,0.71 -0.817,1.653 -0.817,2.83 0,1.665 0.589,2.997 1.766,3.996 1.176,1 2.853,1.499 5.028,1.499 0.488,0 0.993,-0.017 1.515,-0.05 C -1.727,4.246 -1.255,4.213 -0.833,4.18 -0.411,4.146 -0.133,4.117 0,4.096 v 0.566 c 0,1.154 -0.35,1.982 -1.049,2.481 -0.699,0.5 -1.648,0.75 -2.847,0.75 -1.155,0 -2.082,-0.163 -2.781,-0.484 C -7.376,7.088 -7.959,6.76 -8.425,6.427 l -1.398,2.032 c 0.554,0.443 1.32,0.876 2.297,1.298 0.977,0.421 2.297,0.633 3.963,0.633 1.975,0 3.541,-0.484 4.695,-1.449 C 2.286,7.976 2.863,6.604 2.863,4.828 v -9.024 -0.566 c 0,-0.222 0.012,-0.489 0.034,-0.8 z" style="fill:#005b9e;fill-opacity:1;fill-rule:nonzero;stroke:none" id="path90"/></g><g id="g92" transform="translate(351.8623,58.3965)"><path d="m 0,0 h -2.997 v 13.986 0.533 c 0,0.201 -0.012,0.521 -0.033,0.966 h 2.864 l 0.1,-2.498 c 0.244,0.356 0.583,0.744 1.015,1.166 0.433,0.421 0.983,0.787 1.649,1.099 0.666,0.311 1.464,0.466 2.397,0.466 0.333,0 0.638,-0.022 0.916,-0.067 0.277,-0.045 0.538,-0.111 0.782,-0.199 L 6.027,12.654 c -0.399,0.156 -0.91,0.234 -1.532,0.234 -0.844,0 -1.603,-0.217 -2.28,-0.65 C 1.537,11.806 0.999,11.233 0.6,10.523 0.2,9.813 0,9.024 0,8.159 Z" style="fill:#005b9e;fill-opacity:1;fill-rule:nonzero;stroke:none" id="path94"/></g><g id="g96" transform="translate(363.9062,58.3965)"><path d="m 0,0 h -2.997 v 13.986 0.533 c 0,0.201 -0.012,0.521 -0.033,0.966 h 2.864 l 0.1,-2.498 c 0.244,0.356 0.583,0.744 1.015,1.166 0.433,0.421 0.983,0.787 1.649,1.099 0.666,0.311 1.464,0.466 2.397,0.466 0.333,0 0.638,-0.022 0.916,-0.067 0.277,-0.045 0.538,-0.111 0.782,-0.199 L 6.027,12.654 c -0.399,0.156 -0.91,0.234 -1.532,0.234 -0.844,0 -1.603,-0.217 -2.28,-0.65 C 1.537,11.806 0.999,11.233 0.6,10.523 0.2,9.813 0,9.024 0,8.159 Z" style="fill:#005b9e;fill-opacity:1;fill-rule:nonzero;stroke:none" id="path98"/></g><g id="g100" transform="translate(379.8799,60.5283)"><path d="M 0,0 C 1.088,0 2.015,0.271 2.781,0.815 3.547,1.359 4.135,2.064 4.546,2.93 4.956,3.795 5.162,4.695 5.162,5.627 5.162,6.561 4.956,7.459 4.546,8.324 4.135,9.19 3.541,9.895 2.765,10.439 1.987,10.982 1.066,11.256 0,11.256 c -1.065,0 -1.986,-0.274 -2.764,-0.817 C -3.541,9.895 -4.135,9.195 -4.545,8.342 -4.956,7.486 -5.161,6.582 -5.161,5.627 -5.161,4.695 -4.95,3.801 -4.528,2.946 -4.107,2.092 -3.513,1.387 -2.747,0.832 -1.981,0.277 -1.065,0 0,0 m 0,-2.598 c -1.576,0 -2.985,0.371 -4.229,1.116 -1.244,0.744 -2.214,1.742 -2.914,2.997 -0.699,1.254 -1.048,2.625 -1.048,4.112 0,1.51 0.349,2.887 1.048,4.13 0.7,1.243 1.67,2.236 2.914,2.98 1.244,0.743 2.653,1.116 4.229,1.116 1.576,0 2.98,-0.373 4.213,-1.116 C 5.445,11.993 6.416,11 7.127,9.757 7.837,8.514 8.192,7.137 8.192,5.627 8.192,4.14 7.837,2.769 7.127,1.515 6.416,0.26 5.445,-0.738 4.213,-1.482 2.98,-2.227 1.576,-2.598 0,-2.598" style="fill:#005b9e;fill-opacity:1;fill-rule:nonzero;stroke:none" id="path102"/></g><g id="g104" transform="translate(389.9736,60.2939)"><path d="M 0,0 1.831,1.998 C 2.386,1.443 3.052,1 3.829,0.666 4.606,0.334 5.505,0.167 6.526,0.167 c 0.999,0 1.832,0.161 2.498,0.483 0.666,0.322 0.999,0.827 0.999,1.515 0,0.488 -0.133,0.877 -0.4,1.165 C 9.357,3.619 8.901,3.88 8.258,4.113 7.614,4.346 6.727,4.596 5.594,4.862 4.795,5.062 4.018,5.334 3.263,5.678 2.508,6.021 1.887,6.5 1.398,7.111 0.91,7.721 0.666,8.515 0.666,9.492 c 0,0.998 0.294,1.842 0.882,2.53 0.588,0.689 1.348,1.205 2.281,1.548 0.933,0.345 1.909,0.517 2.931,0.517 1.309,0 2.441,-0.172 3.396,-0.517 0.954,-0.343 1.776,-0.826 2.464,-1.447 L 10.988,10.058 C 10.522,10.479 9.939,10.834 9.24,11.123 8.541,11.412 7.726,11.557 6.793,11.557 5.838,11.557 5.072,11.4 4.495,11.09 3.918,10.779 3.629,10.269 3.629,9.559 3.629,8.893 4.018,8.398 4.795,8.076 5.571,7.754 6.57,7.449 7.792,7.16 8.769,6.938 9.651,6.645 10.439,6.277 c 0.788,-0.365 1.42,-0.86 1.898,-1.481 0.477,-0.622 0.717,-1.433 0.717,-2.431 0,-1.021 -0.306,-1.882 -0.916,-2.581 C 11.526,-0.915 10.733,-1.447 9.757,-1.814 8.779,-2.181 7.726,-2.363 6.593,-2.363 3.663,-2.363 1.465,-1.576 0,0" style="fill:#005b9e;fill-opacity:1;fill-rule:nonzero;stroke:none" id="path106"/></g></g></g></g></svg>