<?xml version="1.0" encoding="utf-8"?>
<!-- Generator: Adobe Illustrator 27.9.0, SVG Export Plug-In . SVG Version: 6.00 Build 0)  -->
<svg version="1.1"
	 id="svg2" xmlns:sodipodi="http://sodipodi.sourceforge.net/DTD/sodipodi-0.dtd" xmlns:inkscape="http://www.inkscape.org/namespaces/inkscape" xmlns:rdf="http://www.w3.org/1999/02/22-rdf-syntax-ns#" xmlns:cc="http://creativecommons.org/ns#" xmlns:svg="http://www.w3.org/2000/svg" xmlns:dc="http://purl.org/dc/elements/1.1/" sodipodi:docname="unidas_rac2.ai"
	 xmlns="http://www.w3.org/2000/svg" xmlns:xlink="http://www.w3.org/1999/xlink" x="0px" y="0px" viewBox="0 0 494.2 156.4"
	 style="enable-background:new 0 0 494.2 156.4;" xml:space="preserve">
<style type="text/css">
	.st0{clip-path:url(#SVGID_00000042715137752093968040000005018710599601576581_);}
	.st1{fill:#FFFFFF;}
</style>
<sodipodi:namedview  bordercolor="#666666" borderopacity="1" gridtolerance="10" guidetolerance="10" id="namedview4" inkscape:pageopacity="0" inkscape:pageshadow="2" inkscape:window-height="480" inkscape:window-width="640" objecttolerance="10" pagecolor="#ffffff">
	</sodipodi:namedview>
<g id="g10" transform="matrix(1.3333333,0,0,-1.3333333,0,293.33333)" inkscape:groupmode="layer" inkscape:label="unidas_rac2">
	<g id="g12">
		<g>
			<defs>
				<rect id="SVGID_1_" x="-106" y="14.7" width="582.7" height="293.3"/>
			</defs>
			<clipPath id="SVGID_00000019680091835852709310000006270235082186200767_">
				<use xlink:href="#SVGID_1_"  style="overflow:visible;"/>
			</clipPath>
			<g id="g14" style="clip-path:url(#SVGID_00000019680091835852709310000006270235082186200767_);">
				<g id="g20" transform="translate(87.7959,142.21)">
					<path id="path22" class="st1" d="M-33.2,51.3c-15.5,0-28.2-12.6-28.2-28.2S-48.7-5-33.2-5C-17.7-5-5,7.7-5,23.2
						S-17.7,51.3-33.2,51.3 M-33.2-31.4c-30.1,0-54.6,24.5-54.6,54.6c0,30.1,24.5,54.6,54.6,54.6s54.6-24.5,54.6-54.6
						C21.4-6.9-3.1-31.4-33.2-31.4"/>
				</g>
				<g id="g24" transform="translate(164.3818,135.7695)">
					<path id="path26" class="st1" d="M-33.2,51.3h8.9c1.5,0,2.7-1.2,2.7-2.7V23.4c0-2.9,0.8-5.2,2.4-6.8c1.6-1.6,3.7-2.4,6.2-2.4
						c1.6,0,3,0.3,4.4,0.9c1.4,0.6,2.6,1.5,3.5,2.6c1,1.1,1.8,2.4,2.3,3.9c0.6,1.5,0.8,3.1,0.8,4.8v25H9.8V5.2H1.3
						c-1.5,0-2.7,1.1-2.7,2.6l-0.1,2.6c-0.6-0.7-1.3-1.3-2.2-2.1c-0.9-0.7-1.8-1.4-2.9-2c-1.1-0.6-2.4-1.1-3.8-1.5
						c-1.4-0.4-3.1-0.6-4.9-0.6c-5.8,0-10.2,1.7-13.2,5.2c-3,3.4-4.5,8.1-4.5,13.9V51.3z"/>
				</g>
				<g id="g28" transform="translate(211.2075,135.7695)">
					<path id="path30" class="st1" d="M-33.2,51.3h8.5c1.5,0,2.7-1.1,2.7-2.6l0.1-2.6c0.6,0.7,1.3,1.3,2.1,2.1
						c0.8,0.7,1.8,1.4,2.9,2c1.1,0.6,2.4,1.1,3.9,1.5c1.4,0.4,3.1,0.6,4.9,0.6c5.8,0,10.2-1.7,13.2-5.2c3-3.4,4.5-8.1,4.5-13.9v-28
						H0.9c-1.5,0-2.7,1.2-2.7,2.7v25.2c0,2.9-0.8,5.2-2.4,6.8c-1.6,1.6-3.7,2.4-6.2,2.4c-1.6,0-3-0.3-4.4-0.9
						c-1.4-0.6-2.6-1.5-3.5-2.6c-1-1.1-1.8-2.4-2.3-3.9c-0.6-1.5-0.8-3.1-0.8-4.8v-25h-8.8c-1.5,0-2.7,1.2-2.7,2.7V51.3z"/>
				</g>
				<g id="g32" transform="translate(257.2568,135.7695)">
					<path id="path34" class="st1" d="M-33.2,51.3h8.8c1.5,0,2.7-1.2,2.7-2.7V5.2h-8.8c-1.5,0-2.7,1.2-2.7,2.7V51.3z"/>
				</g>
				<g id="g36" transform="translate(305.4468,124.2705)">
					<path id="path38" class="st1" d="M-33.2,51.3c-1.1,0.9-2.4,1.6-3.9,1.9c-1.5,0.4-3.4,0.5-5.7,0.5c-2.3,0-4.2-0.4-5.7-1.3
						c-1.5-0.9-2.8-2-3.9-3.5c-1-1.3-1.8-2.8-2.3-4.6c-0.6-1.7-0.8-3.6-0.8-5.5c0-3.9,1-7.2,2.9-9.8c2-2.6,4.8-3.9,8.6-3.9
						c2,0,3.6,0.4,5,1.1c1.4,0.8,2.5,1.7,3.3,2.9c0.9,1.2,1.5,2.5,1.9,3.9c0.4,1.4,0.6,2.8,0.6,4.1V51.3z M-33.2,21.3
						c-0.6-0.7-1.3-1.3-2.2-2.1c-0.9-0.7-1.9-1.4-3-2c-1.1-0.6-2.4-1.1-3.8-1.5c-1.4-0.4-3-0.6-4.8-0.6c-2.5,0-4.9,0.5-7.4,1.6
						c-2.4,1-4.6,2.6-6.5,4.6c-1.9,2-3.4,4.5-4.6,7.5c-1.2,2.9-1.8,6.3-1.8,10.1c0,3.6,0.5,6.8,1.6,9.5c1,2.7,2.4,5,3.9,6.9
						c1.3,1.6,2.8,2.9,4.3,3.9c1.6,1,3.2,1.9,4.8,2.6c1.6,0.7,3.2,1.2,4.7,1.5c1.5,0.3,2.8,0.4,3.9,0.4c1.5,0,2.8,0,3.7-0.1
						c1-0.1,1.9-0.2,2.7-0.4c0.8-0.2,1.5-0.4,2.2-0.6c0.7-0.3,1.4-0.6,2.3-0.9v20.5h8.8c1.5,0,2.7-1.2,2.7-2.7V16.7h-8.6
						c-1.4,0-2.6,1.1-2.7,2.6L-33.2,21.3z"/>
				</g>
				<g id="g40" transform="translate(350.2852,110.5098)">
					<path id="path42" class="st1" d="M-33.2,51.3c-1.2,0.1-2.3,0.1-3.4,0.2c-0.9,0.1-1.9,0.1-2.9,0.1c-1,0-1.9,0-2.6,0
						c-3.7,0-6.4-0.7-7.9-2.2c-1.5-1.5-2.3-3.2-2.3-5.1c0-2,0.7-3.5,2.1-4.6c1.4-1.1,3.5-1.7,6.2-1.7c1.4,0,2.7,0.2,4,0.7
						c1.3,0.5,2.4,1.1,3.4,1.9c1,0.8,1.8,1.7,2.4,2.8c0.6,1,0.9,2.2,0.9,3.3V51.3z M-33.2,34.8c-1.2-1.5-3.1-2.9-5.7-4
						c-2.6-1.2-5.4-1.8-8.6-1.8c-1.9,0-3.8,0.3-5.7,0.9c-1.9,0.6-3.6,1.5-5.1,2.7c-1.5,1.2-2.8,2.8-3.7,4.7c-1,1.9-1.4,4.1-1.4,6.7
						c0,2.6,0.5,5,1.5,7c1,2.1,2.4,3.8,4.1,5.2c1.8,1.4,3.9,2.5,6.4,3.2c2.5,0.7,5.2,1.1,8.3,1.1c0.9,0,1.9,0,3,0
						c1.1,0,2.2-0.1,3.2-0.1c1.2-0.1,2.4-0.1,3.6-0.2v1.1c0,2.3-0.9,4.1-2.8,5.4c-1.8,1.3-4.2,2-7.2,2c-3.3,0-5.9-0.4-7.9-1.3
						c-1.1-0.5-2.1-1-3.1-1.5c-1.2-0.7-2.8-0.3-3.6,0.9l-3.9,5.7c0.9,0.7,2,1.3,3.1,2c1.2,0.7,2.6,1.3,4.1,1.9
						c1.6,0.6,3.4,1,5.5,1.4c2.1,0.4,4.5,0.5,7.2,0.5c2.9,0,5.6-0.4,8-1.2c2.4-0.8,4.4-2,6.1-3.4c1.7-1.5,3-3.2,3.9-5.3
						c0.9-2.1,1.4-4.3,1.4-6.7v-31h-8.2c-1.4,0-2.6,1.1-2.7,2.6L-33.2,34.8z"/>
				</g>
				<g id="g44" transform="translate(369.2036,100.9121)">
					<path id="path46" class="st1" d="M-33.2,51.3c0.9,1,2.5,1.2,3.6,0.4c1.1-0.8,2.3-1.5,3.7-2.1c2.2-1,4.7-1.4,7.5-1.4
						c2.5,0,4.5,0.3,6,1c1.5,0.7,2.3,1.7,2.3,3.2c0,0.7-0.1,1.3-0.4,1.8c-0.3,0.6-0.8,1.1-1.7,1.6c-0.9,0.5-2,1-3.5,1.6
						c-1.5,0.5-3.5,1.1-6.1,1.7c-1.6,0.4-3.2,0.9-4.9,1.6c-1.7,0.7-3.3,1.6-4.8,2.7c-1.5,1.1-2.7,2.5-3.6,4.1
						c-1,1.6-1.4,3.5-1.4,5.7c0,2.3,0.6,4.3,1.7,6.1c1.1,1.8,2.6,3.3,4.4,4.5c1.8,1.2,3.8,2.1,6.1,2.8c2.3,0.7,4.5,1,6.8,1
						c4.1,0,7.5-0.4,10.4-1.3c2.9-0.9,5.4-2.1,7.7-3.8l-4.5-6.1c-0.8-1.1-2.3-1.4-3.5-0.8c-0.9,0.5-1.9,0.9-2.9,1.3
						c-2,0.8-4.4,1.1-7.2,1.1s-4.7-0.4-5.7-1.2c-1.1-0.8-1.6-1.8-1.6-3c0-1.4,0.9-2.6,2.7-3.4c1.8-0.8,4.6-1.7,8.4-2.6
						c2.4-0.5,4.5-1.2,6.3-2c1.9-0.8,3.5-1.8,4.8-2.9c1.3-1.2,2.4-2.6,3.1-4.2c0.7-1.6,1.1-3.5,1.1-5.7c0-2.2-0.5-4.2-1.6-6
						c-1-1.8-2.5-3.3-4.3-4.6c-1.8-1.2-3.9-2.2-6.3-2.9c-2.4-0.7-4.9-1-7.6-1c-4.3,0-8.2,0.6-11.7,1.8c-3.5,1.2-6.3,3-8.4,5.4
						L-33.2,51.3z"/>
				</g>
				<g id="g48" transform="translate(269.313,149.0059)">
					<path id="path50" class="st1" d="M-33.2,51.3c0-3.4-2.8-6.2-6.2-6.2c-3.4,0-6.2,2.8-6.2,6.2s2.8,6.2,6.2,6.2
						C-36,57.6-33.2,54.8-33.2,51.3"/>
				</g>
				<g id="g52" transform="translate(175.458,63.958)">
					<path id="path54" class="st1" d="M-33.2,51.3v1.8c-0.1,0-0.4,0.1-0.8,0.1c-0.4,0-0.8,0.1-1.3,0.1c-0.5,0-1,0.1-1.4,0.1
						c-1.1,0-2-0.2-2.5-0.5c-0.6-0.3-1-0.7-1.2-1.2c-0.2-0.5-0.3-1-0.3-1.4c0-0.8,0.3-1.5,0.9-1.9c0.6-0.4,1.4-0.7,2.4-0.7
						c0.8,0,1.5,0.2,2.1,0.5c0.7,0.3,1.2,0.8,1.6,1.3C-33.4,50.1-33.2,50.7-33.2,51.3 M-33.1,45.8l-0.1,1.9
						c-0.6-0.8-1.3-1.3-2.3-1.7c-1-0.4-1.9-0.6-2.9-0.6c-0.8,0-1.7,0.2-2.5,0.5c-0.8,0.3-1.5,0.8-2.1,1.5c-0.5,0.7-0.8,1.7-0.8,2.8
						c0,1.7,0.6,3,1.8,4c1.2,1,2.9,1.5,5,1.5c0.5,0,1,0,1.5,0c0.5,0,1-0.1,1.4-0.1c0.4,0,0.7-0.1,0.8-0.1V56c0,1.2-0.3,2-1,2.5
						c-0.7,0.5-1.6,0.8-2.8,0.8c-1.2,0-2.1-0.2-2.8-0.5c-0.7-0.3-1.3-0.6-1.7-1l-1.4,2c0.6,0.4,1.3,0.9,2.3,1.3c1,0.4,2.3,0.6,4,0.6
						c2,0,3.5-0.5,4.7-1.4c1.2-1,1.7-2.3,1.7-4.1v-9v-0.6c0-0.2,0-0.5,0-0.8L-33.1,45.8z"/>
				</g>
				<path id="path56" class="st1" d="M149.1,131.9h3v-22.2h-3V131.9z"/>
				<g id="g58" transform="translate(189.1934,64.5908)">
					<path id="path60" class="st1" d="M-33.2,51.3v9.3h3v-9.1c0-1.4,0.3-2.5,0.9-3.2s1.5-1,2.6-1c1.2,0,2.1,0.3,2.7,0.9
						c0.6,0.6,1.1,1.4,1.4,2.3c0.3,0.9,0.4,1.9,0.4,2.9v7.2h3V46.7v-0.6c0-0.3,0-0.6,0-0.9H-22l-0.1,2.3c-0.2-0.4-0.6-0.7-1-1.1
						c-0.4-0.4-1-0.8-1.7-1c-0.7-0.3-1.5-0.4-2.4-0.4c-2,0-3.5,0.6-4.5,1.8C-32.7,47.8-33.2,49.3-33.2,51.3"/>
				</g>
				<g id="g62" transform="translate(218.2969,64.7236)">
					<path id="path64" class="st1" d="M-33.2,51.3v6.4c-0.2,0.1-0.5,0.2-1,0.3c-0.5,0.1-1.2,0.2-2.1,0.2c-1.1,0-2.1-0.2-3-0.7
						c-0.8-0.5-1.5-1.1-2-2c-0.5-0.8-0.7-1.8-0.7-2.9c0-0.9,0.1-1.8,0.4-2.6c0.3-0.8,0.8-1.4,1.4-1.9c0.7-0.5,1.5-0.7,2.6-0.7
						c1,0,1.8,0.2,2.5,0.6c0.6,0.4,1.1,0.9,1.4,1.4C-33.3,50.1-33.2,50.7-33.2,51.3 M-43.6,39.6l1.4,2.2c0.5-0.4,1.1-0.7,1.9-0.9
						c0.7-0.3,1.6-0.4,2.7-0.4c1.5,0,2.6,0.4,3.3,1.2c0.7,0.8,1.1,1.9,1.1,3.2v1.9c-0.2-0.2-0.5-0.4-0.9-0.7
						c-0.4-0.3-0.9-0.6-1.5-0.9c-0.6-0.3-1.4-0.4-2.3-0.4c-1.5,0-2.8,0.3-3.8,1c-1.1,0.7-1.9,1.6-2.4,2.7c-0.5,1.2-0.8,2.5-0.8,3.9
						c0,1.6,0.4,3,1.1,4.3c0.7,1.3,1.8,2.2,3.1,2.9c1.3,0.7,2.8,1.1,4.6,1.1c1.2,0,2.4-0.1,3.5-0.3c1.1-0.2,2-0.5,2.6-0.7V45
						c0-2.2-0.7-4-2-5.2c-1.3-1.2-3.1-1.9-5.5-1.9c-1.6,0-2.8,0.2-3.8,0.5C-42.3,38.8-43.1,39.2-43.6,39.6"/>
				</g>
				<g id="g66" transform="translate(225.1973,64.5908)">
					<path id="path68" class="st1" d="M-33.2,51.3v9.3h3v-9.1c0-1.4,0.3-2.5,0.9-3.2c0.6-0.7,1.5-1,2.6-1c1.2,0,2.1,0.3,2.7,0.9
						c0.6,0.6,1.1,1.4,1.4,2.3c0.3,0.9,0.4,1.9,0.4,2.9v7.2h3V46.7v-0.6c0-0.3,0-0.6,0-0.9H-22l-0.1,2.3c-0.2-0.4-0.6-0.7-1-1.1
						c-0.4-0.4-1-0.8-1.7-1c-0.7-0.3-1.5-0.4-2.4-0.4c-2,0-3.5,0.6-4.5,1.8C-32.7,47.8-33.2,49.3-33.2,51.3"/>
				</g>
				<g id="g70" transform="translate(245.4766,67.4873)">
					<path id="path72" class="st1" d="M-33.2,51.3h9.1c-0.1,1.2-0.5,2.2-1.3,3.1c-0.8,0.8-1.8,1.3-3.2,1.3c-1,0-1.8-0.2-2.5-0.6
						c-0.7-0.4-1.2-1-1.6-1.6C-32.9,52.8-33.1,52.1-33.2,51.3 M-23.1,46.3l1.7-1.8c-0.2-0.3-0.6-0.6-1.2-1c-0.6-0.4-1.3-0.8-2.2-1.2
						c-0.9-0.3-2-0.5-3.3-0.5c-1.6,0-3,0.4-4.2,1c-1.2,0.7-2.2,1.7-2.8,2.9c-0.7,1.3-1,2.7-1,4.3c0,1.5,0.3,2.9,1,4.1
						c0.7,1.2,1.6,2.2,2.7,2.9c1.2,0.7,2.5,1.1,4,1.1c1.8,0,3.3-0.4,4.4-1.3c1.1-0.9,1.9-2,2.4-3.4c0.5-1.4,0.8-2.9,0.8-4.4h-12.2
						c0-0.9,0.3-1.7,0.7-2.4c0.5-0.7,1.1-1.3,1.8-1.7c0.8-0.4,1.6-0.6,2.5-0.6c1.3,0,2.4,0.2,3.2,0.7C-24,45.5-23.4,45.9-23.1,46.3"
						/>
				</g>
				<path id="path74" class="st1" d="M227.7,131.9h3v-22.2h-3V131.9z"/>
				<g id="g76" transform="translate(285.1191,64.9229)">
					<path id="path78" class="st1" d="M-33.2,51.3v5.5c-0.4,0.3-0.9,0.6-1.5,0.8c-0.6,0.2-1.4,0.3-2.3,0.3c-1.4,0-2.6-0.5-3.6-1.5
						c-1-1-1.4-2.4-1.4-4.2c0-1,0.2-1.9,0.5-2.7c0.3-0.8,0.8-1.5,1.5-2c0.7-0.5,1.5-0.7,2.5-0.7c1,0,1.9,0.2,2.5,0.7
						c0.6,0.5,1.1,1.1,1.4,1.7C-33.3,50.1-33.2,50.7-33.2,51.3 M-33.1,44.8l-0.1,2c-0.2-0.2-0.4-0.5-0.8-0.9c-0.4-0.4-1-0.8-1.6-1.1
						c-0.7-0.3-1.5-0.5-2.5-0.5c-1.3,0-2.5,0.3-3.5,1c-1,0.7-1.9,1.6-2.5,2.8c-0.6,1.2-0.9,2.6-0.9,4.2c0,1.5,0.2,2.7,0.7,3.8
						c0.5,1.1,1.1,1.9,1.9,2.6c0.8,0.7,1.7,1.2,2.6,1.5c0.9,0.3,1.8,0.5,2.6,0.5c0.8,0,1.6-0.1,2.2-0.3c0.6-0.2,1.2-0.4,1.8-0.7V67
						h3V46.4v-0.6c0-0.3,0-0.6,0-0.9H-33.1z"/>
				</g>
				<g id="g80" transform="translate(294.4102,67.4873)">
					<path id="path82" class="st1" d="M-33.2,51.3h9.1c-0.1,1.2-0.5,2.2-1.3,3.1c-0.8,0.8-1.8,1.3-3.2,1.3c-1,0-1.8-0.2-2.5-0.6
						c-0.7-0.4-1.2-1-1.6-1.6C-32.9,52.8-33.1,52.1-33.2,51.3 M-23.1,46.3l1.7-1.8c-0.2-0.3-0.6-0.6-1.2-1c-0.6-0.4-1.3-0.8-2.2-1.2
						c-0.9-0.3-2-0.5-3.3-0.5c-1.6,0-3,0.4-4.2,1c-1.2,0.7-2.2,1.7-2.8,2.9c-0.7,1.3-1,2.7-1,4.3c0,1.5,0.3,2.9,1,4.1
						c0.7,1.2,1.6,2.2,2.7,2.9c1.2,0.7,2.5,1.1,4,1.1c1.8,0,3.3-0.4,4.4-1.3c1.1-0.9,1.9-2,2.4-3.4c0.5-1.4,0.8-2.9,0.8-4.4h-12.2
						c0-0.9,0.3-1.7,0.7-2.4c0.5-0.7,1.1-1.3,1.8-1.7c0.8-0.4,1.6-0.6,2.5-0.6c1.3,0,2.4,0.2,3.2,0.7C-24,45.5-23.4,45.9-23.1,46.3"
						/>
				</g>
				<g id="g84" transform="translate(327.6104,62.459)">
					<path id="path86" class="st1" d="M-33.2,51.3l1.8-1.9c-0.7-0.8-1.5-1.4-2.6-1.9c-1-0.5-2.2-0.7-3.5-0.7c-1.7,0-3.1,0.4-4.3,1.1
						c-1.2,0.7-2.1,1.7-2.8,2.9c-0.7,1.2-1,2.6-1,4.2c0,1.5,0.3,2.9,1,4.1c0.7,1.2,1.6,2.2,2.9,3c1.2,0.7,2.6,1.1,4.2,1.1
						c1.3,0,2.5-0.2,3.5-0.7c1-0.5,1.9-1.1,2.6-1.9l-2-1.9c-0.5,0.6-1,1-1.7,1.4s-1.5,0.5-2.4,0.5c-1.1,0-2-0.3-2.7-0.8
						c-0.8-0.5-1.3-1.2-1.7-2c-0.4-0.8-0.6-1.8-0.6-2.8c0-1,0.2-1.9,0.6-2.7c0.4-0.9,1-1.5,1.7-2.1c0.8-0.5,1.7-0.8,2.7-0.8
						c0.9,0,1.7,0.2,2.4,0.5C-34.2,50.3-33.7,50.8-33.2,51.3"/>
				</g>
				<g id="g88" transform="translate(342.0557,63.958)">
					<path id="path90" class="st1" d="M-33.2,51.3v1.8c-0.1,0-0.4,0.1-0.8,0.1c-0.4,0-0.8,0.1-1.3,0.1c-0.5,0-1,0.1-1.4,0.1
						c-1.1,0-2-0.2-2.5-0.5c-0.6-0.3-1-0.7-1.2-1.2c-0.2-0.5-0.3-1-0.3-1.4c0-0.8,0.3-1.5,0.9-1.9c0.6-0.4,1.4-0.7,2.4-0.7
						c0.8,0,1.5,0.2,2.1,0.5c0.7,0.3,1.2,0.8,1.6,1.3C-33.4,50.1-33.2,50.7-33.2,51.3 M-33.1,45.8l-0.1,1.9
						c-0.6-0.8-1.3-1.3-2.3-1.7c-1-0.4-1.9-0.6-2.9-0.6c-0.8,0-1.7,0.2-2.5,0.5c-0.8,0.3-1.5,0.8-2.1,1.5c-0.5,0.7-0.8,1.7-0.8,2.8
						c0,1.7,0.6,3,1.8,4c1.2,1,2.9,1.5,5,1.5c0.5,0,1,0,1.5,0c0.5,0,1-0.1,1.4-0.1c0.4,0,0.7-0.1,0.8-0.1V56c0,1.2-0.4,2-1,2.5
						c-0.7,0.5-1.6,0.8-2.8,0.8c-1.2,0-2.1-0.2-2.8-0.5s-1.3-0.6-1.7-1l-1.4,2c0.6,0.4,1.3,0.9,2.3,1.3c1,0.4,2.3,0.6,4,0.6
						c2,0,3.5-0.5,4.7-1.4s1.7-2.3,1.7-4.1v-9v-0.6c0-0.2,0-0.5,0-0.8L-33.1,45.8z"/>
				</g>
				<g id="g92" transform="translate(351.8623,58.3965)">
					<path id="path94" class="st1" d="M-33.2,51.3h-3v14v0.5c0,0.2,0,0.5,0,1h2.9l0.1-2.5c0.2,0.4,0.6,0.7,1,1.2
						c0.4,0.4,1,0.8,1.6,1.1c0.7,0.3,1.5,0.5,2.4,0.5c0.3,0,0.6,0,0.9-0.1c0.3,0,0.5-0.1,0.8-0.2l-0.7-2.8c-0.4,0.2-0.9,0.2-1.5,0.2
						c-0.8,0-1.6-0.2-2.3-0.7c-0.7-0.4-1.2-1-1.6-1.7c-0.4-0.7-0.6-1.5-0.6-2.4V51.3z"/>
				</g>
				<g id="g96" transform="translate(363.9062,58.3965)">
					<path id="path98" class="st1" d="M-33.2,51.3h-3v14v0.5c0,0.2,0,0.5,0,1h2.9l0.1-2.5c0.2,0.4,0.6,0.7,1,1.2
						c0.4,0.4,1,0.8,1.6,1.1c0.7,0.3,1.5,0.5,2.4,0.5c0.3,0,0.6,0,0.9-0.1c0.3,0,0.5-0.1,0.8-0.2l-0.7-2.8c-0.4,0.2-0.9,0.2-1.5,0.2
						c-0.8,0-1.6-0.2-2.3-0.7c-0.7-0.4-1.2-1-1.6-1.7c-0.4-0.7-0.6-1.5-0.6-2.4V51.3z"/>
				</g>
				<g id="g100" transform="translate(379.8799,60.5283)">
					<path id="path102" class="st1" d="M-33.2,51.3c1.1,0,2,0.3,2.8,0.8s1.4,1.2,1.8,2.1C-28.2,55.1-28,56-28,57
						c0,0.9-0.2,1.8-0.6,2.7c-0.4,0.9-1,1.6-1.8,2.1c-0.8,0.5-1.7,0.8-2.8,0.8c-1.1,0-2-0.3-2.8-0.8c-0.8-0.5-1.4-1.2-1.8-2.1
						c-0.4-0.9-0.6-1.8-0.6-2.7c0-0.9,0.2-1.8,0.6-2.7c0.4-0.9,1-1.6,1.8-2.1C-35.2,51.6-34.3,51.3-33.2,51.3 M-33.2,48.7
						c-1.6,0-3,0.4-4.2,1.1c-1.2,0.7-2.2,1.7-2.9,3c-0.7,1.3-1,2.6-1,4.1c0,1.5,0.3,2.9,1,4.1c0.7,1.2,1.7,2.2,2.9,3
						c1.2,0.7,2.7,1.1,4.2,1.1s3-0.4,4.2-1.1c1.2-0.7,2.2-1.7,2.9-3c0.7-1.2,1.1-2.6,1.1-4.1c0-1.5-0.4-2.9-1.1-4.1
						c-0.7-1.3-1.7-2.3-2.9-3C-30.2,49.1-31.6,48.7-33.2,48.7"/>
				</g>
				<g id="g104" transform="translate(389.9736,60.2939)">
					<path id="path106" class="st1" d="M-33.2,51.3l1.8,2c0.6-0.6,1.2-1,2-1.3c0.8-0.3,1.7-0.5,2.7-0.5c1,0,1.8,0.2,2.5,0.5
						s1,0.8,1,1.5c0,0.5-0.1,0.9-0.4,1.2c-0.3,0.3-0.7,0.5-1.4,0.8c-0.6,0.2-1.5,0.5-2.7,0.7c-0.8,0.2-1.6,0.5-2.3,0.8
						c-0.8,0.3-1.4,0.8-1.9,1.4c-0.5,0.6-0.7,1.4-0.7,2.4c0,1,0.3,1.8,0.9,2.5c0.6,0.7,1.3,1.2,2.3,1.5c0.9,0.3,1.9,0.5,2.9,0.5
						c1.3,0,2.4-0.2,3.4-0.5c1-0.3,1.8-0.8,2.5-1.4l-1.6-2.1c-0.5,0.4-1,0.8-1.7,1.1c-0.7,0.3-1.5,0.4-2.4,0.4c-1,0-1.7-0.2-2.3-0.5
						c-0.6-0.3-0.9-0.8-0.9-1.5c0-0.7,0.4-1.2,1.2-1.5c0.8-0.3,1.8-0.6,3-0.9c1-0.2,1.9-0.5,2.6-0.9c0.8-0.4,1.4-0.9,1.9-1.5
						c0.5-0.6,0.7-1.4,0.7-2.4c0-1-0.3-1.9-0.9-2.6c-0.6-0.7-1.4-1.2-2.4-1.6c-1-0.4-2-0.5-3.2-0.5C-29.5,49-31.7,49.8-33.2,51.3"/>
				</g>
			</g>
		</g>
	</g>
</g>
</svg>
