<?xml version="1.0" encoding="utf-8"?>
<!-- Generator: Adobe Illustrator 27.9.0, SVG Export Plug-In . SVG Version: 6.00 Build 0)  -->
<svg version="1.1" id="svg22" xmlns:svg="http://www.w3.org/2000/svg"
	 xmlns="http://www.w3.org/2000/svg" xmlns:xlink="http://www.w3.org/1999/xlink" x="0px" y="0px" viewBox="0 0 1140 260"
	 style="enable-background:new 0 0 1140 260;" xml:space="preserve">
<style type="text/css">
	.st0{fill:#FFFFFF;}
</style>
<g id="g20" transform="translate(0.000000,260.000000) scale(0.100000,-0.100000)">
	<path id="path2" class="st0" d="M1085,2579c-194-28-429-132-592-261C-6,1923-139,1189,187,632C373,314,698,89,1064,25
		c128-22,369-20,493,4c375,73,671,296,852,642c66,125,124,301,133,399c2,30,0,35-17,32c-32-6-41-21-78-134c-44-132-88-220-162-323
		c-181-254-444-425-742-481c-135-25-385-15-513,21C648,291,344,583,227,955c-40,128-50,216-44,387c7,221,56,383,169,566
		c63,101,232,279,327,342c396,264,889,269,1284,11c146-96,305-270,387-425c17-32,29-61,27-62c-3-4-537-199-830-305l-108-39l-9,23
		c-5,12-23,180-40,372c-17,193-33,358-36,368c-3,9-14,17-24,17c-21,0-22-5-45-260c-38-407-48-505-54-512c-4-4-159,35-346,87
		c-298,83-342,93-355,80c-9-9-11-18-5-24c6-5,133-71,283-146c149-75,272-141,272-146s-124-71-275-146c-194-97-275-143-275-154
		c0-9,6-19,13-22c6-2,156,35,332,84s330,89,341,89c19,0,22-7,28-77c7-85,28-302,51-536c8-81,15-150,15-153s10-4,22-2
		c22,3,23,10,60,383c20,209,37,381,37,383c4,12,33,5,528-134c89-25,167-43,173-39c29,18-14,47-265,175c-148,76-270,144-270,150
		s192,105,427,219s434,213,441,220c13,10,13,18,2,54c-25,85-77,193-130,272c-179,270-466,457-795,519C1450,2592,1189,2594,1085,2579
		z"/>
	<path id="path4" class="st0" d="M9060,2026c-38-62-162-169-242-208c-63-31-162-61-275-84c-13-2-23-11-23-19c0-12,16-15,79-15
		c44,0,82-4,85-9s-3-35-13-67c-10-33-30-102-46-154c-15-52-31-108-36-125c-96-312-103-422-31-498c50-54,98-71,193-72
		c79,0,91,3,160,37c100,50,249,195,249,242c0,14-10,11-49-18c-108-80-197-98-245-50c-44,45-40,68,74,449c23,77,48,164,56,194
		c8,29,17,58,20,62c3,5,70,9,148,9c141,0,144,0,150,23c15,58,18,57-134,57c-77,0-140,3-140,8c0,4,18,63,40,132s40,128,40,133
		c0,4-9,7-19,7C9090,2060,9073,2045,9060,2026z"/>
	<path id="path6" class="st0" d="M3654,1800c-122-18-274-91-362-174c-91-85-163-224-182-349c-37-249,89-444,317-492
		c232-49,455,46,604,258c27,39,49,74,49,79c0,18-24,6-73-37c-29-25-85-62-125-82c-64-32-85-37-163-41c-80-4-94-2-141,22
		c-91,45-131,126-132,261c0,193,114,424,238,485c23,11,54,20,68,20c30,0,73-32,92-68c23-44,25-226,4-255c-8-10-77-35-173-63
		c-258-74-244-83,131-84c160,0,292,4,307,9c21,8,28,20,37,68c16,75,7,189-18,246C4064,1756,3877,1833,3654,1800z"/>
	<path id="path8" class="st0" d="M6087,1800c-108-28-197-102-336-283c-45-59-87-105-92-101c-11,7-19-7,113,191
		c59,90,108,165,108,168s-76,5-169,5c-153,0-170-2-175-17c-12-43-236-950-236-956c0-4,70-7,155-7h154l10,38c6,20,35,136,65,258
		c61,245,80,300,131,379c63,99,164,147,232,111c36-18,43-33,43-89c0-50-37-133-91-204c-39-53-38-74,3-52c121,64,288,211,329,290
		c34,66,33,154-3,201c-15,19-42,42-61,51C6224,1804,6136,1812,6087,1800z"/>
	<path id="path10" class="st0" d="M6900,1803c-77-9-165-35-238-70c-107-52-225-169-275-273c-102-210-83-434,47-564
		c186-186,577-157,798,59c104,101,169,239,183,390c8,85-13,198-49,259c-60,103-173,175-303,195C6992,1810,6967,1810,6900,1803z
		 M7043,1726c57-35,77-133,58-281c-17-127-75-343-114-428c-60-130-153-200-241-183c-113,23-141,143-91,390c65,322,139,469,256,513
		C6947,1750,7012,1745,7043,1726z"/>
	<path id="path12" class="st0" d="M7922,1800c-224-31-351-143-354-312c-1-46,5-74,20-104c40-79,99-118,381-252c30-14,71-42,93-62
		c33-33,38-42,38-83c0-39-6-53-35-85c-41-46-90-63-184-63c-82,0-127,17-165,62c-25,29-28,39-24,89c3,39,12,67,31,95
		c15,22,27,43,27,47c0,5-65,8-145,8h-144l-12-42c-35-133,53-254,221-305c78-24,301-23,390,1c194,53,310,172,310,318
		c0,134-77,200-390,335c-133,58-173,154-99,238c35,40,81,57,149,57c119-1,196-92,169-197c-6-22-13-50-16-63l-5-23l133,3l134,3l3,42
		c8,113-108,240-255,278C8122,1804,7998,1810,7922,1800z"/>
	<path id="path14" class="st0" d="M9775,1799c-224-29-363-132-381-282l-7-57h162h161v73c1,137,52,199,172,205c80,5,118-8,154-52
		c25-29,26-35,21-111c-4-62-27-163-42-182c-1-2-95-17-210-33c-246-36-281-44-360-81c-152-71-225-192-195-324c21-94,84-153,187-176
		c71-16,177-2,253,34c74,35,185,130,239,206c25,33,50,61,58,61c7,0,13-3,13-6s-34-62-75-131c-41-68-75-128-75-134c0-5,67-9,163-9
		h162l58,228c89,345,99,391,99,467C10335,1722,10115,1842,9775,1799z M9986,1288c-10-51-82-194-122-243c-111-137-328-100-300,50
		c10,50,67,109,140,145c62,30,221,78,265,79C9990,1320,9992,1317,9986,1288z"/>
	<path id="path16" class="st0" d="M11092,1790c-29-10-68-28-87-40c-44-27-154-146-230-248c-33-45-66-81-74-82c-20,0-12,15,99,180
		c56,83,104,158,107,166c4,12-21,14-164,14h-168l-119-477c-66-263-121-484-124-491c-3-10,29-12,154-10l159,3l66,265
		c74,294,105,375,174,449c76,81,173,103,221,50c41-46,10-168-69-272c-66-86-46-89,71-11c113,76,222,180,255,246
		C11454,1712,11296,1864,11092,1790z"/>
	<path id="path18" class="st0" d="M4288,1428c-103-418-102-414-88-484c27-131,154-194,326-165c132,23,257,108,364,246
		c40,52,60,67,60,45c0-5-34-65-75-132s-75-126-75-130s74-8,163-8h164l118,478c65,262,120,483,123,490c3,10-29,12-154,10l-158-3
		l-8-30c-5-16-35-142-68-279c-67-276-95-347-167-424c-58-62-120-91-190-92c-41,0-58,5-80,24c-25,21-28,31-26,78c0,29,37,198,82,375
		c45,178,81,329,81,338c0,13-23,15-153,15h-152L4288,1428z"/>
</g>
</svg>
