<?xml version="1.0" encoding="utf-8"?>
<!-- Generator: Adobe Illustrator 27.9.0, SVG Export Plug-In . SVG Version: 6.00 Build 0)  -->
<svg version="1.1"
	 id="svg4" xmlns:svg="http://www.w3.org/2000/svg" xmlns:sodipodi="http://sodipodi.sourceforge.net/DTD/sodipodi-0.dtd" xmlns:inkscape="http://www.inkscape.org/namespaces/inkscape" sodipodi:docname="aguia-branca-seeklogo.cdr"
	 xmlns="http://www.w3.org/2000/svg" xmlns:xlink="http://www.w3.org/1999/xlink" x="0px" y="0px" viewBox="0 0 549.7 51.3"
	 style="enable-background:new 0 0 549.7 51.3;" xml:space="preserve">
<style type="text/css">
	.st0{fill-rule:evenodd;clip-rule:evenodd;fill:#FFFFFF;}
</style>
<sodipodi:namedview  bordercolor="#000000" borderopacity="0.25" id="namedview4" inkscape:deskcolor="#d1d1d1" inkscape:document-units="pt" inkscape:pagecheckerboard="0" inkscape:pageopacity="0.0" inkscape:showpageshadow="2" pagecolor="#ffffff">
	</sodipodi:namedview>
<path id="path4" class="st0" d="M0,50.9L32.2,1.3l15.2,0l0,49.6l-13,0l0.1-8.3l-13.7,0L16,50.9L0,50.9z M421.1,35.5h62.7
	C479,42.1,471.3,51,461.6,51h-41v-0.1l-12.5,0l0.1-8.3l-13.6,0c-5.3,6.9-12.4,9.4-21,9.4c-15,0-26.5-10.3-26.5-25.9
	c0-15.2,10.5-25.9,26.5-25.9c9,0,16.7,3.1,21.8,10.7l-7.8,12.1c-3.3-6.2-6.3-10.7-14-10.8c-17-0.1-18.5,28,0,28
	c3.9,0,7.6-1.5,9.6-4.1h0l22.6-34.8l14.9,0v0h128.9c-4.8,6.6-11.1,15.5-20.8,15.5H421.1l0,1.6h95.7c-4.8,6.6-12.5,15.5-22.2,15.5
	h-73.4L421.1,35.5z M74.7,32.6V22.3h26.5C102.5,39.7,93.8,52,75.6,52c-15,0-26.5-10.3-26.5-25.9C49.1,11,59.6,0,75.6,0
	c13,0,22.5,8.4,24.8,17.4l-14.5,0c-2.4-3.5-5.2-5.1-10.3-5.2c-17-0.1-18.5,28,0,28c5.4,0,10.4-2.9,11.2-7.6L74.7,32.6z M332.5,1.3
	h12.9v49.6l-13.4,0l-15.7-27.3l0.3,27.3h-12.9V1.3l13.2,0l15.6,26.9L332.5,1.3z M144.4,1.3h12.9v30.5l19.8-30.5l15.2,0l0,49.6l-13,0
	l0.1-8.3l-13.7,0l-4.9,8.3l-3.6,0v0h-12.9L144.4,1.3z M102.9,1.3l12.8,0l0,30.2c0,3.1,1,7.7,6.2,7.7c4.8,0,6.3-3.1,6.3-7.7l0.2-30.2
	l12.8,0c0,5.4,0,13.3,0,20.8c0,6.5-0.2,12.4-1.2,16.7c-2.1,9.6-9.2,12.5-18.2,12.5c-9,0-16-2.8-18.2-12.5
	c-1.2-5.1-0.9-11.3-0.9-16.7L102.9,1.3z M209.8,20.9c3.9,0.1,8.4-0.2,8.2-4.6c-0.2-4.7-4-4.6-8.2-4.5V20.9z M197.4,50.9V1.3h12.4
	c10.2,0,19.3,1.9,19.6,12.4c0.1,5.4-0.7,8.9-5.6,10.5c5,0.8,7.3,7.2,7.3,12.5c0,12.3-9.7,14.2-20.9,14.2H197.4z M209.8,40.1
	c4.3,0,9.4,0,9.4-4.7c0-5.6-4.6-5.4-9.4-5.4V40.1z M233.2,50.9V1.3H246c14.1,0,21.5,4.6,21.9,16.1c0.2,7.4-2.2,13.4-9.6,17.4
	l3.4,4.6l24.8-38.2l15.2,0l0,49.6l-13,0l0.1-8.3l-13.7,0l-4.9,8.3l-10.1,0l-6,0l-8-12.4v12.4L233.2,50.9z M246.1,24.8l2.3,0
	c3.7,0,7.1-1.6,7.1-6.2c0-4.9-2.4-6.9-6.9-6.9h-2.5V24.8z M399.8,33.5l8.4,0l0-14.3L399.8,33.5z M280.4,33.5l8.4,0l0-14.3
	L280.4,33.5z M171.1,33.5l8.4,0l0-14.3L171.1,33.5z M26.1,33.5l8.4,0l0-14.3L26.1,33.5z"/>
</svg>
