<?xml version="1.0" encoding="utf-8"?>
<!-- Generator: Adobe Illustrator 27.9.0, SVG Export Plug-In . SVG Version: 6.00 Build 0)  -->
<svg version="1.1" id="katman_1" xmlns="http://www.w3.org/2000/svg" xmlns:xlink="http://www.w3.org/1999/xlink" x="0px" y="0px"
	 viewBox="0 0 963.9 191.4" style="enable-background:new 0 0 963.9 191.4;" xml:space="preserve">
<style type="text/css">
	.st0{fill:#D81D61;}
	.st1{fill:#FFFFFF;}
</style>
<path class="st0" d="M117.8,95c-7.8-11.9-15.5-23.8-23.2-35.7c0.2-0.2,0.4-0.5,0.6-0.7c4.8-4.6,10.2-8.5,16-11.7
	c6.6-3.6,13.6-6.1,21-7.6c4.2-0.9,8.5-1.4,12.8-1.5c18.7-0.4,35.5,5.1,50.1,16.9C208.3,65.4,216.8,79,221,95.3c1,3.8,1.6,7.6,2,11.5
	c0.4,4.4,0.5,8.7,0.1,13.1c-1.3,15.4-6.6,29.3-16.3,41.4c-10.3,12.9-23.5,21.5-39.3,26c-4,1.1-8,1.8-12,2.3
	c-4.4,0.5-8.8,0.6-13.2,0.3c-12.5-0.9-24.1-4.5-34.8-11.1c-9.8-6.1-17.8-14-24.1-23.7c-15.7-24.2-31.4-48.4-47.1-72.6
	C25.3,65.8,14.4,49,3.5,32.3c-1.9-3-3.2-6.2-3.5-9.7c-0.4-5.4,1-10.3,4.3-14.6C7.6,3.6,11.9,1,17.2,0.4c8.7-1.1,15.8,2,20.6,9.3
	c6.5,9.7,12.7,19.5,19,29.2c15.1,23.3,30.3,46.6,45.4,69.9c5.2,8,10.4,16.1,15.7,24.1c5.4,8.2,12.9,13.5,22.5,15.4
	c11.9,2.4,22.4-0.8,31.2-9.1c5.5-5.1,8.8-11.5,10.1-18.9c3.4-18.5-8.1-36-25.9-40.4c-3.9-1-7.9-1.4-11.8-0.9
	c-10.9,1.2-19.6,6.3-25.9,15.3c-0.1,0.1-0.2,0.3-0.3,0.4C118,94.8,117.9,94.8,117.8,95z"/>
<path class="st0" d="M225.7,57.4c0.1-0.3,0.3-0.5,0.4-0.6c10.2-15.8,20.4-31.5,30.6-47.3c3.5-5.3,8.4-8.5,14.7-9.3
	c8.9-1.2,17.3,3.4,21.1,11.5c3.2,6.9,2.8,13.7-1.3,20.1c-5.2,8.2-10.6,16.4-15.9,24.6c-10.4,16-20.7,32-31.1,48
	c-0.2,0.2-0.3,0.5-0.6,0.9C241.9,87.6,235.9,71.7,225.7,57.4z"/>
<path class="st1" d="M415.6,191.3c-1.4-0.2-2.8-0.4-4.2-0.6c-6.7-0.8-13.1-2.6-19.2-5.6c-4-1.9-7.7-4.2-11.2-6.8
	c-7.3-5.4-12.5-12.5-16.2-20.7c-3-6.6-4.8-13.5-5.6-20.7c-0.6-5-0.8-10.1-0.8-15.2c0-29.2,0-58.4,0-87.6c0-2,0.2-4,0.6-6
	c0.5-2.9,2.1-5.1,4.4-6.9c4-3.1,8.5-3.8,13.4-3.6c3.9,0.1,7.6,1.1,11.2,2.5c0.1,0,0.3,0.1,0.4,0.1c2.2,0.9,2.2,0.9,2.2,3.2
	c0,29.8,0.1,59.7,0.1,89.5c0,4.3-0.1,8.6-0.1,12.9c0,4.5,0.6,8.9,1.6,13.3c1.4,5.7,4.5,10.4,8.6,14.4c0,0,0.1,0.1,0.1,0.1
	c6.8,6.6,15,8.7,24.2,7.8c13.2-1.4,23.5-11,26-24.1c1.5-8,1.2-15.9-2-23.4c-4-9.5-11.4-15.2-21.5-17.4c-5.1-1.1-10.3-0.9-15.4,0.5
	c-3.9,1.1-7.4,2.9-10.5,5.6c-0.3,0.2-0.6,0.5-1.1,0.8c0-0.7-0.1-1.1-0.1-1.6c0-9.4,0-18.7,0-28.1c0-1.2,0.3-1.7,1.4-2.2
	c6.4-2.8,13-4.4,20-4.7c8.4-0.3,16.7,0.6,24.5,3.7c16.3,6.4,27.7,17.8,34,34.1c3.7,9.4,4.9,19.2,4.3,29.3
	c-0.5,7.9-2.3,15.5-5.6,22.7c-5.7,12.3-14.7,21.3-26.6,27.6c-7.4,3.9-15.3,6.1-23.7,6.9c-0.4,0-0.8,0.2-1.3,0.3
	C423.7,191.3,419.6,191.3,415.6,191.3z"/>
<path class="st1" d="M551.3,191.3c-1.4-0.2-2.7-0.4-4.1-0.5c-5.2-0.5-10.2-1.7-15.1-3.4c-16.9-6.1-27.5-17.8-31.5-35.4
	c-1-4.4-1.2-9-1.2-13.5c0-18.4-0.1-36.8,0.1-55.2c0-5.1,2.3-9.4,7.3-11.7c2.8-1.3,5.8-1.9,8.9-1.9c5.3-0.1,10.2,1.1,15,3.4
	c0.2,0.1,0.3,0.2,0.5,0.3c0.1,0,0.1,0.1,0.3,0.3c0,0.5,0,1.2,0,1.8c0,19.4,0,38.8,0,58.1c0,4.4,0.4,8.8,1.7,13
	c0.3,0.8,0.6,1.7,0.9,2.5c2.4,5.9,6.7,9.8,12.9,11.5c6.4,1.8,12.9,1.8,19.3,0.2c7.3-1.8,11.9-6.5,14.3-13.4c1.1-3.2,1.7-6.6,1.8-10
	c0.1-1.6,0.1-3.3,0.1-4.9c0-15.5,0-31.1,0-46.6c0-1.6,0.1-3.3,0.4-4.9c1-5.4,4.3-8.7,9.4-10.3c3-0.9,6-1.1,9.1-0.9
	c4.2,0.2,8.2,1.3,12,2.9c1,0.4,1.4,1,1.4,2.2c0,21.6,0,43.2,0,64.8c0,6.9-1.2,13.5-3.6,20c-4.1,11.1-11.7,19.1-22.1,24.6
	c-6.1,3.2-12.7,5.1-19.5,6.2c-1.9,0.3-3.8,0.4-5.7,0.7c-0.4,0-0.8,0.2-1.1,0.3C559,191.3,555.2,191.3,551.3,191.3z"/>
<path class="st1" d="M963.9,87.5c-0.1,0.4-0.2,0.7-0.3,1.1c-0.3,1.3-0.4,2.6-1,3.8c-1.6,3.6-3.8,6.8-7.1,9.2c-0.5-0.2-1-0.4-1.6-0.6
	c-4.8-2.2-9.8-3.8-15.1-4.5c-4.3-0.5-8.6-0.6-12.8,0.2c-8.1,1.6-12.9,6.5-14.8,14.5c-0.8,3.3-0.9,6.6-0.9,10c0,21.7,0,43.9,0,65.6
	c0,0.6,0,1.3,0,1.9c-1.2,0.3-29.5,0.4-32.1,0.1c0-0.4-0.1-0.8-0.1-1.2c0-25,0-50.5,0-75.5c0-7.5,1.4-14.8,4.8-21.6
	c5-9.8,12.8-16.3,23.1-20c7.4-2.7,15.2-3.7,23.1-3.7c6.3,0,12.5,0.5,18.6,2.2c3.1,0.9,6.2,2,8.9,3.8c3.4,2.1,5.7,5.1,6.7,9
	c0.2,0.9,0.3,1.7,0.5,2.6C963.9,85.3,963.9,86.4,963.9,87.5z"/>
<path class="st1" d="M786.2,144.6c0.2,0.7,0.4,1.2,0.6,1.7c3,6.5,8,10.9,14.5,13.6c3.9,1.6,8,2.3,12.2,2.6c7.7,0.6,15.2,0,22.7-2.3
	c3.4-1,6.5-2.6,9.6-4.2c1.6-0.8,3.2-1.5,4.9-2.4c4.2,7.9,8.2,15.7,12.4,23.6c-0.3,0.2-0.5,0.5-0.7,0.6c-5.1,3.4-10.3,6.4-16.2,8.2
	c-6.5,2-13.1,3.6-19.9,4.4c-6,0.6-11.9,0.9-17.8,0.5c-11-0.8-21.5-3.5-30.8-9.6c-12.1-7.8-20.1-18.8-23.9-32.6
	c-3.8-13.8-3.6-27.7,1-41.2c5.6-16.6,16.7-28.5,32.7-35.6c7.7-3.5,15.9-5.1,24.4-5.4c8-0.3,16,0.3,23.7,2.7
	c8.3,2.6,15.8,6.7,21.6,13.3c6,6.7,9,14.6,8.9,23.6c-0.1,4.2-0.6,8.3-1.8,12.4c-1.4,4.9-4.2,9-7.9,12.4c-4.3,3.9-9.3,6.4-14.8,8.2
	c-6.1,2-12.3,3.4-18.7,4.2c-9.7,1.3-19.5,1.5-29.4,1.4c-2,0-3.9-0.1-5.9-0.2C787.2,144.6,786.8,144.6,786.2,144.6z M784.2,120.4
	c0.7,0.1,1.1,0.1,1.5,0.2c9.7,0.1,19.4,0.4,29.1-0.8c4.8-0.6,9.5-1.7,13.9-3.9c3.4-1.6,5.5-4.2,5.9-8.1c0.4-4.4-0.6-8.2-4.4-10.7
	c-2.1-1.4-4.5-2.5-7-3.2c-4.9-1.2-9.8-1.5-14.8-0.6c-8.4,1.5-15.1,5.7-19.6,13.1c-2.1,3.5-3.4,7.2-4.1,11.1
	C784.5,118.5,784.4,119.4,784.2,120.4z"/>
<path class="st1" d="M723.3,104.5c-1.5-1.2-3-2.5-4.5-3.5c-4.1-2.8-8.8-4.4-13.6-5.6c-7-1.8-14.2-2.8-21.5-2.8
	c-4.6,0-9.2,0.2-13.6,1.4c-2.3,0.6-4.5,1.4-6.4,3c-2.3,2-3.1,4.5-2.5,7.4c0.5,2.2,1.9,3.6,3.8,4.6c2.8,1.4,5.9,2.3,9,2.7
	c5.9,0.9,11.8,1.6,17.7,2.4c7.2,1,14.4,1.7,21.3,3.8c5.3,1.6,10.4,3.7,15.1,6.7c7,4.5,11.3,10.8,12.8,18.9
	c1.3,6.9,0.9,13.8-1.4,20.4c-2.2,6.3-6.1,11.3-11.2,15.5c-6,4.9-12.9,7.7-20.3,9.5c-7.9,1.9-15.9,2.3-23.9,2.2
	c-12.3-0.1-24.3-2.2-36.1-5.8c-5.8-1.8-11.6-4-16.9-7c-1.7-1-3.3-2.2-4.8-3.7c4.2-7.5,8.4-15,12.7-22.6c0.5,0.4,1,0.6,1.4,1
	c2.2,1.8,4.8,3.1,7.5,4.1c7,2.8,14.2,5,21.7,6.2c8.2,1.4,16.5,1.8,24.7,0.7c3.2-0.4,6.4-1.2,9.3-2.7c2-1,3.6-2.3,4.2-4.5
	c0.5-2.1,0.4-4.2-0.5-6.2c-0.5-1.1-1.3-2-2.4-2.7c-2.9-1.8-6.2-2.6-9.5-3.1c-4.7-0.7-9.4-1.2-14.1-1.8c-6.5-0.8-13-1.2-19.5-2.7
	c-6.3-1.4-12.3-3.5-17.8-6.9c-6-3.6-10.2-8.9-12.6-15.4c-3.5-9.6-3.2-19.3,1.1-28.6c3.3-7.4,9.1-12.5,16.2-16.2
	c5.3-2.7,10.9-4.2,16.7-5.3c8.7-1.6,17.4-1.7,26.2-1.3c5.8,0.3,11.5,0.8,17.2,1.9c5.7,1.1,11.2,2.7,16.3,5.5
	c2.3,1.2,4.3,2.7,6.1,4.6c4.2,4.5,5.1,10.6,2.4,16.2c-1.4,2.9-3.4,5.2-5.8,7.2C726.6,103.3,725,104.1,723.3,104.5z"/>
</svg>
