<?xml version="1.0" encoding="utf-8"?>
<!-- Generator: Adobe Illustrator 27.9.0, SVG Export Plug-In . SVG Version: 6.00 Build 0)  -->
<svg version="1.1" id="svg7587" xmlns:svg="http://www.w3.org/2000/svg"
	 xmlns="http://www.w3.org/2000/svg" xmlns:xlink="http://www.w3.org/1999/xlink" x="0px" y="0px" viewBox="0 0 1024 201"
	 style="enable-background:new 0 0 1024 201;" xml:space="preserve">
<style type="text/css">
	.st0{fill:#82C341;}
	.st1{fill:#3CB14A;}
	.st2{fill:#FFFFFF;}
</style>
<path id="path6918" class="st0" d="M1017.2,105.4c-3.6,11.7-15.8,22.7-30.4,25c2.4,3.6,3.4,8.1,2.9,13.1
	c-1.6,13.6-14.6,24.5-28.5,24.6c-9.4,0.1-22.2-4-31.2-18.2c-8.1-12.6-9.2-32.7-8.6-38.8c-9.9,10.1-16,19.9-18.9,26.6
	c-6.6,15.4-9.1,34.1-8.9,42.9c0,0-1.2,1.1-2.4,1.4c-3.6-0.6-6.8-2-9.1-4.1c-2.9-2.6-3.5-5-3.5-5c4.4-21.8,11.3-35.4,21.6-50.9
	c13.9-20.9,35.4-33.9,60.9-41.7c18.4-5.6,37.6-6.9,50.7,4.3C1018.9,90.6,1019.3,99,1017.2,105.4L1017.2,105.4z M908.6,93.8
	c-4.4,7.3-16.3,19-25.7,25.1c-19.6,12.6-33.8,13.4-40.9,8.9c-0.9-0.5-1.6-1.1-2.2-1.8c-5.5-5.8-4.6-16.1,1.9-24.5
	c3.1-4.1,7.2-7.1,11.1-8.4c-3.1-1.4-5.1-4.4-5.6-8.6c-0.9-8.4,5.5-19.5,14.3-24c7.7-3.9,24.4-7.9,36.6,10.4
	C902.9,77.9,907.2,88,908.6,93.8L908.6,93.8z M989.4,17.2c-1.1-10.5-12.3-14.4-24.6-9.1c-5.9,2.5-11,6.7-14.6,11.5
	c0.6-4.8-0.8-9-4.2-11.5c-6.8-4.9-19.1-1.3-27.6,7.9c-2.9,3.2-12.5,14.8-13,31.8c-0.2,8.2,3.4,26.4,15.4,39l0,0
	c32-12.1,49.2-30.6,55.8-38.2c7.6-8.9,10.8-16.6,12.1-22.4C989.7,21.7,989.5,18.5,989.4,17.2z"/>
<path id="path6920" class="st1" d="M988.9,25.3c-1.6,6.4-15,22.8-33.6,36.8C936,76.6,925,83.9,920.8,86.7
	c31.9-12,49.2-30.5,55.7-38.2c7.6-8.9,10.8-16.6,12.1-22.4C988.7,25.9,988.8,25.7,988.9,25.3z M908.6,93.7
	c-8.4,8-20.9,19.9-42.2,29.4c-10.6,4.5-20.9,6.2-24.4,4.6c7.1,4.6,21.2,3.7,40.9-8.9C892.3,112.8,904.3,101,908.6,93.7z M923.4,98.2
	C923.3,98.2,923.3,98.3,923.4,98.2c-0.1,0-0.1,0.1-0.1,0.1c-22.9,16.4-30.7,46-32,83.7c1.1-0.2,2.4-1.4,2.4-1.4
	c-0.1-8.8,2.4-27.4,8.9-42.9c2.9-6.8,9.1-16.6,18.9-26.6C922.1,104.4,922.9,100.5,923.4,98.2C923.4,98.2,923.4,98.3,923.4,98.2
	C923.3,98.3,923.3,98.3,923.4,98.2L923.4,98.2z M1018.2,100.5c-1,6.8-5.6,15-12.9,19.5c-6.4,4-13.9,6.6-22.3,5.9
	c1.4,1.3,2.4,2.4,3.8,4.4c14.6-2.2,26.7-13.2,30.4-24.9C1017.7,103.8,1018.1,102.2,1018.2,100.5z"/>
<path id="path6932" class="st2" d="M393.6,39c-6,0-9.5,3.8-9.5,9.1c0,5.6,3.4,9.3,9.5,9.4c5.9,0,9.4-3.8,9.4-9.4
	C402.9,42.8,399.4,39,393.6,39z M51.8,44.4L5.7,152.2h18.1l11.7-27.4h49.9l11.7,27.4h18.1L69.3,44.4H51.8z M301.9,44.4v107.7h72.9
	v-14.9h-55.2V44.4H301.9z M577.5,56.7l-7.3,12.2c-5.6-1.9-11.4-2.7-16.8-2.7c-10.6,0-21.3,3.8-29.1,10.4
	c-6.2,5.3-13.6,14.7-13.6,29.9c0,26.3,19.8,32.7,38.9,39l10.6,3.4c11.4,3.4,18.2,5.4,18.2,14.4c0,4.1-1.4,7.6-4.3,10.2
	c-4.4,4.2-12.2,6.5-20.8,6c-7.5-0.4-23.4-1.9-25.4-18.3h-16.4c0,20.9,18.6,34.1,41.8,34.1c14.9,0,25.9-4.2,33.2-11.4
	c5.8-5.6,8.9-12.8,8.9-20.9c0.1-11.4-6.1-20.4-17.5-25.2c13.3-6.7,18.1-20.4,18.1-31.3c0-12.2-3.7-21.9-10.9-28.9
	c-0.6-0.6-1.3-1.2-2-1.8l11.4-19.1H577.5z M60.4,66l18.8,44H41.6L60.4,66z M737.1,66.3c-8.2,0-16.1,1.3-22.3,4
	c-9,4-13.9,11.2-14.3,19.6c-0.9,19.5,14,24.1,34,26.9c15.9,2.2,25.1,4.6,24.6,12.6c-0.1,2.4-2.1,5.5-5.1,6.9
	c-10.7,5.4-37.9,2.5-50.7-5.4l-3.5,14.2c7.7,5,19.3,7.9,30.3,8.4c11.9,0.6,24-0.3,32.7-4.4c8.5-4.1,12.9-11.6,13.3-19.7
	c0.9-19.1-17-23.3-33.7-26.2c-19-3.3-25.9-5.2-25.4-13.4c0.2-3.9,3.8-6.4,6.6-7.2c10.4-3.2,32.2-1.1,44.9,5.9L772,74
	C762.1,69.1,749.2,66.3,737.1,66.3z M251,67.4c-11.1,0-20.4,2.1-26.7,6.6c-9.3,6.6-12.9,16.5-12.9,29.4v48.9h16.9v-49.7
	c0-6.1,1.2-10.4,3.4-13.5c3.9-5.6,10.9-7.1,19.9-7.1c4.2,0,9,0.5,13.7,1.4l3.4-14.2C263.3,68.1,257.5,67.4,251,67.4z M457.9,67.4
	c-18.5,0-30.9,2.6-36.7,4.3l-0.6,0.2v80.3h17.1V83.7c5.8-1.4,10.4-1.8,19.4-1.8c13.9,0,23.3,3.5,23.3,20.6v49.7h16.9v-48.9
	C497.2,79.5,484,67.4,457.9,67.4z M156.9,67.5c-26.2,0-40.2,14.1-40.2,41v4.2c0,26.9,15.4,41,44.4,41c11.8,0,23-1.7,32.6-5
	l-3.6-14.1l-0.8,0.3c-5.5,2.1-15.8,4.4-28.2,4.4c-12.1,0-26.6-3.9-26.9-21.9h62.8v-8.8c0-2.2-0.1-4.2-0.2-6.1
	C194.7,79.5,181.1,67.5,156.9,67.5z M385.1,68.9v83.3h16.9V68.9H385.1z M608.3,69v49c0,23.7,13.2,35.8,39.2,35.8
	c17.4,0,28.3-2.1,36.7-4.3l0.7-0.1V69h-17.1v68.6h0.1c-5.5,1.2-10.5,1.6-19.4,1.6c-14.4,0-23.3-3.4-23.3-20.4V69H608.3z M553.5,81.9
	c12.5,0,25.9,7.9,25.9,24.5c0,6.8-1.6,11.8-4.2,16.1c-2.8,4.6-7.7,9.2-13.9,10.6c0,0-11.6-3.3-19.1-5.9
	c-10.1-3.5-14.9-10.1-14.9-20.7C527.5,89.6,541,81.9,553.5,81.9z M156.9,82c10.1,0,22,3.6,22.9,20.4h-45.5
	C134.9,89,142.6,82,156.9,82z"/>
</svg>
