<?xml version="1.0" encoding="utf-8"?>
<!-- Generator: Adobe Illustrator 27.9.0, SVG Export Plug-In . SVG Version: 6.00 Build 0)  -->
<svg version="1.1"
	 id="svg2" xmlns:svg="http://www.w3.org/2000/svg" xmlns:dc="http://purl.org/dc/elements/1.1/" xmlns:inkscape="http://www.inkscape.org/namespaces/inkscape" xmlns:rdf="http://www.w3.org/1999/02/22-rdf-syntax-ns#" xmlns:sodipodi="http://sodipodi.sourceforge.net/DTD/sodipodi-0.dtd" xmlns:cc="http://creativecommons.org/ns#" inkscape:export-ydpi="561.73999" inkscape:version="0.92.4 (5da689c313, 2019-01-14)"
	 xmlns="http://www.w3.org/2000/svg" xmlns:xlink="http://www.w3.org/1999/xlink" x="0px" y="0px" viewBox="0 0 1028.5 160.7"
	 style="enable-background:new 0 0 1028.5 160.7;" xml:space="preserve">
<style type="text/css">
	.st0{fill:url(#path64_00000109718188303144774500000015273096159993192098_);}
	.st1{fill:url(#path84_00000005947189830698465560000000956378694496419496_);}
	.st2{fill:url(#path106_00000108275617839219158540000016327346662696437888_);}
	.st3{fill:url(#path126_00000008842291996787142010000015687938305278533532_);}
	.st4{clip-path:url(#SVGID_00000067950699589633083430000015425939101207425186_);fill:#FFFFFF;}
	.st5{clip-path:url(#SVGID_00000067950699589633083430000015425939101207425186_);fill:#45586A;}
</style>
<sodipodi:namedview  bordercolor="#666666" borderopacity="1" gridtolerance="10" guidetolerance="10" id="namedview4" inkscape:current-layer="g10" inkscape:cx="781.04238" inkscape:cy="68.352818" inkscape:pageopacity="0" inkscape:pageshadow="2" inkscape:window-height="837" inkscape:window-maximized="1" inkscape:window-width="1600" inkscape:window-x="-8" inkscape:window-y="-8" inkscape:zoom="0.4469697" objecttolerance="10" pagecolor="#ffffff" showgrid="false">
	</sodipodi:namedview>
<g id="g44" transform="matrix(3.9861691,0,0,3.9861691,-943.25842,-2644.9511)" inkscape:export-filename="G:\Users\suitedoalex\sites\american-airlines-logo-4.png" inkscape:export-xdpi="37.569691" inkscape:export-ydpi="37.569691">
	<g id="g46">
		<g id="g52">
			<g id="g54">
				
					<linearGradient id="path64_00000037660927583696281360000000631069312797647753_" gradientUnits="userSpaceOnUse" x1="95.6916" y1="712.0471" x2="96.6916" y2="712.0471" gradientTransform="matrix(0 101.4837 101.4837 0 -71781.6719 -9024.7617)">
					<stop  offset="0" style="stop-color:#ED1C24"/>
					<stop  offset="0.7546" style="stop-color:#780E0F"/>
					<stop  offset="1" style="stop-color:#780E0F"/>
				</linearGradient>
				
					<path id="path64" inkscape:connector-curvature="0" style="fill:url(#path64_00000037660927583696281360000000631069312797647753_);" d="
					M468.3,692.8l4.2,6.9c2.2,3.7,5.8,3.6,6.8,3.6l0,0h11.5l-13.6-16.5C470.9,687.1,467.6,691.1,468.3,692.8"/>
			</g>
		</g>
	</g>
</g>
<g id="g66" transform="matrix(3.9861691,0,0,3.9861691,-943.25842,-2644.9511)" inkscape:export-filename="G:\Users\suitedoalex\sites\american-airlines-logo-4.png" inkscape:export-xdpi="37.569691" inkscape:export-ydpi="37.569691">
	<g id="g68">
		<g id="g74">
			<g id="g76">
				
					<linearGradient id="path84_00000183206741994736166500000003279358857698219935_" gradientUnits="userSpaceOnUse" x1="94.7146" y1="714.2075" x2="95.7145" y2="714.2075" gradientTransform="matrix(37.0371 0 0 -37.0371 -3040.0283 27140.6328)">
					<stop  offset="0" style="stop-color:#69231D"/>
					<stop  offset="1" style="stop-color:#D1342A"/>
				</linearGradient>
				
					<path id="path84" inkscape:connector-curvature="0" style="fill:url(#path84_00000183206741994736166500000003279358857698219935_);" d="
					M467.9,690.9c0,1,0.4,1.8,0.4,1.9l0,0c-0.7-1.7,2.6-5.7,8.9-6l0,0l-2.1-2.6C471.3,685,467.9,687.1,467.9,690.9"/>
			</g>
		</g>
	</g>
</g>
<g id="g86" transform="matrix(3.9861691,0,0,3.9861691,-943.25842,-2644.9511)" inkscape:export-filename="G:\Users\suitedoalex\sites\american-airlines-logo-4.png" inkscape:export-xdpi="37.569691" inkscape:export-ydpi="37.569691">
	<g id="g88">
		<g id="g94">
			<g id="g96">
				
					<linearGradient id="path106_00000152265224700739828290000012991884076698374061_" gradientUnits="userSpaceOnUse" x1="95.8759" y1="714.2825" x2="96.8759" y2="714.2825" gradientTransform="matrix(41.2706 -24.7979 -24.7979 -41.2706 14222.7227 32543.4824)">
					<stop  offset="0" style="stop-color:#EFF2F4"/>
					<stop  offset="0.1" style="stop-color:#EFF2F4"/>
					<stop  offset="1" style="stop-color:#96A7B0"/>
				</linearGradient>
				
					<path id="path106" inkscape:connector-curvature="0" style="fill:url(#path106_00000152265224700739828290000012991884076698374061_);" d="
					M463.5,683.7c0,0.8,0.3,1.5,1,2.8l0,0l3.8,6.3c0,0-0.4-0.9-0.4-1.9l0,0c0-3.8,3.3-5.9,7.1-6.7l0,0c1.1-0.2,2.2-0.3,3.3-0.3l0,0
					c0.9,0,1.8,0,2.5,0.3l0,0c-0.4-1.4-1.4-3.6-7.3-3.6l0,0C467.8,680.5,463.5,681.5,463.5,683.7"/>
			</g>
		</g>
	</g>
</g>
<g id="g108" transform="matrix(3.9861691,0,0,3.9861691,-943.25842,-2644.9511)" inkscape:export-filename="G:\Users\suitedoalex\sites\american-airlines-logo-4.png" inkscape:export-xdpi="37.569691" inkscape:export-ydpi="37.569691">
	<g id="g110">
		<g id="g116">
			<g id="g118">
				
					<linearGradient id="path126_00000144303480420156669560000015015423129292357248_" gradientUnits="userSpaceOnUse" x1="97.1133" y1="713.4387" x2="98.1133" y2="713.4387" gradientTransform="matrix(0 -70.112 -70.112 0 50481.8398 7490.7119)">
					<stop  offset="0" style="stop-color:#1C2F72"/>
					<stop  offset="1" style="stop-color:#00AFEB"/>
				</linearGradient>
				
					<path id="path126" inkscape:connector-curvature="0" style="fill:url(#path126_00000144303480420156669560000015015423129292357248_);" d="
					M450.8,664.1l7.6,12.5c1.6,2.6,2.2,3.2,5.9,3.2l0,0h7.2l-9.9-12.5c-2.2-2.7-3.4-3.2-5.4-3.2l0,0H450.8z"/>
			</g>
		</g>
	</g>
</g>
<g>
	<defs>
		<rect id="SVGID_1_" x="-153" y="-75.8" width="1322.5" height="312.7"/>
	</defs>
	<clipPath id="SVGID_00000073720388686750297080000000248176881498749832_">
		<use xlink:href="#SVGID_1_"  style="overflow:visible;"/>
	</clipPath>
	
		<path id="path138" inkscape:connector-curvature="0" style="clip-path:url(#SVGID_00000073720388686750297080000000248176881498749832_);fill:#FFFFFF;" d="
		M514.4,65h-0.2l-12.4,34.9h25L514.4,65z M536.5,127.4l-6-17.2h-32.3l-6.1,17.2h-13.8l29-76.3h15.4l28.5,76.3H536.5z M653.6,48h13.5
		v12.8h-13.5V48z M653.8,69.3H667v58.1h-13.2V69.3z M556.3,48h13.5v12.8h-13.5V48z M556.5,69.3h13.2v58.1h-13.2V69.3z M639.4,48.1
		h-13.2v79.3h13.2V48.1z M597.3,99.1v28.4h-13.2V84.2c0-4.2-0.5-12.1-0.6-14.9h10.7c1.2,0,1.5,0.5,1.5,1.6c0,1.7,0.1,7.2,0.1,7.2
		h0.3c1-2.5,4.8-10,15.8-10c3.7,0,6.4,1.2,6.8,1.4c0,2.5-0.3,8-0.4,9.4c-0.1,1-0.5,1.3-1,1.3c-0.5,0-0.7-0.1-0.9-0.2
		c-0.8-0.3-2.7-0.9-5.4-0.9C603.9,79,597.3,84.1,597.3,99.1 M717.5,127.4V89.9c0-7.2-3.3-11.5-9.4-11.5c-8.1,0-13.5,8.6-13.5,20.3
		v28.8h-13.2V84.7c0-4.7-0.4-11.5-0.6-15.4h10.6c1.2,0,1.5,0.5,1.6,1.6c0,1.2,0.1,7.3,0.1,7.3h0.3c1.6-2.7,5.7-10.1,17.8-10.1
		c12.5,0,19.6,8.6,19.6,18.2v41.2H717.5z M754,92.4h24.4c0.5-9.4-4.4-14.6-11.8-14.6C758.8,77.8,754.3,83.4,754,92.4 M786.5,114.7
		c0.7,0,1,0.6,1,1.3c0.2,2.5,0.4,8.1,0.4,9.5c-1.4,0.5-8.5,3.1-18,3.1c-18.5,0-29.6-9.6-29.6-30.2c0-17.7,9.5-30.3,26.6-30.3
		c16.8,0,24.7,11.2,24.7,25.1c0,1.6-0.2,4.4-0.5,8.1h-37.3c0,9.9,6.3,17.1,18,17.1c6.4,0,11.6-2.3,13.6-3.3
		C785.8,114.8,786.1,114.7,786.5,114.7 M817.5,128.5c17.2,0,25.4-7,25.4-17.5c0-10.3-7.3-14.6-15-17.2c-2.2-0.7-4.4-1.4-6.4-2.1
		c-5.3-1.8-8-4.1-8-7.5c0-3.6,3.3-6.2,10.2-6.2c6.1,0,11.1,2.5,13.1,3.4c0.3,0.1,0.6,0.4,1.1,0.4c0.4,0,0.9-0.3,1-1.3
		c0.1-1.9,0.4-5.5,0.4-8.9c-1.6-0.7-7.4-3.7-16.7-3.7c-14.2,0-22.9,7.4-22.9,17.1c0,9.4,6.5,13.8,13.6,16.1c1.6,0.6,4.7,1.6,6.4,2.1
		c7.4,2.5,9.5,4.7,9.5,8.2c0,4.5-4.8,6.8-13.1,6.8c-6.8,0-11.5-2.5-13.4-3.4c-0.4-0.2-0.6-0.4-1.1-0.4c-1,0-1,1.3-1,1.5
		c0,0.6-0.4,6.6-0.4,8.7C801.7,125.5,808.4,128.5,817.5,128.5 M39.5,65h-0.2L26.9,99.9h25L39.5,65z M61.6,127.4l-6.1-17.2H23.2
		l-6.1,17.2H3.4l29-76.3h15.4l28.5,76.3H61.6z M277.3,48h13.5v12.8h-13.5V48z M277.5,69.3h13.2v58.1h-13.2V69.3z M249.1,99.1v28.4
		h-13.2V84.2c0-4.2-0.5-12.1-0.6-14.9h10.7c1.1,0,1.5,0.5,1.5,1.6c0,1.7,0.1,7.2,0.1,7.2h0.3c1-2.5,4.8-10,15.8-10
		c3.7,0,6.4,1.2,6.9,1.4c0,2.5-0.3,8-0.4,9.5c-0.1,0.9-0.5,1.3-1,1.3c-0.4,0-0.7-0.1-0.9-0.2c-0.8-0.4-2.8-0.9-5.4-0.9
		C255.7,79,249.1,84.1,249.1,99.1 M151.7,127.4V90.2c0-6.7-2.8-11.9-9.7-11.9c-7.7,0-12.1,8.4-12.1,20.2v28.9h-13.2V90.1
		c0-6.1-2.5-11.8-9.6-11.8c-7.8,0-12.2,8.4-12.2,20.7v28.4H81.6V85.1c0-5.5-0.5-13.2-0.6-15.8h10.6c1.2,0,1.6,0.4,1.6,1.6
		c0,1.5,0.1,7.2,0.1,7.2h0.3c0.8-1.7,5.1-10.1,17.3-10.1c11.3,0,15.6,8.1,16.7,10.6c1-2.2,6.1-10.6,17.4-10.6
		c11.8,0,19.9,6.4,19.9,19.1v40.3H151.7z M188.2,92.4h24.4c0.5-9.4-4.4-14.6-11.8-14.6C193,77.8,188.5,83.4,188.2,92.4 M220.7,114.7
		c0.7,0,0.9,0.6,1,1.3c0.2,2.5,0.4,8.1,0.4,9.5c-1.4,0.5-8.5,3.1-18,3.1c-18.5,0-29.6-9.6-29.6-30.2c0-17.7,9.5-30.3,26.6-30.3
		c16.7,0,24.7,11.2,24.7,25.1c0,1.6-0.2,4.4-0.5,8.1H188c0,9.9,6.3,17.1,18,17.1c6.5,0,11.6-2.3,13.6-3.3
		C220,114.8,220.3,114.7,220.7,114.7 M386.3,97.9H384c-16.6,0-19.8,5.8-19.8,11.6c0,4.8,3.2,9.3,9.4,9.3c8.2,0,12.7-8,12.7-16.3
		V97.9z M389.5,127.4c-1.1,0-2-0.4-2.1-1.9c-0.1-1.9-0.4-5.6-0.4-5.6h-0.2c-0.8,1.1-5.6,8.6-17.7,8.6c-11.6,0-18.2-8.9-18.2-18.7
		c0-13.6,13.2-20.4,32.7-20.4h2.6v-2.1c0-6.1-4.3-9.4-12.4-9.4c-7.3,0-13.3,2.6-15.7,3.8c-0.2,0.1-0.6,0.3-1,0.3c-0.6,0-1-0.4-1-1.1
		c-0.1-2.2-0.3-6.4-0.4-9.1c2.4-0.9,10.3-3.8,19-3.8c17.3,0,24.7,8,24.7,20.8v22.7c0,8.3,0.8,13.7,1,15.9H389.5z M343.8,114.7
		c0.4,0,0.8,0.2,1,1.2c0.3,2.8,0.4,7.3,0.4,8.7c-2.6,1.3-8.3,3.9-15.4,3.9c-17.6,0-28.4-10.2-28.4-30.2c0-18.7,9.6-30.2,28.4-30.2
		c6.2,0,12,2.2,15.4,3.9c0,2.1-0.2,6.8-0.4,8.7c-0.1,0.8-0.5,1.2-1,1.2c-0.5,0-0.7-0.1-1-0.3c-4.3-2.1-8.2-3.1-11.8-3.1
		c-11.2,0-15.8,7.3-15.8,19.7c0,11.1,3.7,19.7,15.8,19.7c4.6,0,8.9-1.7,11.5-2.9C343.2,114.8,343.3,114.7,343.8,114.7 M447,127.4
		V89.9c0-7.2-3.3-11.5-9.4-11.5c-8.1,0-13.5,8.6-13.5,20.3v28.8h-13.2V84.7c0-4.7-0.4-11.5-0.6-15.4h10.6c1.2,0,1.6,0.5,1.6,1.6
		c0,1.2,0.1,7.3,0.1,7.3h0.3c1.6-2.7,5.7-10.1,17.8-10.1c12.6,0,19.6,8.6,19.6,18.2v41.2H447z"/>
	
		<path id="path142" inkscape:connector-curvature="0" style="clip-path:url(#SVGID_00000073720388686750297080000000248176881498749832_);fill:#45586A;" d="
		M1021.8,154.8c0.5,0,0.8-0.2,0.8-0.6c0-0.3-0.3-0.6-0.8-0.6c-0.2,0-0.2,0-0.2,0v1.1C1021.6,154.8,1021.7,154.8,1021.8,154.8
		 M1021.9,155.3h-0.3v1.5h-0.6v-3.5h1c0.8,0,1.2,0.4,1.2,1c0,0.7-0.6,0.9-0.7,0.9l0.9,1.5h-0.7L1021.9,155.3z M1019.1,155.1
		c0,1.6,1.3,2.8,2.8,2.8c1.6,0,2.8-1.3,2.8-2.8c0-1.6-1.3-2.8-2.8-2.8C1020.4,152.2,1019.1,153.5,1019.1,155.1 M1025.5,155.1
		c0,2-1.6,3.5-3.5,3.5s-3.5-1.6-3.5-3.5c0-1.9,1.6-3.5,3.5-3.5S1025.5,153.1,1025.5,155.1"/>
</g>
</svg>
