<?xml version="1.0" encoding="utf-8"?>
<!-- Generator: Adobe Illustrator 27.9.0, SVG Export Plug-In . SVG Version: 6.00 Build 0)  -->
<svg version="1.1"
	 id="svg2" xmlns:svg="http://www.w3.org/2000/svg" xmlns:dc="http://purl.org/dc/elements/1.1/" xmlns:inkscape="http://www.inkscape.org/namespaces/inkscape" xmlns:rdf="http://www.w3.org/1999/02/22-rdf-syntax-ns#" xmlns:sodipodi="http://sodipodi.sourceforge.net/DTD/sodipodi-0.dtd" xmlns:cc="http://creativecommons.org/ns#" inkscape:export-ydpi="561.73999" inkscape:version="0.92.4 (5da689c313, 2019-01-14)"
	 xmlns="http://www.w3.org/2000/svg" xmlns:xlink="http://www.w3.org/1999/xlink" x="0px" y="0px" viewBox="0 0 1028.5 160.7"
	 style="enable-background:new 0 0 1028.5 160.7;" xml:space="preserve">
<style type="text/css">
	.st0{fill:url(#path64_00000031189980862316280080000001628528187522661029_);}
	.st1{fill:url(#path84_00000047767080665087504380000011861742686675724980_);}
	.st2{fill:url(#path106_00000165199896050224375800000006116448787149157819_);}
	.st3{fill:url(#path126_00000183210680013561537560000009193794052345468304_);}
	.st4{clip-path:url(#SVGID_00000166673341852193880640000004932390439112755340_);}
	.st5{fill:#45586A;}
</style>
<sodipodi:namedview  bordercolor="#666666" borderopacity="1" gridtolerance="10" guidetolerance="10" id="namedview4" inkscape:current-layer="g10" inkscape:cx="781.04238" inkscape:cy="68.352818" inkscape:pageopacity="0" inkscape:pageshadow="2" inkscape:window-height="837" inkscape:window-maximized="1" inkscape:window-width="1600" inkscape:window-x="-8" inkscape:window-y="-8" inkscape:zoom="0.4469697" objecttolerance="10" pagecolor="#ffffff" showgrid="false">
	</sodipodi:namedview>
<g id="g44" transform="matrix(3.9861691,0,0,3.9861691,-943.25842,-2644.9511)" inkscape:export-filename="G:\Users\suitedoalex\sites\american-airlines-logo-4.png" inkscape:export-xdpi="37.569691" inkscape:export-ydpi="37.569691">
	<g id="g46">
		<g id="g52">
			<g id="g54">
				
					<linearGradient id="path64_00000178185255970478712380000005348212556673910935_" gradientUnits="userSpaceOnUse" x1="95.6916" y1="712.0471" x2="96.6916" y2="712.0471" gradientTransform="matrix(0 101.4837 101.4837 0 -71781.6719 -9024.7617)">
					<stop  offset="0" style="stop-color:#ED1C24"/>
					<stop  offset="0.7546" style="stop-color:#780E0F"/>
					<stop  offset="1" style="stop-color:#780E0F"/>
				</linearGradient>
				
					<path id="path64" inkscape:connector-curvature="0" style="fill:url(#path64_00000178185255970478712380000005348212556673910935_);" d="
					M468.3,692.8l4.2,6.9c2.2,3.7,5.8,3.6,6.8,3.6l0,0h11.5l-13.6-16.5C470.9,687.1,467.6,691.1,468.3,692.8"/>
			</g>
		</g>
	</g>
</g>
<g id="g66" transform="matrix(3.9861691,0,0,3.9861691,-943.25842,-2644.9511)" inkscape:export-filename="G:\Users\suitedoalex\sites\american-airlines-logo-4.png" inkscape:export-xdpi="37.569691" inkscape:export-ydpi="37.569691">
	<g id="g68">
		<g id="g74">
			<g id="g76">
				
					<linearGradient id="path84_00000069381895842464225720000008515003979609435324_" gradientUnits="userSpaceOnUse" x1="94.7146" y1="714.2075" x2="95.7145" y2="714.2075" gradientTransform="matrix(37.0371 0 0 -37.0371 -3040.0283 27140.6328)">
					<stop  offset="0" style="stop-color:#69231D"/>
					<stop  offset="1" style="stop-color:#D1342A"/>
				</linearGradient>
				
					<path id="path84" inkscape:connector-curvature="0" style="fill:url(#path84_00000069381895842464225720000008515003979609435324_);" d="
					M467.9,690.9c0,1,0.4,1.8,0.4,1.9l0,0c-0.7-1.7,2.6-5.7,8.9-6l0,0l-2.1-2.6C471.3,685,467.9,687.1,467.9,690.9"/>
			</g>
		</g>
	</g>
</g>
<g id="g86" transform="matrix(3.9861691,0,0,3.9861691,-943.25842,-2644.9511)" inkscape:export-filename="G:\Users\suitedoalex\sites\american-airlines-logo-4.png" inkscape:export-xdpi="37.569691" inkscape:export-ydpi="37.569691">
	<g id="g88">
		<g id="g94">
			<g id="g96">
				
					<linearGradient id="path106_00000006692755971658840390000017494268390193959325_" gradientUnits="userSpaceOnUse" x1="95.8759" y1="714.2825" x2="96.8759" y2="714.2825" gradientTransform="matrix(41.2706 -24.7979 -24.7979 -41.2706 14222.7227 32543.4824)">
					<stop  offset="0" style="stop-color:#EFF2F4"/>
					<stop  offset="0.1" style="stop-color:#EFF2F4"/>
					<stop  offset="1" style="stop-color:#96A7B0"/>
				</linearGradient>
				
					<path id="path106" inkscape:connector-curvature="0" style="fill:url(#path106_00000006692755971658840390000017494268390193959325_);" d="
					M463.5,683.7c0,0.8,0.3,1.5,1,2.8l0,0l3.8,6.3c0,0-0.4-0.9-0.4-1.9l0,0c0-3.8,3.3-5.9,7.1-6.7l0,0c1.1-0.2,2.2-0.3,3.3-0.3l0,0
					c0.9,0,1.8,0,2.5,0.3l0,0c-0.4-1.4-1.4-3.6-7.3-3.6l0,0C467.8,680.5,463.5,681.5,463.5,683.7"/>
			</g>
		</g>
	</g>
</g>
<g id="g108" transform="matrix(3.9861691,0,0,3.9861691,-943.25842,-2644.9511)" inkscape:export-filename="G:\Users\suitedoalex\sites\american-airlines-logo-4.png" inkscape:export-xdpi="37.569691" inkscape:export-ydpi="37.569691">
	<g id="g110">
		<g id="g116">
			<g id="g118">
				
					<linearGradient id="path126_00000067230618573905677390000003450444083194533563_" gradientUnits="userSpaceOnUse" x1="97.1133" y1="713.4387" x2="98.1133" y2="713.4387" gradientTransform="matrix(0 -70.112 -70.112 0 50481.8398 7490.7119)">
					<stop  offset="0" style="stop-color:#1C2F72"/>
					<stop  offset="1" style="stop-color:#00AFEB"/>
				</linearGradient>
				
					<path id="path126" inkscape:connector-curvature="0" style="fill:url(#path126_00000067230618573905677390000003450444083194533563_);" d="
					M450.8,664.1l7.6,12.5c1.6,2.6,2.2,3.2,5.9,3.2l0,0h7.2l-9.9-12.5c-2.2-2.7-3.4-3.2-5.4-3.2l0,0H450.8z"/>
			</g>
		</g>
	</g>
</g>
<g id="g128" transform="matrix(3.9861691,0,0,3.9861691,-943.25842,-2644.9511)" inkscape:export-filename="G:\Users\suitedoalex\sites\american-airlines-logo-4.png" inkscape:export-xdpi="37.569691" inkscape:export-ydpi="37.569691">
	<g>
		<defs>
			<rect id="SVGID_1_" x="-297.1" y="527.4" width="1322.5" height="312.7"/>
		</defs>
		<clipPath id="SVGID_00000129916930570589903510000004719989665026469292_">
			<use xlink:href="#SVGID_1_"  style="overflow:visible;"/>
		</clipPath>
		<g id="g130" style="clip-path:url(#SVGID_00000129916930570589903510000004719989665026469292_);">
			<g id="g136" transform="translate(481.9531,732.3292)">
				<path id="path138" inkscape:connector-curvature="0" class="st5" d="M-116.3-52.5L-116.3-52.5l-3.2,8.8h6.3L-116.3-52.5z
					 M-110.7-36.8l-1.5-4.3h-8.1l-1.5,4.3h-3.5l7.3-19.1h3.9l7.2,19.1H-110.7z M-81.4-56.7h3.4v3.2h-3.4V-56.7z M-81.3-51.4h3.3
					v14.6h-3.3V-51.4z M-105.8-56.7h3.4v3.2h-3.4V-56.7z M-105.7-51.4h3.3v14.6h-3.3V-51.4z M-84.9-56.7h-3.3v19.9h3.3V-56.7z
					 M-95.5-43.9v7.1h-3.3v-10.8c0-1-0.1-3-0.2-3.7h2.7c0.3,0,0.4,0.1,0.4,0.4c0,0.4,0,1.8,0,1.8h0.1c0.3-0.6,1.2-2.5,4-2.5
					c0.9,0,1.6,0.3,1.7,0.3c0,0.6-0.1,2-0.1,2.4c0,0.2-0.1,0.3-0.2,0.3c-0.1,0-0.2,0-0.2-0.1c-0.2-0.1-0.7-0.2-1.4-0.2
					C-93.8-49-95.5-47.7-95.5-43.9 M-65.3-36.8v-9.4c0-1.8-0.8-2.9-2.4-2.9c-2,0-3.4,2.2-3.4,5.1v7.2h-3.3v-10.7
					c0-1.2-0.1-2.9-0.2-3.9h2.7c0.3,0,0.4,0.1,0.4,0.4c0,0.3,0,1.8,0,1.8h0.1c0.4-0.7,1.4-2.5,4.5-2.5c3.1,0,4.9,2.2,4.9,4.6v10.3
					H-65.3z M-56.2-45.6h6.1c0.1-2.4-1.1-3.7-3-3.7C-55-49.3-56.1-47.9-56.2-45.6 M-48-40c0.2,0,0.2,0.2,0.3,0.3
					c0.1,0.6,0.1,2,0.1,2.4c-0.4,0.1-2.1,0.8-4.5,0.8c-4.6,0-7.4-2.4-7.4-7.6c0-4.4,2.4-7.6,6.7-7.6c4.2,0,6.2,2.8,6.2,6.3
					c0,0.4,0,1.1-0.1,2h-9.4c0,2.5,1.6,4.3,4.5,4.3c1.6,0,2.9-0.6,3.4-0.8C-48.2-40-48.1-40-48-40 M-40.2-36.6
					c4.3,0,6.4-1.8,6.4-4.4c0-2.6-1.8-3.7-3.8-4.3c-0.6-0.2-1.1-0.4-1.6-0.5c-1.3-0.4-2-1-2-1.9c0-0.9,0.8-1.5,2.6-1.5
					c1.5,0,2.8,0.6,3.3,0.9c0.1,0,0.2,0.1,0.3,0.1c0.1,0,0.2-0.1,0.3-0.3c0-0.5,0.1-1.4,0.1-2.2c-0.4-0.2-1.9-0.9-4.2-0.9
					c-3.6,0-5.7,1.9-5.7,4.3c0,2.4,1.6,3.5,3.4,4c0.4,0.1,1.2,0.4,1.6,0.5c1.9,0.6,2.4,1.2,2.4,2.1c0,1.1-1.2,1.7-3.3,1.7
					c-1.7,0-2.9-0.6-3.4-0.8c-0.1,0-0.2-0.1-0.3-0.1c-0.2,0-0.3,0.3-0.3,0.4c0,0.2-0.1,1.7-0.1,2.2C-44.2-37.3-42.5-36.6-40.2-36.6
					 M-235.4-52.5L-235.4-52.5l-3.2,8.8h6.3L-235.4-52.5z M-229.9-36.8l-1.5-4.3h-8.1l-1.5,4.3h-3.5l7.3-19.2h3.9l7.2,19.2H-229.9z
					 M-175.8-56.7h3.4v3.2h-3.4V-56.7z M-175.7-51.4h3.3v14.6h-3.3V-51.4z M-182.8-43.9v7.1h-3.3v-10.8c0-1-0.1-3-0.2-3.7h2.7
					c0.3,0,0.4,0.1,0.4,0.4c0,0.4,0,1.8,0,1.8h0.1c0.3-0.6,1.2-2.5,4-2.5c0.9,0,1.6,0.3,1.7,0.3c0,0.6-0.1,2-0.1,2.4
					c0,0.2-0.1,0.3-0.2,0.3c-0.1,0-0.2,0-0.2,0c-0.2-0.1-0.7-0.2-1.4-0.2C-181.2-49-182.8-47.7-182.8-43.9 M-207.3-36.8v-9.3
					c0-1.7-0.7-3-2.4-3c-1.9,0-3,2.1-3,5.1v7.2h-3.3v-9.4c0-1.5-0.6-3-2.4-3c-2,0-3.1,2.1-3.1,5.2v7.1h-3.3v-10.6
					c0-1.4-0.1-3.3-0.2-4h2.6c0.3,0,0.4,0.1,0.4,0.4c0,0.4,0,1.8,0,1.8h0.1c0.2-0.4,1.3-2.5,4.3-2.5c2.8,0,3.9,2,4.2,2.7
					c0.3-0.6,1.5-2.7,4.4-2.7c3,0,5,1.6,5,4.8v10.1H-207.3z M-198.1-45.6h6.1c0.1-2.3-1.1-3.7-3-3.7
					C-196.9-49.3-198-47.9-198.1-45.6 M-189.9-40c0.2,0,0.2,0.2,0.2,0.3c0.1,0.6,0.1,2,0.1,2.4c-0.4,0.1-2.1,0.8-4.5,0.8
					c-4.6,0-7.4-2.4-7.4-7.6c0-4.4,2.4-7.6,6.7-7.6c4.2,0,6.2,2.8,6.2,6.3c0,0.4,0,1.1-0.1,2h-9.4c0,2.5,1.6,4.3,4.5,4.3
					c1.6,0,2.9-0.6,3.4-0.8C-190.1-40-190.1-40-189.9-40 M-148.4-44.2h-0.6c-4.2,0-5,1.4-5,2.9c0,1.2,0.8,2.3,2.3,2.3
					c2.1,0,3.2-2,3.2-4.1V-44.2z M-147.6-36.8c-0.3,0-0.5-0.1-0.5-0.5c0-0.5-0.1-1.4-0.1-1.4h0c-0.2,0.3-1.4,2.2-4.4,2.2
					c-2.9,0-4.6-2.2-4.6-4.7c0-3.4,3.3-5.1,8.2-5.1h0.7v-0.5c0-1.5-1.1-2.3-3.1-2.3c-1.8,0-3.3,0.6-3.9,0.9c0,0-0.1,0.1-0.2,0.1
					c-0.2,0-0.2-0.1-0.3-0.3c0-0.5-0.1-1.6-0.1-2.3c0.6-0.2,2.6-1,4.8-1c4.3,0,6.2,2,6.2,5.2v5.7c0,2.1,0.2,3.4,0.3,4L-147.6-36.8z
					 M-159.1-40c0.1,0,0.2,0.1,0.2,0.3c0.1,0.7,0.1,1.8,0.1,2.2c-0.7,0.3-2.1,1-3.9,1c-4.4,0-7.1-2.6-7.1-7.6c0-4.7,2.4-7.6,7.1-7.6
					c1.6,0,3,0.5,3.9,1c0,0.5-0.1,1.7-0.1,2.2c0,0.2-0.1,0.3-0.2,0.3c-0.1,0-0.2,0-0.3-0.1c-1.1-0.5-2.1-0.8-3-0.8c-2.8,0-4,1.8-4,5
					c0,2.8,0.9,4.9,4,4.9c1.2,0,2.2-0.4,2.9-0.7C-159.2-40-159.2-40-159.1-40 M-133.2-36.8v-9.4c0-1.8-0.8-2.9-2.4-2.9
					c-2,0-3.4,2.2-3.4,5.1v7.2h-3.3v-10.7c0-1.2-0.1-2.9-0.2-3.9h2.7c0.3,0,0.4,0.1,0.4,0.4c0,0.3,0,1.8,0,1.8h0.1
					c0.4-0.7,1.4-2.5,4.5-2.5c3.2,0,4.9,2.2,4.9,4.6v10.3H-133.2z"/>
			</g>
			<g id="g140" transform="translate(577.4289,715.4262)">
				<path id="path142" inkscape:connector-curvature="0" class="st5" d="M-84.5-13c0.1,0,0.2-0.1,0.2-0.2c0-0.1-0.1-0.1-0.2-0.1
					c0,0-0.1,0-0.1,0L-84.5-13C-84.5-13.1-84.5-13-84.5-13 M-84.4-12.9L-84.4-12.9l-0.1,0.4h-0.2v-0.9h0.3c0.2,0,0.3,0.1,0.3,0.3
					c0,0.2-0.1,0.2-0.2,0.2l0.2,0.4h-0.2L-84.4-12.9z M-85.1-13c0,0.4,0.3,0.7,0.7,0.7c0.4,0,0.7-0.3,0.7-0.7s-0.3-0.7-0.7-0.7
					C-84.8-13.7-85.1-13.4-85.1-13 M-83.5-13c0,0.5-0.4,0.9-0.9,0.9c-0.5,0-0.9-0.4-0.9-0.9c0-0.5,0.4-0.9,0.9-0.9
					C-83.9-13.9-83.5-13.5-83.5-13"/>
			</g>
		</g>
	</g>
</g>
</svg>
