<?xml version="1.0" encoding="utf-8"?>
<!-- Generator: Adobe Illustrator 27.9.0, SVG Export Plug-In . SVG Version: 6.00 Build 0)  -->
<svg version="1.1" id="Layer_1" xmlns="http://www.w3.org/2000/svg" xmlns:xlink="http://www.w3.org/1999/xlink" x="0px" y="0px"
	 viewBox="0 0 612.5 145.7" style="enable-background:new 0 0 612.5 145.7;" xml:space="preserve">
<style type="text/css">
	.st0{fill:#FFFFFF;}
	.st1{fill:#FF0000;}
</style>
<path class="st0" d="M155.7,16.1c-6,0.2-10.7,5.2-10.5,11.2c0.2,6,5.2,10.7,11.2,10.5c5.9-0.2,10.5-5,10.5-10.9
	C166.8,20.8,161.8,16,155.7,16.1C155.8,16.1,155.7,16.1,155.7,16.1z"/>
<path class="st0" d="M449.4,70.2c0-17.6-9.4-26.2-28.6-26.2c-10.1-0.1-20,2.7-28.4,8.2l6.6,12.6c6.3-3.8,12-5.5,17.9-5.5
	s12.9,1.9,12.9,10.9v1l-11.6,0.4C399,72.3,388,80.9,388,95.4s9.8,23.3,23.7,23.3c7.3,0.2,14.4-2.4,20-7.2c1.4,3.8,3.3,5.7,8,5.7H451
	c-1.1-3.7-1.6-7.9-1.6-14.2L449.4,70.2L449.4,70.2z M429.7,98.9c-3.3,2.7-7.5,4.1-11.7,4c-6.6,0-10.5-3.3-10.5-8.9
	c0-3.5,1.3-8.2,13-8.6l9.2-0.3L429.7,98.9L429.7,98.9z"/>
<path class="st0" d="M146,117.1h19.4V45.6H146V117.1z"/>
<path class="st0" d="M103.7,117.1h6.7l29.8-71.5h-19.4L103.4,92l-17-46.3H66.9L93,109.4C95,114.3,98,117.2,103.7,117.1L103.7,117.1z
	"/>
<path class="st0" d="M314.4,117.1V70c0-19.1-11.8-25.9-22.9-25.9c-8.3,0-15.8,2.6-24,8.6l-0.1-0.4c-1.6-4.4-5.1-6.6-10.8-6.6h-7.4
	v71.5h19.4V67.9c6.3-4.7,11.8-6.9,16.9-6.9c6.5,0,9.5,4.4,9.5,14.3v41.9L314.4,117.1z"/>
<path class="st0" d="M383.9,111.3l-5.1-13.8c-4.1,2.4-10,5.2-16.9,5.2c-14.4,0-19.5-11.7-19.5-21.8c0-12.5,8.3-21.6,19.6-21.6
	c6.5,0,12.9,2.1,18.1,6l0.6-16c-6.3-3.6-13.5-5.4-20.8-5.2c-9.9-0.2-19.4,3.7-26.4,10.7c-6.8,6.9-10.5,16.5-10.5,27
	s3.2,19.4,8.9,25.9c6.3,7.2,15.4,10.9,26.3,10.9C368.5,118.6,378.8,114.8,383.9,111.3L383.9,111.3z"/>
<path class="st0" d="M238,117.1c-1.1-3.7-1.6-7.9-1.6-14.2V70.2c0-17.6-9.4-26.2-28.6-26.2c-10.1-0.1-19.9,2.7-28.4,8.2l6.6,12.6
	c6.3-3.8,12-5.5,17.8-5.5s12.9,1.9,12.9,10.9v1L205,71.6c-19.1,0.6-30,9.3-30,23.7s9.8,23.3,23.7,23.3c7.3,0.2,14.4-2.4,20-7.2
	c1.4,3.8,3.3,5.7,8.1,5.7L238,117.1z M216.6,98.9c-3.3,2.7-7.5,4.1-11.7,4c-6.6,0-10.5-3.3-10.5-8.9c0-3.5,1.3-8.2,13-8.6l9.2-0.3
	L216.6,98.9L216.6,98.9z"/>
<path class="st0" d="M63,117.1c-1.1-3.7-1.6-7.9-1.6-14.2V70.2C61.3,52.6,52,44,32.7,44c-10.1-0.1-19.9,2.7-28.4,8.2l6.6,12.6
	c6.3-3.8,12-5.5,17.8-5.5s12.9,1.9,12.9,10.9v1L30,71.6C11,72.3,0,80.9,0,95.4s9.8,23.3,23.7,23.3c7.3,0.2,14.4-2.4,20-7.2
	c1.4,3.8,3.3,5.7,8.1,5.7L63,117.1L63,117.1z M41.6,98.9c-3.3,2.7-7.5,4.1-11.7,4c-6.6,0-10.5-3.3-10.5-8.9c0-3.5,1.3-8.2,13-8.6
	l9.2-0.3L41.6,98.9L41.6,98.9z"/>
<path class="st1" d="M561.1,113.9h13.4c5.6,0,8,0.5,9.6,1.2c-2.4-7.4-9.9-13.2-36.4-15.1C552,104.8,556.4,109.5,561.1,113.9
	L561.1,113.9z"/>
<path class="st1" d="M547.8,99.9c-25.7-29.9-43-68.1-50-99.9c0,0-14.1,12.5-15.2,38.7c-1.2,28.6,14.1,57.5,64.7,61.2
	C547.4,99.8,547.6,99.8,547.8,99.9L547.8,99.9z"/>
<path class="st1" d="M561.1,113.9h-54.4c0.7,1.7,3.2,2.9,8.9,3.2c33.9,2,38.7,28.6,87.3,28.6c3.2,0.1,6.4-0.2,9.6-0.7
	C593.3,139.1,576.1,128,561.1,113.9L561.1,113.9z"/>
</svg>
