<svg id="Layer_1" data-name="Layer 1" xmlns="http://www.w3.org/2000/svg" viewBox="0 0 612.55 145.73"><title>Avianca 2023 logo - Brandlogos.net</title><path d="M240.15,337.06a10.84,10.84,0,1,0,11.18,10.77A10.93,10.93,0,0,0,240.15,337.06Z" transform="translate(-84.45 -321)" style="fill:red"/><path d="M533.83,391.24c0-17.64-9.36-26.19-28.59-26.19a51.35,51.35,0,0,0-28.43,8.21l6.58,12.61c6.29-3.81,12-5.55,17.86-5.55s12.88,1.89,12.88,10.93v1l-11.58.4c-19.1.65-30.08,9.28-30.08,23.72s9.78,23.28,23.74,23.28a29.72,29.72,0,0,0,20-7.18c1.41,3.81,3.27,5.71,8,5.71h11.2c-1.09-3.7-1.63-7.92-1.63-14.21V391.24Zm-19.7,28.69a17.77,17.77,0,0,1-11.73,4c-6.57,0-10.49-3.31-10.49-8.9,0-3.51,1.33-8.23,13-8.59l9.19-.27v13.8Z" transform="translate(-84.45 -321)" style="fill:red"/><path d="M230.45,438.14h19.42V366.65H230.45Z" transform="translate(-84.45 -321)" style="fill:red"/><path d="M188.1,438.14h6.74l29.75-71.49H205.18L187.9,413l-17-46.33H151.37l26.1,63.72c2,4.93,5,7.78,10.64,7.78Z" transform="translate(-84.45 -321)" style="fill:red"/><path d="M398.81,438.14V391c0-19.13-11.82-25.92-22.87-25.92-8.33,0-15.77,2.65-24,8.57l-.1-.37c-1.63-4.42-5.14-6.59-10.81-6.59h-7.41v71.49H353V388.87c6.26-4.68,11.77-6.94,16.89-6.94,6.55,0,9.48,4.41,9.48,14.33v41.87Z" transform="translate(-84.45 -321)" style="fill:red"/><path d="M468.35,432.26l-5.09-13.81c-4.07,2.36-10,5.17-16.91,5.17-14.4,0-19.5-11.72-19.5-21.75,0-12.5,8.27-21.57,19.65-21.57a30.29,30.29,0,0,1,18.09,6l.64-16a40.83,40.83,0,0,0-20.8-5.25A36.57,36.57,0,0,0,418,375.76c-6.81,6.92-10.54,16.5-10.54,27s3.18,19.4,8.9,25.91c6.26,7.17,15.39,10.93,26.33,10.93,10.27,0,20.52-3.81,25.69-7.35Z" transform="translate(-84.45 -321)" style="fill:red"/><path d="M322.43,438.14c-1.09-3.7-1.65-7.92-1.65-14.21V391.24c0-17.64-9.36-26.19-28.61-26.19a51.4,51.4,0,0,0-28.41,8.21l6.58,12.61c6.31-3.81,12-5.55,17.84-5.55s12.89,1.89,12.89,10.93v1l-11.58.4c-19.09.65-30.05,9.28-30.05,23.72s9.77,23.28,23.73,23.28a29.69,29.69,0,0,0,20-7.18c1.44,3.81,3.28,5.71,8.06,5.71Zm-21.34-18.21a17.75,17.75,0,0,1-11.71,4c-6.58,0-10.51-3.31-10.51-8.9,0-3.51,1.33-8.23,13-8.59l9.17-.27v13.8Z" transform="translate(-84.45 -321)" style="fill:red"/><path d="M147.43,438.14c-1.09-3.7-1.65-7.92-1.65-14.21V391.24c0-17.64-9.36-26.19-28.61-26.19a51.4,51.4,0,0,0-28.41,8.21l6.58,12.61c6.31-3.81,12-5.55,17.84-5.55s12.89,1.89,12.89,10.93v1l-11.58.4c-19.08.65-30,9.28-30,23.72s9.77,23.28,23.73,23.28a29.69,29.69,0,0,0,20-7.18c1.44,3.81,3.28,5.71,8.06,5.71h11.19Zm-21.34-18.21a17.75,17.75,0,0,1-11.71,4c-6.58,0-10.51-3.31-10.51-8.9,0-3.51,1.33-8.23,13-8.59l9.17-.27v13.8Z" transform="translate(-84.45 -321)" style="fill:red"/><path d="M645.56,434.88H659c5.57,0,8,.46,9.59,1.16-2.38-7.4-9.9-13.17-36.37-15.15a186.13,186.13,0,0,0,13.35,14Z" transform="translate(-84.45 -321)" style="fill:red"/><path d="M632.21,420.9c-25.7-29.86-43-68.07-49.95-99.9,0,0-14.12,12.46-15.24,38.66-1.24,28.63,14.12,57.5,64.7,61.18.16,0,.34,0,.49,0Z" transform="translate(-84.45 -321)" style="fill:red"/><path d="M645.56,434.88H591.18c.73,1.69,3.21,2.87,8.88,3.21,33.94,2,38.74,28.65,87.32,28.65A48.89,48.89,0,0,0,697,466c-19.2-5.9-36.44-17-51.44-31.1Z" transform="translate(-84.45 -321)" style="fill:red"/></svg>