<?xml version="1.0" encoding="utf-8"?>
<!-- Generator: Adobe Illustrator 27.9.0, SVG Export Plug-In . SVG Version: 6.00 Build 0)  -->
<svg version="1.1" id="Layer_1" xmlns="http://www.w3.org/2000/svg" xmlns:xlink="http://www.w3.org/1999/xlink" x="0px" y="0px"
	 viewBox="0 0 500 139" style="enable-background:new 0 0 500 139;" xml:space="preserve">
<style type="text/css">
	.st0{fill-rule:evenodd;clip-rule:evenodd;fill:#FFFFFF;}
	.st1{fill:#5162AA;}
	.st2{fill:#8C338A;}
	.st3{fill:#5D81C1;}
	.st4{fill:#E75027;}
	.st5{fill:#D5292A;}
	.st6{fill:#F6A124;}
	.st7{fill:#6A95CD;}
	.st8{fill:#3370B6;}
	.st9{fill:#74C7DC;}
	.st10{fill:#92C144;}
	.st11{fill:#199BD6;}
	.st12{fill:#1F9AA7;}
	.st13{fill:#A5BFDF;}
	.st14{fill:#3FB6AF;}
	.st15{fill:#AF2458;}
	.st16{fill:#7AC19A;}
	.st17{fill:#E5DF22;}
	.st18{fill:#34BBD0;}
	.st19{fill:#6BA8DB;}
	.st20{fill:#DF5297;}
	.st21{fill:#604696;}
	.st22{fill:#F9D805;}
	.st23{fill-rule:evenodd;clip-rule:evenodd;fill:#5162AA;}
	.st24{fill:#16B9E7;}
	.st25{fill:#42AD4B;}
	.st26{fill:#E6B722;}
	.st27{fill:#B9CF36;}
</style>
<path class="st0" d="M0,129.1h32l7.6-21.2h41.7l7.3,21.2h32.6L76.3,10.5H44.6L0,129.1z M302.7,129.1h28.5V10.5h-28.5V129.1z
	 M296,43.1h-28.5v46.2c0,15.4-9.4,19.2-15.6,19.2c-9.1,0-14.1-4.1-14.1-15.4v-50h-28.5v51.7c0,22.7,7.3,36.9,32.3,36.9
	c10,0,21.1-5.5,26.4-14.2h0.3v11.6H296V43.1z M206.1,129.1h-82.8L123,107l43.5-42.7h-39.9V42.8h76.3v21.5l-43.5,43.3h46.7
	L206.1,129.1z M60.8,43.4h-0.3L46.7,84.9H74L60.8,43.4z"/>
<path class="st1" d="M447.8,13.4h8.2v6.4h-8.2V13.4z"/>
<path class="st2" d="M417.8,82.2h24.7v26.6h-24.7V82.2z"/>
<path class="st3" d="M434.3,114.3h16.2v9.8h-16.2V114.3z"/>
<path class="st4" d="M424.5,118.9h19.6v19.6h-19.6V118.9z"/>
<path class="st5" d="M449,101.2h16.8v7.3H449L449,101.2z"/>
<path class="st6" d="M442.9,87.7H460v4.6h-17.1V87.7z"/>
<path class="st7" d="M465.8,101.2h11.9v3.4h-11.9V101.2z"/>
<path class="st8" d="M442.9,66.6h16.5v21.1h-16.5V66.6z"/>
<path class="st9" d="M410.5,50.4h32.1v31.5h-32.1V50.4z"/>
<path class="st10" d="M391.8,50.4h21.4v17.4h-21.4V50.4z"/>
<path class="st1" d="M419.6,21H456v29.7h-36.4V21z"/>
<path class="st11" d="M459.1,54.4h26.6v32.4h-26.6V54.4z"/>
<path class="st6" d="M455.1,72.7h22.6v28.8h-22.6V72.7z"/>
<path class="st5" d="M442.9,92.3h16.8v16.5h-16.8V92.3z"/>
<path class="st12" d="M432.8,102.4h21.7v11.9h-21.7V102.4z"/>
<path class="st13" d="M477.7,84h4.6v14.4h-4.6V84z"/>
<path class="st14" d="M485.6,53.4h12.2v7.6h-12.2V53.4z"/>
<path class="st15" d="M484.7,60.8h8.9v4.9h-8.9V60.8z"/>
<path class="st16" d="M442.9,37.8h16.5v29.1h-16.5V37.8z"/>
<path class="st17" d="M459.1,26.2h22.3v28.2h-22.3V26.2z"/>
<path class="st18" d="M456.3,21h16.2v26.3h-16.2V21z"/>
<path class="st19" d="M478,46.7h22v7.6h-22V46.7z"/>
<path class="st20" d="M481.4,29.6h10.4v17.1h-10.4V29.6z"/>
<path class="st21" d="M488.7,35.1h9.8v7h-9.8V35.1z"/>
<path class="st22" d="M486.3,42.1H500v7h-13.7V42.1z"/>
<path class="st23" d="M456,13h-8.2v6.7h8.2V13z M434.6,13.3h-15v16.5h15V13.3z"/>
<path class="st24" d="M373.5,13.4H420v37.3h-46.4V13.4z"/>
<path class="st25" d="M397.3,0.5h16.2v21.1h-16.2V0.5z"/>
<path class="st26" d="M363.7,47.6h29.9v11.6h-29.9L363.7,47.6z"/>
<path class="st27" d="M434.6,2.3h11.6V21h-11.6V2.3z"/>
<path class="st10" d="M450.2,72.7h4.6v4.6h-4.6V72.7z"/>
</svg>
