<?xml version="1.0" encoding="utf-8"?>
<!-- Generator: Adobe Illustrator 27.9.0, SVG Export Plug-In . SVG Version: 6.00 Build 0)  -->
<svg version="1.1" id="Layer_1" xmlns="http://www.w3.org/2000/svg" xmlns:xlink="http://www.w3.org/1999/xlink" x="0px" y="0px"
	 viewBox="0 0 242 37.8" style="enable-background:new 0 0 242 37.8;" xml:space="preserve">
<style type="text/css">
	.st0{fill:#FFFFFF;}
	.st1{fill:url(#SVGID_1_);}
	.st2{fill:#CE210F;}
</style>
<g>
	<g>
		<g>
			<path class="st0" d="M0.4,37.2c0.5-0.3,0.8-0.9,0.8-1.5V22.3c0-0.6-0.2-1.2-0.8-1.5h6.4c2.9,0,5.7,1.2,5.7,4.4
				c0,1.7-1.5,3.1-3.1,3.4c2.3,0,4.6,1.4,4.6,4c0,3.7-3.9,4.6-6.6,4.6L0.4,37.2L0.4,37.2z M5.6,22.2c-0.3,0-0.5,0-1.1,0.1V28h0.7
				c2,0,3.9-0.6,3.9-2.9C9.1,22.9,7.5,22.2,5.6,22.2z M6,29.5c-0.5,0-0.9,0-1.5,0v6.1c0.7,0.1,1.5,0.2,2.2,0.2
				c1.6,0,3.3-0.7,3.3-3.3C10.1,30.1,8.1,29.5,6,29.5z M20.3,22.2c-0.3,0-0.6,0-0.8,0.1V28c0.3,0,0.5,0,0.8,0c1.9,0,3.2-1,3.2-3
				C23.5,23,22.1,22.2,20.3,22.2z M28.6,37.3c-0.6,0-1.3,0-1.9-0.2c-1.1-0.3-2.7-2.9-3.3-3.8c-1-1.6-1.8-3.8-3.9-3.8v6.3
				c0,0.5,0.2,1.2,0.8,1.5h-4.9c0.5-0.3,0.8-0.9,0.8-1.5V22.3c0-0.6-0.2-1.2-0.8-1.5h5.9c2.6,0,5.8,1,5.8,4.1c0,2.6-2.2,3.9-4.6,3.9
				c3.4,0,5.4,8,9.2,8.1C30.7,37.2,29.7,37.3,28.6,37.3z M32,37.2c0.4-0.2,0.8-0.7,0.8-1.5V22.3c0-0.7-0.4-1.3-0.8-1.5H37
				c-0.4,0.2-0.8,0.7-0.8,1.5v13.5c0,0.7,0.4,1.3,0.8,1.5H32z M43,37.2c0.5-0.2,0.8-0.9,0.8-1.5V22.7h-3.6c-0.8,0-1.8,0.1-2.6,0.5
				l1.1-2.4h12c1,0,2,0,2.9-0.2c-0.5,1.2-1.8,2.2-2.6,2.2c-1,0-2.5-0.1-3.9-0.1v13.1c0,0.6,0.3,1.2,0.8,1.5L43,37.2L43,37.2z
				 M54.3,37.2c0.4-0.2,0.8-0.7,0.8-1.5V22.3c0-0.7-0.4-1.3-0.8-1.5h5.1c-0.4,0.2-0.8,0.7-0.8,1.5v13.5c0,0.7,0.4,1.3,0.8,1.5H54.3z
				 M69.2,33.5c0-3.1-7.4-3.8-7.4-8.8c0-3.1,2.9-4.1,5.5-4.1c1.2,0,2.8,0.2,3.9,0.6l0.2,3.1c-0.6-1.4-2.3-2.3-3.8-2.3
				c-1.2,0-2.4,0.6-2.4,2c0,3.2,7.5,4,7.5,8.8c0,3.4-3,4.9-6,4.9c-1.6,0-3.7-0.3-5.1-1.2c-0.1-0.5-0.1-1.1-0.1-1.7
				c0-0.7,0.1-1.3,0.2-2c0.8,1.9,2.6,3.4,4.7,3.4C68,36,69.2,35.3,69.2,33.5z M85,37.2c0.4-0.2,0.7-0.7,0.7-1.5v-6.1
				c-0.9-0.1-2.1-0.1-3.5-0.1c-1.4,0-2.6,0-3.5,0.1v6.1c0,0.7,0.4,1.3,0.7,1.5h-4.9c0.4-0.2,0.7-0.7,0.7-1.5V22.3
				c0-0.7-0.4-1.3-0.7-1.5h4.9c-0.4,0.2-0.7,0.7-0.7,1.5v5.5c0.9,0.1,2.1,0.1,3.5,0.1c1.4,0,2.6-0.1,3.5-0.1v-5.5
				c0-0.7-0.4-1.3-0.7-1.5h4.9c-0.4,0.2-0.7,0.7-0.7,1.5v13.5c0,0.7,0.4,1.3,0.7,1.5H85z"/>
			<path class="st0" d="M107.9,37.2c0.2-0.2,0.3-0.3,0.3-0.6c0-0.1,0-0.3-0.2-0.6c0,0-1.3-3.7-1.5-4.1c-1-0.1-2.1-0.1-3.1-0.1
				c-1,0-2,0-3,0.1c-0.1,0.4-1.6,4-1.6,4c-0.2,0.5-0.3,0.7-0.3,0.8c0,0.2,0.2,0.4,0.4,0.4h-3.3c0.5-0.2,0.9-0.8,1.1-1.3l5.4-14
				c0-0.1,0-0.1,0-0.2c0-0.4-0.3-0.8-0.6-0.9h4.3l5.5,15.2c0.2,0.6,0.7,1.1,1.1,1.3L107.9,37.2L107.9,37.2z M103.6,23.9l-2.5,6.4
				c0.7,0.1,1.5,0.1,2.3,0.1c0.9,0,1.7,0,2.6-0.1L103.6,23.9z M113.5,37.2c0.4-0.2,0.8-0.7,0.8-1.5V22.3c0-0.7-0.4-1.3-0.8-1.5h5.1
				c-0.4,0.2-0.8,0.7-0.8,1.5v13.5c0,0.7,0.4,1.3,0.8,1.5H113.5z M126.2,22.2c-0.3,0-0.5,0-0.8,0.1V28c0.3,0,0.5,0,0.8,0
				c1.9,0,3.2-1,3.2-3C129.4,23,128,22.2,126.2,22.2z M134.9,37.3c-0.6,0-1.3,0-1.9-0.2c-1.1-0.3-2.7-2.9-3.3-3.8
				c-1-1.6-2.2-3.8-4.3-3.8v6.3c0,0.5,0.2,1.2,0.8,1.5h-4.9c0.5-0.3,0.8-0.9,0.8-1.5V22.3c0-0.6-0.2-1.2-0.8-1.5h6
				c2.6,0,5.8,1,5.8,4.1c0,2.6-2.4,3.9-4.1,3.9c3.5,0.2,5.7,8.1,9.2,8.1C137,37.2,136,37.3,134.9,37.3z M155.4,22.4l-5,14.8
				c-0.4,0-0.8-0.1-1-0.3c-0.5-0.5-1.3-2.5-1.6-3.2l-2.3-5.7l-3.3,9.2h-1.5l-5.6-14.9c-0.2-0.6-0.6-1.2-1.3-1.6h4.9
				c-0.2,0.2-0.3,0.3-0.3,0.7c0,0.2,0.1,0.4,0.1,0.6l3.6,9.8l3.9-11.1l4.3,10.7l3.2-9.7c0.1-0.3,0.1-0.4,0.1-0.5
				c0-0.2-0.1-0.3-0.3-0.5h3.2C156,21.1,155.6,21.8,155.4,22.4z M161.4,23.9l-2.5,6.4c0.8,0.1,1.5,0.1,2.3,0.1c0.9,0,1.7,0,2.5-0.1
				L161.4,23.9z M165.7,37.2c0.2-0.2,0.3-0.3,0.3-0.6c0-0.1-0.1-0.3-0.1-0.6c0,0-1.3-3.7-1.5-4.1c-1-0.1-2.1-0.1-3.1-0.1
				c-1,0-2,0-2.9,0.1c-0.1,0.4-1.6,4-1.6,4c-0.2,0.5-0.3,0.7-0.3,0.8c0,0.2,0.2,0.4,0.4,0.4h-3.3c0.5-0.2,0.9-0.8,1.1-1.3l5.5-14
				c0-0.1,0-0.1,0-0.2c0-0.4-0.3-0.8-0.6-0.9h4.3l5.5,15.2c0.2,0.6,0.7,1.1,1.1,1.3L165.7,37.2L165.7,37.2z M180.5,22.5l-3.9,6.8
				v6.4c0,0.5,0.2,1.2,0.7,1.5h-4.8c0.5-0.3,0.7-1,0.7-1.5v-6.4l-3.4-5.4c-0.3-0.5-1.7-2.9-3.4-2.9c0.5-0.2,1.9-0.4,2.8-0.4
				c1.6,0,2.4,0.1,3.4,1.7l3.1,5c0.3-0.5,2.7-4.8,2.7-4.8c0.3-0.5,0.5-0.9,0.5-1.1c0-0.2-0.1-0.4-0.3-0.5h3.5
				C181.5,21.1,180.9,21.9,180.5,22.5z M189.6,33.5c0-3.1-7.4-3.8-7.4-8.8c0-3.1,2.9-4.1,5.5-4.1c1.2,0,2.8,0.2,3.9,0.6l0.2,3.1
				c-0.7-1.4-2.3-2.3-3.8-2.3c-1.2,0-2.4,0.6-2.4,2c0,3.2,7.5,4,7.5,8.8c0,3.4-3,4.9-6,4.9c-1.6,0-3.7-0.3-5.1-1.2
				c-0.1-0.5-0.1-1.1-0.1-1.7c0-0.7,0.1-1.3,0.2-2c0.8,1.9,2.6,3.4,4.7,3.4C188.4,36,189.6,35.3,189.6,33.5z"/>
		</g>
	</g>
	
		<linearGradient id="SVGID_1_" gradientUnits="userSpaceOnUse" x1="231.4937" y1="34.0411" x2="219.1578" y2="12.6749" gradientTransform="matrix(1 0 0 -1 0 40)">
		<stop  offset="0" style="stop-color:#E6EBEF"/>
		<stop  offset="7.640000e-02" style="stop-color:#BBCEE5"/>
		<stop  offset="0.1854" style="stop-color:#85A9D8"/>
		<stop  offset="0.2796" style="stop-color:#5D8FCF"/>
		<stop  offset="0.3543" style="stop-color:#457EC9"/>
		<stop  offset="0.4" style="stop-color:#3C78C7"/>
		<stop  offset="0.9" style="stop-color:#2E5C99"/>
	</linearGradient>
	<path class="st1" d="M235,9.3c-2.8,2.7-8.8,5.1-11.7,6.2c-4,1.5-5.8,2-8.1,2.8c-2.5,0.8-7.6,2.4-7.6,2.4c10.6,3.2,18,4.1,18,4.1
		s3.5-1.1,9-4c3-1.5,4.4-2.5,5.5-3.5c0.4-0.3,1.4-1.4,1.6-2.7c0-0.1,0.1-0.4,0.1-0.6c0,0,0-0.2,0-0.3c0-0.2,0-0.3,0-0.3
		s-0.1-0.3-0.1-0.5c-0.1-0.2-0.4-0.9-1-1.3c-0.4-0.3-1-1-3.3-1.9c-0.8-0.3-2.1-0.5-2.1-0.5L235,9.3z"/>
	<path class="st2" d="M241.8,13.9c0,0,0-0.3-0.1-0.5c-0.1-0.2-0.2-0.4-0.3-0.7c-0.2-0.3-0.4-0.6-0.8-0.9c-0.3-0.3-0.6-0.5-0.9-0.7
		c-1.4-0.9-3.3-1.5-4.9-1.7C232.2,9,229.2,9,229,9c-0.9,0-7,0-8.6,0.1c-6.9,0.1-15.4,0.2-17.7,0.2c-23,0.1-33-0.4-44.1-2.6
		C149.1,4.8,143.9,3,143.9,3c8.4-0.3,57.1-2.3,66-2.5c5.8-0.2,10-0.2,13.3,0c1.7,0.1,3.3,0.2,5.3,0.6c1.8,0.3,3.4,0.8,4.3,1.2
		c2,0.7,3.6,1.8,4.5,2.9c0,0,0.2,0.2,0.6,0.7c0.4,0.5,0.8,1.2,0.9,1.4c1.2,1.8,1.8,3,2,3.4c0.2,0.4,0.4,0.9,0.6,1.3
		c0.2,0.4,0.3,0.7,0.3,0.9c0.1,0.4,0.2,0.9,0.2,0.9L241.8,13.9z"/>
</g>
</svg>
