<svg version="1.1" id="Layer_1" xmlns="http://www.w3.org/2000/svg" xmlns:xlink="http://www.w3.org/1999/xlink" x="0px" y="0px" viewBox="0 0 209.5 35.1" style="enable-background:new 0 0 209.5 35.1;" xml:space="preserve">
 <style type="text/css">
  .st0{fill:#0062A9;}
 </style>
 <g>
  <path class="st0" d="M78.1,17l-2.4-5.3L73.4,17H78.1z M73.6,8.1H78c0.8,1.7,7.1,15.4,7.1,15.4h-4l-1.7-3.6h-7.3l-1.6,3.6h-4.1
		L73.6,8.1z">
  </path>
  <path class="st0" d="M125.8,11.5c-2.6,0-3.8,1.3-3.8,1.3l-0.2-1.1h-3.5c0.1,0.4,0.4,1.2,0.4,1.9v9.8h3.4v-6.8
		c0-1.8,1.1-2.8,3.7-2.8c1.4,0,2.3,0.5,2.3,2.8v6.8h3.4v-6.8C131.4,13.1,130.3,11.5,125.8,11.5">
  </path>
  <path class="st0" d="M137.6,16.4c0.2-1.4,0.9-2.5,3.6-2.5c2,0,2.7,1.3,2.8,2.5H137.6z M141.1,11.5c-5.8,0-7.1,2.7-7.1,6.1
		c0,3.4,1.3,6.1,7.4,6.1c2.2,0,4.3-0.4,4.8-0.5c0.1-0.6,0.3-1.9,0.4-2.3c-0.3,0-3,0.5-5.2,0.5c-2.8,0-3.6-1.1-3.8-2.6h9.8v-1.2
		C147.4,13.4,145.1,11.5,141.1,11.5">
  </path>
  <path class="st0" d="M25.9,21.4c-2.9,0-3.7-1.4-3.7-3.8c0-2.3,0.8-3.7,3.7-3.7c2.8,0,3.7,1.4,3.7,3.7C29.6,20,28.8,21.4,25.9,21.4
		 M25.9,11.5c-4.3,0-7.1,1.9-7.1,6.1c0,4.2,2.8,6.1,7.1,6.1c4.3,0,7.1-1.9,7.1-6.1C33,13.4,30.2,11.5,25.9,11.5">
  </path>
  <path class="st0" d="M60.4,19c0,2.2-2.1,2.4-4,2.4c-0.7,0-1.7-0.1-1.7-1.4c0-0.8,1.1-1.4,2.5-1.4h3.1V19z M63.8,15.3
		c0-2.4-2.5-3.8-6.2-3.8c-1.9,0-4.3,0.7-5.1,1c-0.1,0.5-0.3,2-0.4,2.4c0.7-0.2,3.6-1,5.5-1c1.9,0,2.8,0.6,2.8,1.6v1
		c0,0-2.3-0.2-3.1-0.2c-3.7,0-6,1.3-6,3.8c0,3.1,3.4,3.7,5.1,3.7c2.3,0,3.6-0.6,4.1-1.1l0.2,0.9h3.4c0-0.2-0.3-1-0.3-2.1V15.3z">
  </path>
  <path class="st0" d="M9.3,7.6c4,0,6.5,1.3,7.9,3.3l-3.6,1.4c-0.8-1.1-2.1-1.8-4.3-1.8H9.3c-2.1,0-3.4,0.7-4.2,1.7
		C4.4,13.1,4,14.2,4,15.6v0.2h0c0,1.3,0.4,2.5,1.1,3.4c0.8,1,2.1,1.7,4.2,1.7h0.1c2.1,0,3.4-0.7,4.2-1.8l3.6,1.4
		c-1.4,2-3.9,3.2-7.9,3.2h0c-3.5,0-5.9-0.9-7.3-2.5c-1.3-1.4-2-3.3-2-5.5v-0.1c0-2.1,0.7-4,2-5.4C3.4,8.6,5.8,7.6,9.3,7.6">
  </path>
  <path class="st0" d="M108.4,21.6V8.1H105v13.5c0,0.8,0.3,1.7,0.4,1.9h3.4C108.8,23.2,108.4,22.4,108.4,21.6">
  </path>
  <path class="st0" d="M97,16.6c0-1.8,1.3-2.8,3.7-2.8c0.4,0,1.9,0.2,2.6,0.3c0-0.3-0.3-1.8-0.4-2.4c-0.5-0.1-1.6-0.3-2.2-0.3
		c-2,0-3.1,0.7-3.7,1.3l-0.3-1.1h-3.4c0.1,0.2,0.4,1,0.4,1.8v9.9H97V16.6z">
  </path>
  <path class="st0" d="M42.7,21.4c-2.9,0-3.7-1.7-3.7-3.8c0.1-2.2,0.8-3.7,3.7-3.7c2.6,0,3.1,1.6,3.1,3.7
		C45.8,19.7,45.3,21.4,42.7,21.4 M42.7,11.5c-2.1,0-3.8,1.3-3.8,1.3s-0.2-0.7-0.3-1h-3.4c0.1,0.4,0.4,1.2,0.4,2.1v13.3H39v-4.6
		c0.7,0.5,2,1.2,3.7,1.2c5.7,0,6.5-2.7,6.5-6.1C49.2,14.3,48.4,11.5,42.7,11.5">
  </path>
  <path class="st0" d="M159.7,12.1v2.6c-0.7-0.4-1.4-0.6-2.1-0.8c-0.7-0.2-1.5-0.3-2.2-0.3c-0.8,0-1.4,0.1-1.8,0.3
		c-0.4,0.2-0.6,0.5-0.6,0.9c0,0.6,0.9,1,2.7,1.3l0.1,0l1,0.2c1.3,0.3,2.3,0.7,2.9,1.3c0.6,0.6,0.9,1.4,0.9,2.4
		c0,1.2-0.5,2.1-1.4,2.7c-0.9,0.6-2.3,0.9-4.2,0.9c-0.8,0-1.7-0.1-2.6-0.2c-0.9-0.1-1.8-0.3-2.7-0.5v-2.7c0.8,0.4,1.6,0.7,2.4,0.9
		c0.8,0.2,1.6,0.3,2.4,0.3c0.8,0,1.5-0.1,1.9-0.3c0.4-0.2,0.7-0.5,0.7-0.9c0-0.4-0.2-0.7-0.5-0.9c-0.3-0.2-1.1-0.4-2.2-0.7l-1-0.2
		c-1.4-0.2-2.4-0.7-3-1.2c-0.6-0.6-1-1.3-1-2.2c0-1.1,0.5-2,1.4-2.6c1-0.6,2.3-0.9,4.1-0.9c0.8,0,1.6,0.1,2.4,0.2
		C158.2,11.8,158.9,11.9,159.7,12.1">
  </path>
  <path class="st0" d="M113.6,10.8c0.7,0,1.2-0.1,1.5-0.3c0.3-0.2,0.4-0.6,0.4-1.1c0-0.5-0.1-0.9-0.4-1.1c-0.3-0.2-0.8-0.3-1.5-0.3
		c-0.7,0-1.3,0.1-1.5,0.3c-0.3,0.2-0.4,0.6-0.4,1.1c0,0.5,0.1,0.9,0.4,1.1C112.3,10.7,112.8,10.8,113.6,10.8 M115.3,21.6v-9.9h-3.4
		v9.9c0,0.9,0.3,1.7,0.4,1.9h3.4C115.6,23.2,115.3,22.4,115.3,21.6">
  </path>
  <path class="st0" d="M88.5,10.8c0.7,0,1.2-0.1,1.5-0.3c0.3-0.2,0.4-0.6,0.4-1.1c0-0.5-0.1-0.9-0.4-1.1c-0.3-0.2-0.8-0.3-1.5-0.3
		c-0.8,0-1.3,0.1-1.5,0.3c-0.3,0.2-0.4,0.6-0.4,1.1c0,0.5,0.1,0.9,0.4,1.1C87.3,10.7,87.8,10.8,88.5,10.8 M90.2,21.6v-9.9h-3.4v9.9
		c0,0.9,0.3,1.7,0.4,1.9h3.4C90.5,23.2,90.2,22.4,90.2,21.6">
  </path>
  <path class="st0" d="M207.4,32.9h-0.3v-0.6h0.6c0.2,0,0.5,0,0.5,0.3C208.2,33,207.7,32.9,207.4,32.9 M208.5,32.6
		c0-0.5-0.4-0.6-0.8-0.6h-0.9v2.2h0.3v-1h0.3l0.6,1h0.4l-0.6-1C208.2,33.2,208.5,33.1,208.5,32.6">
  </path>
  <path class="st0" d="M207.5,34.8c-0.9,0-1.7-0.7-1.7-1.6c0-0.9,0.8-1.7,1.7-1.7c0.9,0,1.7,0.7,1.7,1.7
		C209.2,34.1,208.4,34.8,207.5,34.8 M207.5,31.2c-1.1,0-2,0.8-2,1.9c0,1.1,0.9,2,2,2c1.1,0,2-0.9,2-2
		C209.5,32.1,208.6,31.2,207.5,31.2">
  </path>
  <path class="st0" d="M166.5,15.4v1.1c3.8-1.5,7.5-2.4,11.2-2.9C174.3,13.5,170.4,14.1,166.5,15.4">
  </path>
  <path class="st0" d="M187,16.5c-0.9-0.6-1.8-1.2-3-1.7c0.4,0,0.8-0.1,1.3-0.1c0.7,0.5,1.8,1.3,2.4,2L187,16.5z M178.8,11.9
		c-0.9-0.3-2-0.6-3.1-0.7c0.5-0.1,0.9-0.2,1.5-0.3c0.8,0.2,1.8,0.6,2.7,1.2L178.8,11.9z M166.5,9.5c1,0,2.2,0.3,3.4,0.5l-2.2,0.3
		c-0.4,0-0.8,0.1-1.2,0.1v0.5c1.6-0.3,3.3-0.5,5-0.5c14.2-3.4,25.9-0.2,25.9-0.2c-2.5-0.6-16.6-2.5-30.9,3.1v0.9
		c2.1-0.7,4.4-1.3,6.5-1.5c3.2-0.4,6.1-0.2,8.6,0.5c10.5-0.8,18.1,1.5,18.1,1.5c-2.9-0.5-18.2-2.6-33.2,4.3v0.7
		c4.2-2,8.6-3.2,12.3-3.4c3.8-0.2,7.2,0.3,9.7,1.9c6-0.1,10.6,0.7,13.1,1.3V0h-35.1V9.5z">
  </path>
  <path class="st0" d="M166.5,21.1v2.1c6.2-3,12.5-4.4,17.9-4.9C179.4,17.4,173,18.3,166.5,21.1">
  </path>
  <path class="st0" d="M193.5,23.6c-1.1-1.6-2.4-2.8-4.3-3.7c0.6-0.1,1.3-0.1,1.8-0.1c0.2,0.1,0.4,0.3,0.5,0.5
		c0.1,0.1,2.1,2.2,2.8,4.2L193.5,23.6z M166.5,26.1v0.9c0.4-0.2,0.8-0.5,1.2-0.7c3.2-1.7,6.3-2.9,9.5-3.6c3-0.7,5.9-1,8.6-0.7
		c5.1,0.5,8.7,2.7,10.4,6.5c0,0,1.3,2.8,1.4,5.5l-0.6-1.5c-0.2-0.8-0.4-1.5-0.8-2.2c-1.3-2.5-3.8-4.3-7.2-5.4c-3.1-1-7.1-1-11.4-0.2
		c-3.7,0.7-7.5,2.1-11.2,3.9v6.7h0.4c2.2-1.6,4.5-2.8,7-3.8c6.4-2.8,12.6-3.6,17.3-2.3c3.4,1,5.7,3,6.6,6.1h4V19.7
		C195.9,19.1,180.6,18,166.5,26.1">
  </path>
  <path class="st0" d="M190.4,31.5c-3-0.8-6.6-0.9-10.4-0.1c-3.5,0.6-7.1,1.8-10.6,3.8H196C194.8,33.3,192.8,32.2,190.4,31.5">
  </path>
 </g>
</svg>