<?xml version="1.0" encoding="utf-8"?>
<!-- Generator: Adobe Illustrator 27.9.0, SVG Export Plug-In . SVG Version: 6.00 Build 0)  -->
<svg version="1.1" id="Camada_1" xmlns="http://www.w3.org/2000/svg" xmlns:xlink="http://www.w3.org/1999/xlink" x="0px" y="0px"
	 viewBox="0 0 1123.8 458.7" style="enable-background:new 0 0 1123.8 458.7;" xml:space="preserve">
<style type="text/css">
	.st0{opacity:0.25;fill:#37322D;enable-background:new    ;}
	.st1{fill:#FF7020;}
</style>
<g id="Logo">
	<path class="st0" d="M660.8,2.4c-14.1,0-28.1,1.3-41.9,3.9c105.2,19.7,184.9,104,184.9,214.9c0,79-64,151-143,151
		s-143-64-143.1-142.9c0-62.9,41-118.4,101.2-136.8c-13.6-4.1-27.7-6.2-41.9-6.2c-79,0-143,72-143,151
		c0,110.9,79.7,195.3,184.9,214.9c13.8,2.6,27.9,3.9,42,3.9c97.1,0,180-61,212.3-146.9V149.3C840.7,63.5,757.9,2.4,660.8,2.4z"/>
	<path class="st1" d="M618.9,6.3c-13.8-2.6-27.8-3.9-41.9-3.9C468.2,2.4,377.3,79,355.3,181.2c-0.8,3.5-3.8,5.9-7.4,5.9H237.5
		c-4.2,0-7.6,3.4-7.6,7.5l0,0v68.6c0,4.2,3.4,7.6,7.6,7.6h96.9c4.2,0,7.6,3.4,7.6,7.6v34c0,3.6-1.3,7.1-3.7,9.9
		c-51.5,59.8-141.7,66.6-201.6,15.1s-66.6-141.7-15.1-201.6c42.2-49,111.9-63.6,170.2-35.6c3.5,1.8,7.8,0.5,9.9-2.9l35.2-59.2
		c2.1-3.6,1-8.2-2.6-10.4c-0.1-0.1-0.2-0.1-0.4-0.2c-32.1-16.6-67.8-25.3-104-25.2C104.7,2.4,3.2,104,3.2,229.2S104.7,456,230,456
		c64,0.1,124.9-26.9,167.9-74.3c2.8-3.1,7.6-3.3,10.7-0.5c0.2,0.2,0.4,0.3,0.5,0.5c53,58.3,132.4,84.9,209.8,70.5
		C513.7,432.6,434,348.2,434,237.3c0-79,64-151,143-151s143,64,143,143c0,62.9-41,118.3-101.1,136.8c13.6,4.2,27.7,6.3,41.9,6.2
		c79,0,143-72,143-151C803.7,110.3,724.1,26,618.9,6.3z M1113,365.8H964.3c-4.2,0-7.6-3.4-7.6-7.6V16.5c0-4.2-3.4-7.6-7.5-7.6l0,0
		h-68.6c-4.2,0-7.6,3.4-7.6,7.6v417.9c0,8.4,6.8,15.1,15.1,15.1H1113c4.2,0,7.6-3.4,7.6-7.6v-68.6
		C1120.6,369.2,1117.2,365.8,1113,365.8z"/>
</g>
</svg>
