<?xml version="1.0" encoding="utf-8"?>
<!-- Generator: Adobe Illustrator 27.9.0, SVG Export Plug-In . SVG Version: 6.00 Build 0)  -->
<svg version="1.1"
	 id="Layer_1" xmlns:svg="http://www.w3.org/2000/svg" xmlns:dc="http://purl.org/dc/elements/1.1/" xmlns:inkscape="http://www.inkscape.org/namespaces/inkscape" xmlns:rdf="http://www.w3.org/1999/02/22-rdf-syntax-ns#" xmlns:sodipodi="http://sodipodi.sourceforge.net/DTD/sodipodi-0.dtd" xmlns:cc="http://creativecommons.org/ns#" inkscape:version="0.48.1 "
	 xmlns="http://www.w3.org/2000/svg" xmlns:xlink="http://www.w3.org/1999/xlink" x="0px" y="0px" viewBox="0 0 584.8 196.1"
	 style="enable-background:new 0 0 584.8 196.1;" xml:space="preserve">
<style type="text/css">
	.st0{fill:#003876;}
</style>
<sodipodi:namedview  bordercolor="#666666" borderopacity="1" fit-margin-bottom="0" fit-margin-left="0" fit-margin-right="0" fit-margin-top="0" gridtolerance="10" guidetolerance="10" id="namedview37" inkscape:current-layer="Layer_1" inkscape:cx="358.12937" inkscape:cy="36.629003" inkscape:pageopacity="0" inkscape:pageshadow="2" inkscape:window-height="1004" inkscape:window-maximized="1" inkscape:window-width="1280" inkscape:window-x="-8" inkscape:window-y="-8" inkscape:zoom="1.3855368" objecttolerance="10" pagecolor="#ffffff" showgrid="false">
	</sodipodi:namedview>
<path id="path19" inkscape:connector-curvature="0" class="st0" d="M18.9,45h22.4v119.9c0,18.6-13.6,31.2-32.5,31.2H0V175h6.4
	c7.7,0,12.5-3.5,12.5-11.9V45L18.9,45L18.9,45z M18.9,0h22.4v22.4H18.9V0L18.9,0z"/>
<path id="path21" inkscape:connector-curvature="0" class="st0" d="M78.1,90.6c0.4-16.9,10.3-25.9,23.5-25.9
	c13.2,0,22.8,9,23.5,25.9H78.1L78.1,90.6L78.1,90.6z M147.4,109V90.6c0-28.7-21.3-47-45.8-47c-21.5,0-45.9,14-45.9,57.3
	c0,45.6,26.5,56.6,49.4,56.6c14.9,0,29.2-5.3,40.1-18L129,125.7c-6.6,6.8-15.8,10.7-24.4,10.7c-15.4,0-26.6-9.2-26.6-27.4L147.4,109
	L147.4,109z"/>
<path id="path23" inkscape:connector-curvature="0" class="st0" d="M165.1,11.2h22.4V45h16.2v17.1h-16.2v64.7c0,6.1,2.4,8.3,7.9,8.3
	h8.3v21.1h-11.6c-15.6,0-27-9.9-27-27.4V62.1h-11.2V45h11.2V11.2L165.1,11.2L165.1,11.2z"/>
<path id="path25" inkscape:connector-curvature="0" class="st0" d="M278.1,86.9c17.5,0,25.4,11.2,25.4,23.5
	c0,12.3-7.9,23.5-25.4,23.5h-36.4v-47H278.1L278.1,86.9L278.1,86.9z M218,156.2h65.8c23.5,0,43.4-17.3,43.4-44.3
	c0-15.8-8.3-32-25.4-36v-0.4c18.2-8.1,23-20.6,23-33.6c0-24.6-15.8-41.9-46.3-41.9H218V156.2L218,156.2L218,156.2L218,156.2z
	 M275.9,21.1c17.1,0,25.2,10.3,25.2,22.4c0,12.3-8.1,22.4-25.2,22.4h-34.2V21.1H275.9L275.9,21.1z"/>
<path id="path27" inkscape:connector-curvature="0" class="st0" d="M340.1,0h22.4v127.5c0,5,2.9,7.7,8.4,7.7h7.7v21.1h-9.9
	c-16.2,0-28.5-7-28.5-27V0L340.1,0L340.1,0z"/>
<path id="path29" inkscape:connector-curvature="0" class="st0" d="M388,45h22.4v66.3c0,15.2,9.4,23.9,22.2,23.9
	c12.5,0,21.9-8.8,21.9-23.9V45h22.4v111.2h-22.4v-11.9H454c-7,8.8-17.1,13.2-28.8,13.2c-17.5,0-37.3-13.4-37.3-38.6V45L388,45z"/>
<path id="path31" inkscape:connector-curvature="0" class="st0" d="M511.3,90.6c0.5-16.9,10.3-25.9,23.5-25.9
	c13.2,0,22.8,9,23.5,25.9H511.3L511.3,90.6L511.3,90.6z M580.6,109V90.6c0-28.7-21.3-47-45.9-47c-21.5,0-45.9,14-45.9,57.3
	c0,45.6,26.6,56.6,49.4,56.6c14.9,0,29.2-5.3,40.2-18l-16.2-13.8c-6.6,6.8-15.8,10.7-24.3,10.7c-15.4,0-26.6-9.2-26.6-27.4
	L580.6,109L580.6,109L580.6,109z"/>
</svg>
