<?xml version="1.0" encoding="utf-8"?>
<!-- Generator: Adobe Illustrator 27.9.0, SVG Export Plug-In . SVG Version: 6.00 Build 0)  -->
<svg version="1.1" id="Layer_1" xmlns="http://www.w3.org/2000/svg" xmlns:xlink="http://www.w3.org/1999/xlink" x="0px" y="0px"
	 viewBox="0 0 350 203.5" style="enable-background:new 0 0 350 203.5;" xml:space="preserve">
<style type="text/css">
	.st0{fill:#FFFFFF;}
</style>
<g>
	<path class="st0" d="M109.2,96.4c-0.3-7.6-0.2-15.3-0.1-22.9c44,0.1,87.9,0,131.9,0.1c0,7.6,0,15.2,0,22.8
		C197.1,96.3,153.1,96.2,109.2,96.4z M168.8,0h11c0.1,3.7,0.1,7.4,0.1,11.2c3.7,0,7.4,0,11,0c0,3.7,0,7.3-0.1,11
		c-3.6,0-7.3,0-10.9,0c0,3.6,0,7.2,0,10.8c-3.6,0.2-7.2,0.2-10.9,0.2c0-3.7,0-7.3,0-11c-3.7,0-7.4,0-11,0c-0.1-3.6-0.1-7.3-0.1-11
		c3.7,0,7.4,0,11.1,0C168.9,7.5,169.2,3.7,168.8,0L168.8,0z M260,49.6c0,10.6-8.6,19.1-19.1,19.1l0,0c-10.6,0-19.1-8.6-19.1-19.1
		s8.6-19.1,19.1-19.1S260,39,260,49.6z M216.1,49.6c0,10.6-8.6,19.1-19.1,19.1l0,0c-10.6,0-19.1-8.6-19.1-19.1s8.6-19.1,19.1-19.1
		S216.1,39,216.1,49.6z M172.1,49.6c0,10.6-8.6,19.1-19.1,19.1l0,0c-10.6,0-19.1-8.6-19.1-19.1s8.6-19.1,19.1-19.1
		S172.1,39,172.1,49.6z M128.2,49.6c0,10.6-8.6,19.1-19.1,19.1l0,0c-10.6,0-19.1-8.6-19.1-19.1l0,0c0-10.6,8.6-19.1,19.1-19.1
		S128.2,39,128.2,49.6z"/>
	<path class="st0" d="M206.6,115.8c18.3-0.1,36.6,0.1,54.8-0.1c5.8,15.7,10.8,31.6,16.3,47.5c0.5-0.7,1.1-1.3,1.3-2.1
		c5.2-15.1,10.5-30.1,15.8-45.2c18.4,0,36.8,0,55.1,0v87.7c-11.2,0.1-22.5,0.1-33.8,0.1c0-20.2,0.1-40.4-0.1-60.6
		c-1.6,0.9-1.7,2.9-2.4,4.4c-6.5,18.8-13.2,37.4-19.8,56.2c-10.6,0-21.2,0.1-31.7-0.1c-6.6-19.2-13.5-38.2-20.2-57.4
		c-0.2-1.1-0.8-1.9-1.8-2.4c0,19.9,0,39.9,0,59.8c-11.2,0-22.5,0-33.7,0C206.6,174.2,206.6,145,206.6,115.8z M0,115.8
		c11.1,0,22.2,0,33.3,0c0,10.6,0,21.3,0,31.9c11-10.5,21.8-21.3,32.8-31.9c11.2,0,22.4,0,33.6,0c-12.9,13.1-26.2,25.9-39,39.1
		c16.1,15.6,31.7,31.9,48,47.3c0.1-28.8,0-57.6,0.1-86.4c11.3,0,22.7,0,34.1,0c0,21.9,0,43.7,0,65.6c18.1-0.1,36.2,0.1,54.4-0.1
		c0.2,7.4,0,14.8,0.1,22.2c-44.1,0-88.1,0-132.2,0c-10.4-10.6-21-21-31.5-31.5c-0.2,10.5,0,21-0.1,31.5c-11.2-0.1-22.4,0-33.6-0.1
		L0,115.8z"/>
</g>
</svg>
