<?xml version="1.0" encoding="utf-8"?>
<!-- Generator: Adobe Illustrator 27.9.0, SVG Export Plug-In . SVG Version: 6.00 Build 0)  -->
<svg version="1.1"
	 id="svg26389" xmlns:dc="http://purl.org/dc/elements/1.1/" xmlns:rdf="http://www.w3.org/1999/02/22-rdf-syntax-ns#" xmlns:cc="http://creativecommons.org/ns#"
	 xmlns="http://www.w3.org/2000/svg" xmlns:xlink="http://www.w3.org/1999/xlink" x="0px" y="0px" viewBox="0 0 2670 630"
	 style="enable-background:new 0 0 2670 630;" xml:space="preserve">
<style type="text/css">
	.st0{fill-rule:evenodd;clip-rule:evenodd;fill:#FFFFFF;}
	.st1{fill-rule:evenodd;clip-rule:evenodd;fill:#ED1651;}
</style>
<g id="layer5" transform="translate(580 -582.36)">
	<g>
		<path id="path27116" class="st0" d="M1555.9,1052.4l80.2-310h88.7c0,0,22.5-2.2,34.1,7s14.8,23.3,14.8,23.3l48.2,150l62.9-180.3
			h85.8c0,0,21.3,0,32.4,8.7s14.4,21.7,14.4,21.7l70.3,279.7h-83.3L1941.5,814l-66,181.7h-88.3c0,0-10.6,1-20.8-5.8
			c-10.2-6.9-10.5-13.2-10.5-13.2L1702.2,814l-61.7,238.4L1555.9,1052.4z"/>
		<path id="path27065" class="st0" d="M729.7,742.4v61.8l148.8,10v238.2h86V814.2l148.8-10v-61.8L729.7,742.4z"/>
		<path id="path27022" class="st0" d="M482.3,742.4l-155,310h95.3l27.1-57h172.8l26.5,57h94.7l-147-289.7c0,0-4.8-10.7-13.1-15.4
			c-8.3-4.8-17.1-4.9-17.1-4.9L482.3,742.4L482.3,742.4z M535,809.3l57,123.1H477.1L535,809.3L535,809.3z"/>
		<path id="path26992" class="st0" d="M0,742.4v310h261.7l35.7-71.3H89.7V742.4L0,742.4z"/>
		<path id="path27070" class="st0" d="M1255.3,742.4l-155,310h95.3l27.1-57h172.8l26.5,57h94.7l-147.1-289.7c0,0-4.8-10.7-13.1-15.4
			c-8.3-4.8-17.1-4.9-17.1-4.9L1255.3,742.4L1255.3,742.4z M1307.9,809.3l57,123.1h-114.8L1307.9,809.3L1307.9,809.3z"/>
	</g>
	<g>
		<path id="path27278" class="st1" d="M-532.7,842l68.8-19.6c0,0-0.7-4.6-3.2-6.8s-6.9-3.6-6.9-3.6l-95.6-34.7c0,0-3-1-5.3,0.2
			s-2.1,4.4-2.1,4.4v44.5c0,0-0.2,4.3,5.9,13.8c6.2,9.5,20.8,7.1,20.8,7.1L-532.7,842z"/>
		<path id="path27260" class="st1" d="M-258.9,734.7l64-35.8c0,0,1-6.2-1.5-8.4s-5.4-2.9-5.4-2.9l-276.3-98.6c0,0-3-1-5.3,0.2
			s-2.1,4.4-2.1,4.4v38.3c0,0,0,8.9,6.1,18.4c6.2,9.5,16.2,12,16.2,12L-258.9,734.7z"/>
		<path id="path27258" class="st1" d="M-258.9,846.3l64-33.1c0,0,1.4-8.4-1.1-10.6c-2.5-2.3-5.8-3.4-5.8-3.4l-367.8-133.6
			c0,0-3-1-5.3,0.2s-2.1,4.4-2.1,4.4v38.3c0,0,0,8.9,6.1,18.4c6.2,9.5,16.2,12,16.2,12L-258.9,846.3z"/>
	</g>
	<g>
		<path id="path27194" class="st0" d="M-201.8,687.5c0,0,3.7,0.6,6.9,3.6s3.2,6.8,3.2,6.8v50.8c0,0-0.2,6.9-3,13.2
			c-2.8,6.2-7,7.7-7,7.7l-8.7,3.1l-276.2,100.3c0,0-1.3,0.4-3.1,0.4s-3.1-0.4-3.1-0.4l-76.9-27.9c0,0-1.9-0.4-4.6-4.7
			c-3-4.8-2.8-14.2-2.8-14.2s0.5,4.8,3.2,7.1s10-0.2,10-0.2l353.4-128.4c0,0,14-5.7,14-11.5C-196.3,689.2-201.8,687.5-201.8,687.5
			L-201.8,687.5z"/>
		<path id="path27140" class="st0" d="M-201.8,799c0,0,3.7,0.6,6.9,3.6s3.2,6.8,3.2,6.8v50.8c0,0-0.2,6.9-3,13.2
			c-2.8,6.2-7,7.7-7,7.7l-8.7,3.1l-276.2,100.3v-68l276.2-100.3c0,0,14-5.7,14-11.5C-196.3,800.8-201.8,799-201.8,799L-201.8,799z"
			/>
		<path id="path27142" class="st0" d="M-338.9,977.7c2.6,2.6,2.6,8.5,2.6,8.5v38c0,0-0.2,6.9-3,13.2s-7,7.7-7,7.7l-8.7,3.1
			l-131.6,47.8v-68l131.6-47.8C-354.9,980.1-341.5,975-338.9,977.7L-338.9,977.7z"/>
		<path id="path27168" class="st0" d="M-423.8,1119.6c2.6,2.6,2.6,8.5,2.6,8.5v38c0,0-0.2,6.9-3,13.2s-7,7.7-7,7.7l-8.7,3.1
			l-46.7,17.8v-68l46.7-17.8C-439.8,1122-426.4,1117-423.8,1119.6L-423.8,1119.6z"/>
	</g>
</g>
</svg>
