<?xml version="1.0" encoding="utf-8"?>
<!-- Generator: Adobe Illustrator 27.9.0, SVG Export Plug-In . SVG Version: 6.00 Build 0)  -->
<svg version="1.1" id="Layer_1" xmlns:serif="http://www.serif.com/"
	 xmlns="http://www.w3.org/2000/svg" xmlns:xlink="http://www.w3.org/1999/xlink" x="0px" y="0px" viewBox="0 0 223.3 41.3"
	 style="enable-background:new 0 0 223.3 41.3;" xml:space="preserve">
<style type="text/css">
	.st0{fill:#FFFFFF;}
</style>
<g id="path22" transform="matrix(1.33333,0,0,-1.33333,402.827,236.545)">
	<path class="st0" d="M-280.8,164.8c-0.1,0-0.2,0-0.3,0c-0.1-0.1-0.2-0.3-0.3-0.5c2.2,0,4.2-0.2,6.4-0.6l-0.6-0.6
		c-2,0.4-3.6,0.5-5.8,0.5c-0.3,0-0.4,0-0.4,0c-0.1-0.1-0.2-0.3-0.4-0.5c0.2,0,0.5,0,1,0c1.7,0,3.4-0.1,5.1-0.4l-0.6-0.6
		c-1.3,0.2-3,0.3-4.4,0.3c-0.5,0-1.1,0-1.6,0c-0.1-0.1-0.4-0.5-0.5-0.6c0.7,0.1,1.5,0.1,2.4,0.1c1.3,0,2.6-0.1,3.7-0.3l-0.6-0.6
		c-0.8,0.1-1.9,0.2-2.8,0.2c-2.3,0-4.2-0.5-6.1-1.7c1.8-1.9,4.8-3.2,7.7-3.2h0.3l-1-1c-4.2,0.8-8.5,2.6-12.2,5.1
		c-3.5,2.4-4.8,3.1-7.6,4.3l0,0.7l1.9-0.8l0.6,0.5l6.1-2.8l-0.4-0.3l-3.1,1.4l-0.3-0.2l1.6-0.9c1.4-0.8,2.4-1.1,3.4-1.1
		c2.1,0,4,1.5,5.2,4.1c0.9,0.1,1.9,0.2,3.1,0.2c2.4,0,4.8-0.2,7.5-0.7l-0.7-0.6C-276.2,164.5-279,164.8-280.8,164.8 M-286.8,147.4
		c-8,0-14.4,6.5-14.4,14.4s6.5,14.4,14.4,14.4s14.4-6.5,14.4-14.4S-278.8,147.4-286.8,147.4 M-286.8,177.1
		c-8.5,0-15.3-6.9-15.3-15.3c0-8.5,6.9-15.3,15.3-15.3c8.5,0,15.3,6.9,15.3,15.3C-271.4,170.3-278.3,177.1-286.8,177.1
		 M-258.3,155.7h8.8v-4.1H-263V172h4.7V155.7z M-238.8,166.3h4.4v-14.7h-4.1v1.7c-0.6-1.1-1.9-2.1-4.2-2.1c-3.8,0-5.7,1.7-5.7,6.5
		v8.6h4.4v-8.4c0-2,0.8-2.8,2.6-2.8c1.6,0,2.6,0.9,2.6,2.8V166.3z M-231,166.8c0,3.6,2.3,5.5,5.8,5.5c1.1,0,1.9-0.2,1.9-0.2v-3.6
		c0,0-0.6,0.1-1.1,0.1c-1.4,0-2.1-0.5-2.1-1.8v-0.6h3.2v-3.6h-3.2v-11.1h-4.4v11.1h-2.2v3.6h2.2V166.8 M-215.6,166.3h3.4v-3.6h-3.4
		V157c0-1.6,0.8-2,2.1-2c0.5,0,1.3,0.1,1.3,0.1v-3.5c0,0-1-0.2-2.1-0.2c-3.5,0-5.7,1.6-5.7,5.2v6.2h-2.2v3.6h2.2v4.3h4.4V166.3z
		 M-202.5,166.7c3.7,0,5.7-1.7,5.7-6.5v-8.6h-4.4v8.4c0,2-0.8,2.8-2.7,2.8c-1.7,0-2.7-0.9-2.7-2.8v-8.4h-4.4V172h4.4v-7.1
		C-205.7,165.9-204.5,166.7-202.5,166.7 M-185.5,157.3c0-1.6-1.5-2.8-3.9-2.8c-1.1,0-1.8,0.5-1.8,1.5c0,0.8,0.5,1.4,2,1.6l2.5,0.4
		c0.4,0.1,0.9,0.1,1.2,0.2V157.3z M-188,166.7c-4.4,0-6.5-1.7-6.6-4.8h4.3c0.1,0.8,0.5,1.4,2.3,1.4c1.6,0,2.4-0.5,2.4-1.3
		c0-0.7-0.4-1-1.5-1.1l-2.8-0.3c-3.8-0.4-5.5-2-5.5-4.9c0-2.7,1.6-4.7,5.1-4.7c2.4,0,3.8,0.8,5,2.3v-1.8h4v9.7
		C-181.3,165.3-183.7,166.7-188,166.7 M-171.1,166.7c3.8,0,5.8-1.7,5.8-6.5v-8.6h-4.4v8.4c0,2-0.8,2.8-2.7,2.8
		c-1.7,0-2.7-0.9-2.7-2.8v-8.4h-4.4v14.7h4.1v-1.7C-174.7,165.7-173.5,166.7-171.1,166.7 M-156,160.8c3.7-0.5,5.6-1.7,5.6-4.7
		c0-3.1-2.2-4.9-6.8-4.9c-5.1,0-6.8,2-6.9,5h4.4c0.1-1.1,0.9-1.6,2.6-1.6c1.7,0,2.4,0.4,2.4,1.2c0,0.8-0.6,1.1-2.1,1.3l-1.5,0.2
		c-3.2,0.4-5.1,1.7-5.1,4.6c0,2.8,2.1,4.9,6.4,4.9c4,0,6.2-1.6,6.4-4.8h-4.3c-0.1,0.8-0.6,1.4-2.1,1.4c-1.5,0-2-0.5-2-1.1
		c0-0.6,0.4-1,1.6-1.2L-156,160.8 M-139.4,157.3c0-1.6-1.5-2.8-3.9-2.8c-1.1,0-1.8,0.5-1.8,1.5c0,0.8,0.5,1.4,2,1.6l2.5,0.4
		c0.4,0.1,0.9,0.1,1.2,0.2V157.3z M-141.8,166.7c-4.4,0-6.5-1.7-6.6-4.8h4.3c0.1,0.8,0.5,1.4,2.3,1.4c1.6,0,2.4-0.5,2.4-1.3
		c0-0.7-0.4-1-1.5-1.1l-2.8-0.3c-3.8-0.4-5.5-2-5.5-4.9c0-2.7,1.6-4.7,5.1-4.7c2.4,0,3.8,0.8,5,2.3v-1.8h4v9.7
		C-135.1,165.3-137.5,166.7-141.8,166.7"/>
</g>
</svg>
