<?xml version="1.0" encoding="utf-8"?>
<!-- Generator: Adobe Illustrator 27.9.0, SVG Export Plug-In . SVG Version: 6.00 Build 0)  -->
<svg version="1.1"
	 id="svg16" xmlns:svg="http://www.w3.org/2000/svg" xmlns:sodipodi="http://sodipodi.sourceforge.net/DTD/sodipodi-0.dtd" xmlns:inkscape="http://www.inkscape.org/namespaces/inkscape" xmlns:dc="http://purl.org/dc/elements/1.1/" xmlns:cc="http://creativecommons.org/ns#" xmlns:rdf="http://www.w3.org/1999/02/22-rdf-syntax-ns#" inkscape:version="1.1 (c68e22c387, 2021-05-23)" sodipodi:docname="OnlyFans_text.svg"
	 xmlns="http://www.w3.org/2000/svg" xmlns:xlink="http://www.w3.org/1999/xlink" x="0px" y="0px" viewBox="0 0 100 35"
	 style="enable-background:new 0 0 100 35;" xml:space="preserve">
<style type="text/css">
	.st0{fill:#FFFFFF;}
	.st1{fill:#5C0632;}
</style>
<sodipodi:namedview  bordercolor="#666666" borderopacity="1" gridtolerance="10" guidetolerance="10" height="35px" id="namedview18" inkscape:current-layer="g851" inkscape:cx="58.687503" inkscape:cy="8.7500004" inkscape:pagecheckerboard="1" inkscape:pageopacity="0" inkscape:pageshadow="2" inkscape:showpageshadow="false" inkscape:window-height="878" inkscape:window-maximized="1" inkscape:window-width="1600" inkscape:window-x="-8" inkscape:window-y="-8" inkscape:zoom="7.9999996" objecttolerance="10" pagecolor="#ffffff" showgrid="false">
	</sodipodi:namedview>
<g id="g851" transform="matrix(0.19488325,0,0,0.19488325,11.238751,-50.963878)">
	<g id="g108" transform="matrix(0.49897532,0,0,0.49897532,85.175158,225.42598)">
		<path id="path105" class="st0" d="M-13.3,330.7c-2.5,8.6-8.6,22.2-19.2,45.9l-12.2,27c1.5-0.2,2.9-0.6,4.7-0.6
			c1.7,0,3.7,0.4,5,0.6c1.7-6,5-14.7,8.4-22.7c4.2-0.2,8.4-0.4,12.6-0.4c4.5,0,8.9,0.2,13.4,0.4L3.8,392l4.4,11.6
			c1.9-0.1,4.8-0.6,7.7-0.6c2.9,0,6.6,0.5,8.2,0.6c-4.7-10.2-11.6-26-15.6-35.1c-3.8-8.8-10.1-23.4-15.1-37.8
			c-1.2,0.3-2.2,0.5-3.3,0.5C-11.1,331.3-12.2,331-13.3,330.7z M246.2,330.7c-2.5,8.6-8.6,22.2-19.2,45.9l-12.1,27
			c1.5-0.2,2.9-0.6,4.7-0.6c1.7,0,3.7,0.4,5,0.6c1.7-6,5-14.7,8.4-22.7c4.2-0.2,8.4-0.4,12.6-0.4c4.5,0,8.9,0.2,13.4,0.4l4.4,11.1
			l4.4,11.6c1.9-0.1,4.8-0.6,7.8-0.6c2.9,0,6.6,0.5,8.2,0.6c-4.7-10.2-11.6-26-15.6-35.1c-3.8-8.8-10.1-23.4-15.1-37.8
			c-1.2,0.3-2.2,0.5-3.4,0.5C248.4,331.3,247.3,331,246.2,330.7z M366.4,330.9c-19,0-24.4,11.7-24.4,20.9c0,8.7,3,14.1,13.2,18.6
			c2.9,1.3,7.9,3.1,10.8,4.4c2,0.8,8.6,3.8,8.6,12c0,7.5-5.5,13.1-13.7,13.1c-6.2,0-11.4-1.6-16.2-12h-1.5c-0.5,5-0.6,6.4-2.4,11.8
			c3.8,1.9,10.6,5.4,19.6,5.4c19.2,0,26.6-12.2,26.6-22.9c0-2.9-0.7-9.1-5.1-13.8c-3-3.4-6.2-4.5-14.3-7.6
			c-9.2-3.6-14.6-5.7-14.6-13.3c0-6.2,4.1-11.3,12.4-11.3c6.6,0,12.2,3.2,13.7,9.1h1.5c0.9-4,1.2-4.8,3.2-10
			C378.6,332.9,374,330.9,366.4,330.9z M32.3,331.8c1,10.1,1.1,17.6,1.1,24.2c0,17.9,0,35.2-1.2,47.7c2.3-0.1,5.2-0.6,7.5-0.6
			c2.4,0,4.9,0.5,7.3,0.6c-0.8-8.5-1-19.8-1-35.4c0-10.6,0-28.7,1.2-36.5c-2.5,0.3-5.1,0.6-7.4,0.6C38.2,332.4,34.3,332,32.3,331.8z
			 M64.9,331.8c0.7,13.5,0.7,15,0.7,28.7c0,20.2-0.1,22.5-0.9,43.2c2.3-0.3,4.8-0.6,7.2-0.6c2.6,0,4.9,0.4,7,0.6
			c0-2.7-0.4-16.2-0.4-19.3v-14.9H81c5.7,8,12.1,17.2,17.5,25.5c1.6,2.4,3.9,6.3,5.5,8.7c3.1-0.4,4.4-0.6,8.5-0.6
			c3.8,0,6.4,0.3,9.3,0.6c-6.6-8.3-9.4-11.9-17.7-23.6c-1.6-2.2-3.9-5.7-5.5-7.9l-2.9-4.2c9.5-1.8,18.2-7.8,18.2-19.4
			c0-4.4-1.7-8.7-4.8-11.7c-4.5-4.3-9.6-5.1-16.4-5.1c-2.4,0-14.6,0.5-17.3,0.5C70,332.3,67.3,332,64.9,331.8z M119.7,331.8
			c4.3,11.3,8,21.4,10.8,29.3c4.8,13.6,8,23.1,11.7,34.6l2.6,8c1.5-0.3,3.1-0.6,4.3-0.6c1.2,0,2.2,0.2,4,0.6
			c1.7-5.4,3.7-12.1,5.2-16.4c4.1-11.9,4.6-13.6,9.9-28.5l3.1-8.7c1.2,3.3,3.1,8.7,4.3,12c1.2,3.3,6.5,19.3,7.8,22.8
			c1.7,4.7,2.1,6.1,6,18.7c0.9-0.1,2.9-0.6,4.5-0.6c1.5,0,2.6,0.3,4.2,0.6c4-12.5,4.4-13.7,10.3-30.5c5.8-16.3,9.3-25.7,15.6-41.4
			c-1.6,0.4-3.1,0.6-4.7,0.6c-2,0-3.7-0.3-4.8-0.6c-3.8,13.6-5.6,20.2-8.7,29.2c-4.9,14.7-5.6,16.3-8.6,24.3
			c-3.4-9-6.6-18.1-9.7-27.3c-1.7-5-8.1-26-8.2-26.2c-1.5,0.3-2.5,0.6-4.6,0.6c-1.9,0-3.2-0.4-4.6-0.6
			c-3.1,12.8-14.3,43.6-15.3,46.4l-2.6,6.8l-2-5.9c-4.9-14.6-11.7-35-15-47.4c-2.6,0.4-4.9,0.6-7.3,0.6
			C125.4,332.4,121.8,332,119.7,331.8z M273,331.8c5.4,9.1,14.3,23.6,19.7,32.8l6.2,10.7c0,6.5-0.3,20.2-0.6,28.4
			c2-0.2,4.9-0.6,7-0.6c2.4,0,4.8,0.4,7.2,0.6c-0.4-9.7-0.8-15.4-0.8-24.2v-3.9c0-0.9,0.6-2.1,1.4-3.4c4.4-7.5,8.5-15.4,13.2-22.9
			c1.6-2.5,9.2-14.7,10.8-17.5c-1.2,0.4-2.3,0.6-4.4,0.6c-2.3,0-4.4-0.3-6.1-0.6c-7.5,16.6-9.2,20.1-18.1,35.4
			c-8.9-15.6-12.9-23.9-18.3-35.4c-3,0.5-6.1,0.6-8.6,0.6C279.2,332.4,276.8,332.2,273,331.8z M85.9,336.9c3.4,0,6.9,0.5,9.7,2.6
			c3.7,2.7,4.4,6.5,4.4,10.9c0,6.8-3.9,14.5-14.3,14.5c-2.7,0-5.2-0.2-7.2-0.3v-27.1C80,337.3,83.9,336.9,85.9,336.9z M-13.4,348.6
			l9.8,25.8c-3.2,0.2-6.4,0.4-9.6,0.4c-3.7,0-7.2-0.3-10.9-0.4L-13.4,348.6z M246,348.6l9.9,25.8c-3.3,0.2-6.4,0.4-9.7,0.4
			c-3.7,0-7.2-0.3-10.9-0.4L246,348.6z"/>
		<path id="path133" class="st1" d="M69.9,77.1c-7.5,25.8-25.8,66.6-57.5,137.7l-36.5,81.1c4.4-0.6,8.8-1.9,14.1-1.9
			c5,0,11,1.3,15.1,1.9c5-17.9,15.1-44,25.1-68.2c12.6-0.6,25.1-1.2,37.7-1.2c13.5,0,26.7,0.6,40.2,1.2l13.2,33.3l13.2,34.9
			c5.7-0.3,14.5-1.9,23.3-1.9c8.8,0,19.8,1.6,24.5,1.9c-14.1-30.5-34.9-77.9-46.8-105.3c-11.3-26.4-30.2-70.4-45.2-113.4
			c-3.5,1-6.6,1.6-10.1,1.6C76.5,78.7,73.4,78.1,69.9,77.1z M419.8,77.1c-7.5,25.8-25.8,66.6-57.5,137.7l-36.4,81.1
			c4.4-0.6,8.8-1.9,14.1-1.9c5,0,11,1.3,15.1,1.9c5-17.9,15.1-44,25.1-68.2c12.6-0.6,25.1-1.2,37.7-1.2c13.5,0,26.7,0.6,40.2,1.2
			l13.2,33.3l13.2,34.9c5.7-0.3,14.5-1.9,23.3-1.9s19.8,1.6,24.5,1.9c-14.1-30.5-34.9-77.9-46.8-105.3
			c-11.3-26.4-30.2-70.4-45.2-113.4c-3.5,1-6.6,1.6-10.1,1.6C426.4,78.7,423.3,78.1,419.8,77.1z M-163.7,77.8
			c-63.5,0-118.1,35.2-118.1,115c0,17,3.8,49,30.2,75.7c27.3,27.7,59.7,31.7,87.1,31.7c3.4,0,6.9,0,10.4-0.3l72,56.3
			c9.4-6.6,24.2-14.8,34.9-19.5l-71-44c43.7-15.4,71-54.4,71-107.5C-47.5,109.8-105,77.8-163.7,77.8z M169.4,80.3
			c1,3.8,1.6,7.9,1.6,11.6c0,3.8-0.6,7.9-1.6,11.6c16-1.6,46.2-2.2,49-2.2h15.7c0.3,12.3,0.6,23.3,0.6,34.9l0.3,87.7
			c0,23.9-1.9,48.1-3.1,72c11.3-1.2,16-1.9,21.4-1.9c3.8,0,13.8,1,23,1.9c-1-8.8-2.2-19.2-2.2-43V136.5c0-11.9,0.3-23.9,0.6-35.2
			c21.7,0,44,0.3,62.5,2.2c-0.9-5-1.6-7.8-1.6-11.3c0-2.5,0.6-6.6,1.6-11.9c-30.2,1.6-57.8,1.9-83.9,1.9
			C229.2,82.1,194.3,81.8,169.4,80.3z M566.5,80.3c2.2,40.5,2.2,44.9,2.2,86.1c0,60.7-0.3,67.6-2.8,129.5c6.9-0.9,14.5-1.9,21.7-1.9
			c7.9,0,14.8,1.3,21.1,1.9c0-8.2-1.3-48.7-1.3-57.8v-44.6h7.5c17,23.9,36.5,51.5,52.5,76.4c4.7,7.2,11.6,18.9,16.3,26.1
			c9.4-1.2,13.2-1.9,25.5-1.9c11.3,0,19.2,1,28,1.9C717.3,271,708.8,260,684,225.1c-4.7-6.6-11.6-17-16.3-23.6l-8.8-12.6
			c28.6-5.3,54.7-23.3,54.7-58.1c0-13.2-5-26.1-14.5-35.2c-13.5-12.9-28.9-15.4-49.3-15.4c-7.2,0-43.7,1.6-51.9,1.6
			C581.9,81.8,573.7,80.9,566.5,80.3z M-164.4,93.8c51.5,0,73.8,42.7,73.8,88.3c0,26.1-3.1,50.6-16,70.4
			c-12.9,19.8-34.2,31.7-57.5,31.7c-58.1,0-74.8-55.3-74.8-89.9C-238.8,115.1-196.4,93.8-164.4,93.8z M629.6,95.7
			c10.4,0,20.7,1.6,29.2,7.8c11,8.2,13.2,19.5,13.2,32.7c0,20.4-11.6,43.4-43,43.4c-8.2,0-15.7-0.6-21.7-0.9V97.2
			C612,96.9,623.7,95.7,629.6,95.7z M69.6,130.9l29.5,77.3c-9.8,0.6-19.2,1.3-28.9,1.3c-11,0-21.7-0.9-32.7-1.3L69.6,130.9z
			 M419.5,130.9l29.5,77.3c-9.7,0.6-19.2,1.3-28.9,1.3c-11,0-21.7-0.9-32.7-1.3L419.5,130.9z M660.7,331.8c-4.7,0-5.9,2-5.9,5.8
			s1.7,5.1,5.9,5.1c4.3,0,7.3-1.7,7.3-5.1C668.1,334.2,666.1,331.8,660.7,331.8z M677.3,331.8c-4.7,0-5.9,2-5.9,5.8s1.6,5.1,5.9,5.1
			c4.3,0,7.3-1.7,7.3-5.1C684.6,334.2,682.6,331.8,677.3,331.8z M416.7,332.8c-4.7,0-6,2.1-6,5.8c0,3.8,1.6,5.1,6,5.1
			c4.3,0,7.3-1.7,7.3-5.1C424,335.1,422,332.8,416.7,332.8z M432.7,332.8c-4.7,0-6,2.1-6,5.8c0,3.8,1.6,5.1,6,5.1
			c4.3,0,7.2-1.7,7.2-5.1C439.9,335.1,437.9,332.8,432.7,332.8z M551.5,333.2c0,0-7.3,5.1-12.6,9.2c-5.3,4.1,0,6.8,0,6.8v43.2h-15.2
			l-0.3-37.1c0,0-10.6,7.8-13.7,10.1c-3,2.3-1.3,4.4,2,4.4c0,0-0.6,27.4-0.6,33.8c0,6.5-5.4,13.9-16.7,10.6c0,0-3.6,0.7-0.6,3.4
			c3,2.7,6.5,4.8,10.6,4.8c4,0,18.6-2.8,18.6-18.7h191.9v-69.1c0,0-11.3,7.5-13.6,9.5c-2.3,2-1.7,4.5,1.4,4.1v44.2H686v-40.2
			c0,0-3.4,1.3-8,3.3c-4.6,2.1-21.2,8.9-21.2,18v10.6h17v8.2h-40.2c0-1.9,0.1-4.8,0.1-9c0-13.2-11.2-20.4-21.2-20.4h-46.5
			c-8.1,0-12.1,2-14.3,4.2L551.5,333.2z M736.8,334.6c0,0-11.3,7.5-13.6,9.5c-2.3,2-1.7,4.4,1.3,4.1v55.6h12.3V334.6z M445,340.6
			c0,0-13.7,12.6-14.9,14.2c-1.3,1.8,3.2,3.4,3.2,3.4l-0.8,4.9c0,0-5.4,2.8-12,7.3c-6.6,4.4-11.4,10.1-11.4,14
			c0,3.9-1.7,19.3-1.7,19.3h86.9v-41.1c0,0-7.8,4.5-12.8,8.9c-4.9,4.4,1,6,1,6v14.8H445L445,340.6z M673.7,368.4v6.8h-8
			C665.7,370.8,673.7,368.4,673.7,368.4z M561.1,374.8h50.8c11,0,9.3,5.8,9.3,9.5c0,2-0.1,5.3-0.2,7.9h-69.5v-12.2
			C553.3,375.4,556.3,374.8,561.1,374.8z M433,375.9v16.4h-12.9c0,0-1.7-8,2.9-11C427.7,378.2,433,375.9,433,375.9z M456.9,408.1
			c-4.7,0-6,2-6,5.8c0,3.7,1.7,5.1,6,5.1c4.3,0,7.3-1.7,7.3-5.1C464.2,410.4,462.2,408.1,456.9,408.1z M473.5,408.1
			c-4.7,0-6,2-6,5.8c0,3.7,1.7,5.1,6,5.1c4.3,0,7.3-1.7,7.3-5.1C480.8,410.4,478.8,408.1,473.5,408.1z"/>
	</g>
</g>
</svg>
