<?xml version="1.0" encoding="utf-8"?>
<!-- Generator: Adobe Illustrator 27.9.0, SVG Export Plug-In . SVG Version: 6.00 Build 0)  -->
<svg version="1.1" id="layer" xmlns="http://www.w3.org/2000/svg" xmlns:xlink="http://www.w3.org/1999/xlink" x="0px" y="0px"
	 viewBox="0 0 603.2 72.9" style="enable-background:new 0 0 603.2 72.9;" xml:space="preserve">
<style type="text/css">
	.st0{fill:#073590;}
	.st1{fill:#F1C931;}
</style>
<path class="st0" d="M132.3,72.9L114,48.8h-7.2v24.1H85.3V9.6h32c23.5,0,38.5,6.5,38.5,19.6c0,9.1-8.5,14.3-20.2,17.6l20.9,26.1
	L132.3,72.9L132.3,72.9z M116,20.7h-9.8v17.6h10.4c11.1,0,17-3.3,17-8.5C134.3,23.3,129.1,20.7,116,20.7z M209.3,48.7v24.2h-21.5
	V49.4L156.5,9.6H180l9.1,13c3.9,5.2,7.8,11.7,9.1,15c1.3-3.3,5.2-9.8,9.1-15l9.1-13h23.5L209.3,48.7L209.3,48.7z M290.8,72.9
	l-5.9-13h-26.7l-5.9,13h-22.1l30.7-63.3h20.9l30.7,63.3H290.8z M277.1,41.6c-2-4.6-4.6-12.4-5.9-15.7c-0.7,3.3-3.3,9.8-5.2,15
	l-3.3,7.8h17.6L277.1,41.6z M371.7,72.9l-22.2-28c-3.3-3.9-7.2-9.1-9.1-13c0,3.9,0.7,10.4,0.7,14.3v26.7h-19.6V9.6H343l20.9,28
	c2.6,3.9,7.2,9.8,9.8,13c0-3.9-0.7-11.1-0.7-15V9.5h19.6v63.4H371.7L371.7,72.9z M461.7,72.9l-5.9-13h-26.7l-5.9,13H401l30.7-63.3
	h21.5l30.7,63.3H461.7L461.7,72.9z M448,41.6c-2-4.6-4.6-12.4-5.9-15.7c-0.7,3.3-3.3,9.8-5.2,15l-3.3,7.8h17.6L448,41.6L448,41.6z
	 M492.4,72.9V9.6h21.5v63.3H492.4L492.4,72.9z M579.7,72.9l-18.9-24.1h-7.2v24.1h-21.5V9.6h32c23.5,0,38.5,6.5,38.5,19.6
	c0,9.1-8.5,14.3-20.2,17.6l20.8,26.1H579.7z M563.4,20.7h-9.8v17.6H564c11.1,0,17-3.3,17-8.5C581.7,23.3,576.5,20.7,563.4,20.7z"/>
<g>
	<path class="st1" d="M50.2,7c4.6,1.3,9.1,2.6,13.7,3.3h3.3c2,0,3.3-0.7,5.2-1.3h0.7c0,0.7,0,0.7-0.7,1.3c-2.6,2-5.2,3.3-7.8,3.9
		c-0.7,0-2,0.7-2.6,0.7c-3.3,1.3-7.2,1.3-10.4,1.3c-6.5-0.7-12.4-2.6-18.9-2.6c-5.9-0.7-11.7,2-15,6.5c-0.7,2.6-2,5.2-2,7.8
		c0,2.6,3.9,3.3,5.2,5.2l2,3.9c0.7,2.6,2,5.2,3.9,7.8c1.3,1.3,2.6,3.3,4.6,3.9c2.6,2,4.6,3.9,5.9,6.5c1.3,2.6,2.6,4.6,3.3,7.2
		c0.7,1.3,1.3,2.6,1.3,4.6v0.7c0.7,1.3,0.7,2.6,1.3,3.3v0.7c0,0.7,0.7,2,0,2c-1.3-1.3-2-2.6-2.6-3.9C39.9,67.2,38,64.6,36,62
		c-1.3-1.3-2.6-3.3-3.9-4.6c-5.2-5.9-13-9.8-18.9-15c0,0,0-0.7-0.7-1.3c-0.7-1.3-1.3-2-2-3.3c-1.3-2.6-3.3-5.2-4.6-8.5
		c0-1.3-0.7-2.6-0.7-3.9v-0.7c0-1.3-3.3-2-1.3-4.6c1.3-1.3,5.2-2.6,6.5-5.2v-1.3c0,0,0-0.7-0.7-0.7s-2.6,1.3-2.6-0.7v-2
		c0.7-1.3,0.7-2.6,0.7-3.9c0-0.7,0.7-0.7,1.3-0.7s2-0.7,2.6-0.7c2,0,4.6,0,5.9,1.3c0.7,1.3,0,2.6,0,3.9s-1.3,2-0.7,2.6h1.3
		c2.6-2,5.2-4.6,7.8-7.2c2-2,5.2-2.6,7.8-2C39.7,3.7,44.3,5.7,50.2,7L50.2,7z"/>
	<path class="st1" d="M35.2,17.4c0.7,1.3,0,2-0.7,3.3c-3.3,4.6-4.6,10.4-6.5,15.7h-0.7c-0.7,0-0.7-0.7-0.7-1.3
		c0-5.9,2-11.1,4.6-16.3c0.7-0.7,1.3-2,2.6-1.3C34.5,16.8,34.5,17.4,35.2,17.4L35.2,17.4z M44.3,18.7c0.7,2-0.7,3.3-1.3,5.2
		c-3.3,6.5-7.2,13-9.1,20.2c0,0,0,0.7-0.7,0.7h-0.7c-0.7-2.6,0-5.9,0.7-8.5c2-5.9,3.9-11.7,7.2-17.6c0.7,0,0.7-0.7,0.7-0.7
		C42.3,18.1,43.6,18.1,44.3,18.7L44.3,18.7z M53.4,19.4c0.7,0.7,0.7,2,0,2.6c-3.9,8.5-9.8,15.7-12.4,24.8l-2,5.9
		c0,0.7-0.7,0.7-0.7,0c-0.7-0.7,0-2,0-2.6c0.7-7.2,2.6-14.3,5.9-20.2c1.3-3.3,3.3-5.9,4.6-9.1c0.7-0.7,1.3-2,2.6-2
		C52.1,18.7,52.8,18.7,53.4,19.4L53.4,19.4z M63.9,20c0.7,1.3,0,2,0,3.3c-2.6,6.5-7.2,12.4-10.4,18.9c-3.3,5.2-5.2,11.1-7.2,16.3
		c-0.7,2-1.3,3.3-2,5.2h-0.7c-0.7-0.7-0.7-1.3-0.7-2c0.7-7.2,3.3-13,5.9-19.6c3.3-7.2,7.2-13.7,10.4-20.9c0.7-0.7,1.3-2,2.6-2.6
		C62.5,18.7,63.2,18.7,63.9,20L63.9,20z"/>
</g>
</svg>
