<?xml version="1.0" encoding="utf-8"?>
<!-- Generator: Adobe Illustrator 27.9.0, SVG Export Plug-In . SVG Version: 6.00 Build 0)  -->
<svg version="1.1"
	 id="Layer_1" xmlns:dc="http://purl.org/dc/elements/1.1/" xmlns:rdf="http://www.w3.org/1999/02/22-rdf-syntax-ns#" xmlns:cc="http://creativecommons.org/ns#"
	 xmlns="http://www.w3.org/2000/svg" xmlns:xlink="http://www.w3.org/1999/xlink" x="0px" y="0px" viewBox="0 0 294 52.3"
	 style="enable-background:new 0 0 294 52.3;" xml:space="preserve">
<style type="text/css">
	.st0{fill-rule:evenodd;clip-rule:evenodd;fill:#ED1C24;}
	.st1{fill-rule:evenodd;clip-rule:evenodd;fill:#BFD730;}
	.st2{fill-rule:evenodd;clip-rule:evenodd;fill:#46A41A;}
	.st3{fill-rule:evenodd;clip-rule:evenodd;fill:#BA141A;}
	.st4{fill-rule:evenodd;clip-rule:evenodd;fill:#FFFFFF;}
</style>
<g transform="translate(-13.397668,-346.64263)">
	<g transform="matrix(2,0,0,2,-52.028423,-353.82871)">
		<path class="st0" d="M55.7,351.2h11.8c4.7,0,8.5,3.9,8.5,8.6c0,4.8-3.8,8.6-8.5,8.6h-5.1v6.9h-6.8V351.2z M62.4,358.1h5.1
			c0.9,0,1.7,0.8,1.7,1.7c0,1-0.8,1.7-1.7,1.7h-5.1V358.1L62.4,358.1z"/>
		<path class="st1" d="M38.8,375.4v-17.3h-5.1v-6.9h22v24.2l-1.3-4.4v0.1h-7.6l-1.3,4.3H38.8z M48.8,364.2h3.6l-1.8-6L48.8,364.2z"
			/>
		<path class="st2" d="M38.8,375.4h6.8v-17.3h5.1v-6.9h-5.1L38.8,375.4z"/>
		<path class="st3" d="M55.7,375.4h6.8l-6.8-24.2V375.4z"/>
		<g>
			<path class="st4" d="M106.7,368.5h1.4v-4.1c0.4,0.1,0.8,0.1,1.2,0.1c1.4,0,2.6-0.4,3.3-1.1c0.6-0.5,0.8-1.3,0.8-2.2
				c0-0.9-0.4-1.7-0.9-2.2c-0.6-0.6-1.6-0.9-3-0.9c-1.2,0-2.1,0.1-2.8,0.2L106.7,368.5L106.7,368.5z M108.1,359.3
				c0.5-0.1,1-0.1,1.4-0.1c1.5,0,2.6,0.6,2.6,2.1c0,1.4-1,2.2-2.8,2.2c-0.5,0-0.9,0-1.3-0.1V359.3L108.1,359.3z M119.6,368.7
				c2.9,0,5.3-2,5.3-5.5c0-3-2.1-5.2-5.2-5.2c-3,0-5.3,2.3-5.3,5.5C114.5,366.5,116.6,368.7,119.6,368.7L119.6,368.7L119.6,368.7z
				 M119.6,367.6c-2.3,0-3.7-1.9-3.7-4.2c0-2.3,1.3-4.3,3.8-4.3c2.5,0,3.8,2.1,3.8,4.2C123.4,365.7,122,367.6,119.6,367.6
				L119.6,367.6z M125.9,368.5h1.4V364h1.5c1.3,0.1,1.8,0.6,2.2,2c0.3,1.3,0.5,2.2,0.7,2.4h1.4c-0.2-0.4-0.5-1.5-0.8-2.9
				c-0.3-1-0.7-1.7-1.5-2v0c1.1-0.3,2-1.3,2-2.6c0-0.8-0.3-1.5-0.8-1.9c-0.7-0.6-1.6-0.9-3.2-0.9c-1,0-2.1,0.1-2.8,0.2V368.5z
				 M127.3,359.3c0.2-0.1,0.8-0.1,1.5-0.1c1.4,0,2.5,0.5,2.5,1.9c0,1.2-0.9,1.9-2.4,1.9h-1.6V359.3z M136.9,368.5h1.4v-9.2h3.5v-1.2
				h-8.4v1.2h3.5V368.5z M142.6,358.1v5.8c0,3.4,1.8,4.7,4,4.7c2.4,0,4.3-1.4,4.3-4.7v-5.8h-1.4v5.9c0,2.4-1.1,3.6-2.8,3.6
				c-1.6,0-2.7-1.1-2.7-3.6v-5.9H142.6z M161.5,363.1h-3.7v1.1h2.3v3c-0.4,0.2-1.1,0.3-2.1,0.3c-2.8,0-4.4-1.7-4.4-4.2
				c0-2.4,1.7-4.1,4.6-4.1c1.2,0,2,0.2,2.6,0.5l0.4-1.1c-0.5-0.2-1.6-0.5-2.9-0.5c-3.9,0-6,2.6-6,5.3c0,1.5,0.6,2.9,1.5,3.8
				c1.1,1,2.5,1.5,4.3,1.5c1.6,0,2.9-0.4,3.6-0.6V363.1z M169,365.2l1.2,3.3h1.5l-3.9-10.4h-1.7l-3.8,10.4h1.4l1.2-3.3H169z
				 M165.3,364.1l1.2-3.1c0.2-0.6,0.4-1.2,0.5-1.7h0c0.2,0.5,0.3,1.1,0.6,1.7l1.2,3.1H165.3z"/>
			<path class="st4" d="M172.5,368.5h6.2v-1.2h-4.8v-9.2h-1.4L172.5,368.5z"/>
			<path class="st4" d="M92.1,368.5h1.9v-10.4h-1.9V368.5z M87.7,365.5l1,3h2.1l-3.7-10.4h-2.5L81,368.5h2l1-3H87.7L87.7,365.5z
				 M84.4,364l0.9-2.6c0.2-0.6,0.4-1.2,0.5-1.8h0c0.2,0.6,0.3,1.2,0.6,1.8l0.9,2.6L84.4,364L84.4,364z M98.1,359.8
				c0.2,0,0.6-0.1,1.3-0.1c1,0,2.3,0.3,2.3,1.6c0,1-0.8,1.7-2.2,1.7h-1.4V359.8z M98.1,364.6h1.2c1.1,0,1.6,0.5,1.9,1.8
				c0.3,1.1,0.4,1.8,0.6,2.1h2c-0.2-0.4-0.4-1.3-0.7-2.5l-0.1-0.2c-0.2-0.9-0.6-1.5-1.2-1.9c0.9-0.4,1.7-1.3,1.7-2.7
				c0-0.9-0.3-1.7-0.9-2.2c-0.7-0.7-1.8-1-3.3-1c-1,0-2.1,0.1-2.8,0.2l-0.2,0v10.2h1.9V364.6L98.1,364.6z"/>
		</g>
	</g>
</g>
</svg>
