<?xml version="1.0" encoding="utf-8"?>
<!-- Generator: Adobe Illustrator 27.9.0, SVG Export Plug-In . SVG Version: 6.00 Build 0)  -->
<svg version="1.1" id="Layer_1" xmlns="http://www.w3.org/2000/svg" xmlns:xlink="http://www.w3.org/1999/xlink" x="0px" y="0px"
	 viewBox="0 0 880 163" style="enable-background:new 0 0 880 163;" xml:space="preserve">
<style type="text/css">
	.st0{fill:#FFFFFF;}
	.st1{display:none;}
	.st2{display:inline;fill:#606161;}
	.st3{fill:#004FB5;}
</style>
<path class="st0" d="M730.1,88.4c-3.8-2.7-13-9.1-13-9.1v-7.8c6.6-9.4,7.6-20.2,1.8-25.5c-0.5-0.5-1.1-0.9-1.8-1.3v-3.9l0.1,0.1
	c0,0,8.3-6.6,14.9-9.4c1.6,0.1,3.1,0.3,4.6,0.7c-9.9,4.2-17.1,9.4-17.6,9.7c1,0.6,1.9,1.4,2.1,1.4c0.1-0.1,9.7-6.1,20.2-9.6
	c1.4,0.7,2.8,1.5,4,2.4c-11.5,3.2-22.5,9-22.5,9c0.6,0.7,1.2,1.5,1.6,2.3c0.1,0,0.1-0.1,0.2-0.1c11.7-5,24.2-7.6,24.2-7.6
	c1,1.3,1.8,2.8,2.4,4.5c0,0-11.2,1.3-25.6,5.9c0.6,2,0.8,3.5,0.8,3.5s13.6-3,26.1-3.4c0.2,2,0.1,4.3-0.2,6.6
	c-7.4-0.4-25,0.5-25.7,0.6c0,0-0.1,2.5-0.7,4.9c0,0,12.9,0.4,24.6,2.6c-0.9,2.8-2.1,5.6-3.4,8.3c-7.8-2.3-19.7-5.2-22.8-5.9
	c-0.8,2-1.9,4-3.1,6c0,0,14.5,6.3,20,9.4l0,0l0,0c-2.4,3.6-7.2,8.7-7.2,8.7C732.6,90.3,731.3,89.3,730.1,88.4z M720.5,32.4
	c-1.2,0.8-2.3,1.6-3.4,2.5v3.3c2.9-2.3,6.7-4.9,10-6.7C724.9,31.6,722.7,31.9,720.5,32.4z M717,91.3v14.2c2.5-1.6,5-3.4,7.5-5.4
	L717,91.3z M753.2,20.9c-12.3,0-24.5,2.1-36,6.3h-0.1v4.3c0.7-0.3,1.9-0.7,3.6-1.1c0.9-0.2,1.8-0.4,2.6-0.5c0.3,0,0.6-0.1,0.9-0.1
	c11.3-1.6,21.1,0.7,26.9,7.4c12.8,14.7,2.2,44.9-23.7,67.5c-3.3,2.9-6.7,5.5-10.1,7.8c-0.1,0.1-0.2,0.1-0.3,0.2v7.2
	c1-0.7,2.1-1.4,3.1-2.2c1.4,2.4,10.8,17.4,11,17.6c0.7-0.4,2.7-1.7,5.2-3.4c2.8-1.9,6.2-4.4,9.3-6.9c0.1-0.1,0.3-0.2,0.4-0.4
	l-14.4-16.5c1.5-1.4,6.3-6.2,10.2-10.8c0.9,0.7,12.8,10,17.6,14.2c3.8-4.1,7.2-8.4,10.3-12.7c-6.6-4.3-20.3-12.1-20.3-12.1
	c2.3-3.6,4.2-7.2,5.8-10.8c0,0,15.9,6.2,22.4,9.4c1.7-3.5,3.2-7,4.3-10.4c0.2-0.5,0.3-1,0.5-1.5c-8.1-3.3-22.5-6.7-23.8-7
	c0.9-3.1,1.4-6.1,1.6-9.1c11.7,1.2,22.4,3.8,24.6,4.4c0.3-3.4,0.3-6.6-0.1-9.6c-13-2.3-23.3-2.4-24.6-2.4c-0.3-2.3-0.8-4.5-1.6-6.6
	c0,0,11.6-1,23.6,0.4c-0.6-1.3-1.4-2.7-2.2-3.8c-0.6-0.9-2-2.6-2-2.6s-10.2-0.8-22,1c-1.1-1.6-2.4-3-3.7-4.1c0.2-0.1,9.2-2.1,20-2.1
	c-3-2-6.1-3.4-6.1-3.4l0,0c-8.4,0.2-17.1,2.5-17.8,2.7c-2.4-1.4-4.2-2-4.5-2l0,0l0,0c0.7-0.2,7.1-2.2,11.9-2.7l0,0
	c-6.4-0.8-15.3,1.2-16.3,1.4c-1.4-0.3-3.3-0.5-4.7-0.7c0,0,4.8-1.4,11.1-2.3c5.7-0.8,25-3.2,37.3,13.4c11.6,15.7,7.4,40-8.4,63.3
	c-4.2,6.3-9.2,12.4-14.9,18.4c-4.8,5-9.7,9.4-14.4,13.1c-7.3,5.8-15.1,10.9-23.2,14.9c-1.7,0.9-3.4,1.7-5.1,2.5v7.6
	c13.5-6.4,21.5-12.5,21.5-12.5l11.4,16.1c0,0,8.8-5.5,17.7-12.8l0,0l0,0l-13.6-15.4l0,0c5.2-4.6,10-9.4,14.2-14.4
	c0,0,14.1,12.6,15.7,14c4.5-5.1,8.6-10.4,12.3-15.9c-7.4-5.8-17-12.4-17.1-12.5l0,0l0,0l0,0c0,0,5.8-9.2,8.1-14.8
	c0,0,9.3,5.1,18.1,10.8c2.2-4.8,4-9.8,5.2-14.9c-5.8-3.5-18.7-9.2-18.7-9.2c1.1-4.3,1.8-8.6,2-12.7c0,0,9.4,3,18.8,7.7
	c0.1-4-0.1-7.9-0.8-11.7c-8-3.8-18.6-6.4-18.6-6.4c-0.6-3.2-1.5-6.3-2.8-9.2c0,0,9.7,1.8,18.2,5.3c-2.1-4.7-4.8-7.4-4.8-7.4
	c-5.5-3-17.9-5.3-17.9-5.3c-1.3-1.7-2.9-3.3-4.5-4.8c3.9,0.5,10,1.9,10,1.9c-6.7-3.3-14.3-5.2-14.4-5.2c0,0-1.5-1-3.3-1.9
	c0,0,18.8,3.8,29,11.5c0.9,0.7,1.8,1.5,2.7,2.3c1,1,1.9,2.1,2.7,3.2c20.3,27.8,2.7,81.4-46.8,118.8h18.4c-1-1.1-3.5-3.9-3.8-4.2
	c5.8-5.3,11.3-11.2,16.2-17.3l12.4,12.4l0,0c4.8-5.5,9.3-11.3,13.2-17.4c0,0-6.4-6.2-13.3-12.1c5.5-8.9,8.9-17.8,8.9-17.8
	c0.5,0.4,7.2,5.3,14,11.7c3.3-7.2,5.4-16.5,5.4-16.5c-7.1-6.5-14.5-11.1-14.5-11.1c1.1-4.9,1.8-10,1.9-15c0,0,7.8,4.6,14.4,10.5
	c0.1-4.4-0.3-8.7-1.2-13c-6.6-5.8-14-9.6-14-9.6s-0.7-4.8-3.1-10.7c0,0,0,0,0.1,0c0.5,0.2,4,2,10.2,6.5
	c-4.9-6.3-13.2-12.5-13.2-12.5c-0.8-1.4-1.7-2.7-2.7-4c6.9,4.7,13.1,10.2,18.7,16.4c2.1,2.6,3.9,5.8,5.4,9.6c0.4,1,0.7,2,1,3.1
	c4.5,15.4,1.8,32.6-3.4,46.7c-5.9,16.3-15.8,31.5-27.3,44.4h21.8c2.1-3,4-5.9,6-9.1c-1.5-2.2-8.1-10-8.1-10c3.7-6,6.9-12.4,9.5-18.9
	c0,0,4.4,4.9,7.9,10c3.4-8.2,5-16.7,5-16.7c-2.3-3.9-7.6-10-7.6-10c1.1-5.2,1.8-10.5,1.9-15.8c2.6,3.1,6.2,8.1,6.2,8.1l0,0
	c-0.7-9.7-5.7-18.5-6.8-20.4c0-0.2-0.1-0.4-0.1-0.6c-0.7-3.4-1.8-7.1-2.4-9c5.6,8.3,9.2,17.6,9.2,17.6c2.3,6,3.7,13.6,3.7,21.8
	c0,4.4-0.9,27.2-18.3,52.9h5.5c3.2-6.1,6.8-13.6,9.2-20l0,0c0.1,0.2,1.3,3.4,2.2,6.6c1.9-6.5,3.2-13.3,3.9-20.3l0,0
	c-0.2-0.9-0.7-2.4-1-3.3c0,0,1.2-5.9,1.7-12.7c0.6,4.7,1,9.4,1,14.2c0,8.3-1,16.4-2.9,24.2c-1,3.9-2.2,7.7-3.4,11.2h4.7
	c3.9-11.3,5.9-23.2,5.9-35.1C859.7,68.8,811.9,20.9,753.2,20.9z"/>
<path class="st0" d="M0,82.3V40.6h24.3v40.5c0,15.6,7.4,22.1,21.6,22.1s21.6-6.6,21.6-22.1V40.6h24.3v41.7
	c0,29.1-14.7,41.7-45.9,41.7S0,111.5,0,82.3z M201,88.2l-45.2-47.6h-23.9v81.8h22.6V70.6l49.3,51.8h19.8V40.6H201V88.2z
	 M265.8,122.4h24.3V43.5v-2.9h-24.3V122.4z M566.3,40.6H613c32.5,0,47.4,14.1,47.4,40.9s-14.9,40.9-47.4,40.9h-46.7V40.6z
	 M590.6,100.4h21.6c15.8,0,22.9-5.8,22.9-18.9c0-13.1-7.1-18.9-22.9-18.9h-21.6V100.4z M473.4,90.2h50.4V72.8h-50.4V60.6h54.3v-20
	h-78.5v81.8h79v-20h-54.7L473.4,90.2L473.4,90.2z M326,62.6h31.5v59.8h24.3V62.6h31.5v-22h-87.2v22H326z"/>
<g id="FPO_Spacing" class="st1">
	<path class="st2" d="M940.6,0c1.6-3,3.4-6.8,4.6-10l0,0c0,0.1,0.6,1.7,1.1,3.3c0.9-3.3,1.6-6.7,2-10.2l0,0
		c-0.1-0.5-0.4-1.2-0.5-1.6c0,0,0.6-3,0.8-6.4c0.3,2.3,0.5,4.7,0.5,7.1c0,4.1-0.5,8.2-1.4,12.1c-0.5,1.9-1.1,3.8-1.7,5.6L940.6,0
		L940.6,0z M934.8,0h3.1c8.7-12.9,9.1-24.3,9.1-26.5c0-4.1-0.7-7.9-1.9-10.9c0,0-1.8-4.7-4.6-8.8c0.3,0.9,0.9,2.8,1.2,4.5
		c0,0.1,0,0.2,0.1,0.3c0.6,0.9,3.1,5.3,3.4,10.2l0,0c0,0-1.8-2.5-3.1-4c0,2.7-0.4,5.3-1,7.9c0,0,2.6,3,3.8,5c0,0-0.8,4.3-2.5,8.4
		c-1.7-2.5-4-5-4-5c-1.3,3.2-2.9,6.4-4.8,9.4c0,0,3.3,3.9,4,5C936.8-2.9,935.9-1.5,934.8,0z M923.9,0c5.8-6.5,10.7-14.1,13.7-22.2
		c2.6-7.1,4-15.7,1.7-23.4c-0.2-0.5-0.3-1-0.5-1.5c-0.7-1.9-1.7-3.5-2.7-4.8c-2.8-3.1-5.9-5.8-9.3-8.2c0.5,0.7,1,1.3,1.4,2
		c0,0,4.2,3.1,6.6,6.2c-3.1-2.2-4.9-3.1-5.1-3.2l0,0c1.2,2.9,1.5,5.3,1.5,5.3s3.7,1.9,7,4.8c0.5,2.1,0.6,4.3,0.6,6.5
		c-3.3-2.9-7.2-5.2-7.2-5.2c-0.1,2.5-0.4,5-1,7.5c0,0,3.7,2.3,7.2,5.6c0,0-1,4.6-2.7,8.2c-3.4-3.2-6.8-5.7-7-5.9
		c0,0-1.7,4.4-4.5,8.9c3.4,3,6.6,6.1,6.6,6.1c-2,3.1-4.2,6-6.6,8.7l0,0l-6.1-6.1c-2.5,3.1-5.2,6-8.1,8.7c0.1,0.2,1.4,1.5,1.9,2.1
		L923.9,0L923.9,0z M925.5-59.4c-0.4-0.5-0.8-1.1-1.4-1.6c-0.5-0.4-0.9-0.8-1.4-1.2c-5.1-3.8-14.5-5.8-14.5-5.8c0.9,0.5,1.6,1,1.6,1
		s3.8,1,7.2,2.6c0,0-3.1-0.7-5-1c0.8,0.7,1.6,1.5,2.3,2.4c0,0,6.2,1.1,9,2.6c0,0,1.3,1.3,2.4,3.7c-4.3-1.7-9.1-2.6-9.1-2.6
		c0.6,1.4,1.1,3,1.4,4.6c0,0,5.3,1.3,9.3,3.2c0.3,1.9,0.5,3.9,0.4,5.8c-4.7-2.4-9.4-3.8-9.4-3.8c-0.1,2-0.4,4.2-1,6.3
		c0,0,6.4,2.9,9.3,4.6c-0.6,2.6-1.5,5.1-2.6,7.5c-4.4-2.9-9.1-5.4-9.1-5.4c-1.2,2.8-4.1,7.4-4.1,7.4l0,0l0,0l0,0
		c0.1,0,4.9,3.3,8.5,6.3c-1.8,2.8-3.9,5.4-6.1,8c-0.8-0.7-7.8-7-7.8-7c-2.1,2.5-4.5,4.9-7.1,7.2l0,0l6.8,7.7l0,0l0,0
		c-4.4,3.6-8.8,6.4-8.8,6.4l-5.7-8.1c0,0-4,3-10.8,6.2v2.3H902C926.9-18.7,935.6-45.5,925.5-59.4z M912.9-62.2
		c-6.1-8.3-15.8-7.1-18.6-6.7c-3.2,0.4-5.5,1.1-5.5,1.1c0.7,0.1,1.7,0.2,2.4,0.3c0.5-0.1,4.9-1.1,8.2-0.7l0,0
		c-2.4,0.3-5.6,1.2-5.9,1.3l0,0l0,0c0.1,0,1,0.3,2.2,1c0.3-0.1,4.7-1.3,8.9-1.3l0,0c0,0,1.5,0.7,3,1.7c-5.4,0-9.9,1-10,1
		c0.6,0.6,1.3,1.2,1.8,2c5.9-0.9,11-0.5,11-0.5s0.7,0.8,1,1.3c0.4,0.6,0.8,1.3,1.1,1.9c-6-0.7-11.8-0.2-11.8-0.2
		c0.4,1,0.7,2.1,0.8,3.3c0.7,0,5.8,0,12.3,1.2c0.2,1.5,0.2,3.1,0.1,4.8c-1.1-0.3-6.5-1.6-12.3-2.2c-0.1,1.5-0.4,3-0.8,4.5
		c0.7,0.2,7.9,1.9,11.9,3.5c-0.1,0.3-0.2,0.5-0.2,0.8c-0.6,1.7-1.3,3.5-2.2,5.2c-3.3-1.6-11.2-4.7-11.2-4.7
		c-0.8,1.8-1.8,3.6-2.9,5.4c0,0,6.8,3.9,10.1,6.1c-1.5,2.2-3.2,4.3-5.1,6.4c-2.4-2.1-8.4-6.8-8.8-7.1c-1.9,2.3-4.4,4.7-5.1,5.4
		l7.2,8.2c-0.1,0.1-0.1,0.1-0.2,0.2c-1.6,1.3-3.2,2.5-4.6,3.5c-1.2,0.8-2.2,1.5-2.6,1.7c-0.1-0.1-4.8-7.6-5.5-8.8
		c-0.5,0.4-1,0.7-1.6,1.1v15.4c0.8-0.4,1.7-0.8,2.5-1.3c4-2,8-4.5,11.6-7.4c2.3-1.9,4.8-4,7.2-6.6c2.9-3,5.4-6,7.5-9.2
		C916.6-42.2,918.8-54.4,912.9-62.2z M897-62.8c-2.9-3.4-7.8-4.5-13.5-3.7c-0.2,0-0.3,0-0.5,0.1c-0.4,0.1-0.9,0.2-1.3,0.3
		c-0.9,0.2-1.5,0.4-1.8,0.5v1.7c0.6-0.4,1.1-0.9,1.7-1.3c1.1-0.2,2.2-0.4,3.3-0.5c-1.6,0.9-3.5,2.2-5,3.4v1.3h0.1
		c0,0,4.2-3.3,7.4-4.7c0.8,0.1,1.6,0.2,2.3,0.3c-4.9,2.1-8.6,4.7-8.8,4.9c0.5,0.3,1,0.7,1,0.7c0.1,0,4.8-3,10.1-4.8
		c0.7,0.3,1.4,0.7,2,1.2c-5.7,1.6-11.2,4.5-11.2,4.5c0.3,0.4,0.6,0.8,0.8,1.2h0.1c5.9-2.5,12.1-3.8,12.1-3.8
		c0.5,0.7,0.9,1.4,1.2,2.2c0,0-5.6,0.6-12.8,2.9c0.3,1,0.4,1.7,0.4,1.7s6.8-1.5,13-1.7c0.1,1,0.1,2.1-0.1,3.3
		c-3.7-0.2-12.5,0.3-12.9,0.3c0,0,0,1.3-0.4,2.5c0,0,6.4,0.2,12.3,1.3c-0.5,1.4-1,2.8-1.7,4.1c-3.9-1.2-9.8-2.6-11.4-3
		c-0.4,1-0.9,2-1.5,3c0,0,7.2,3.2,10,4.7l0,0l0,0c-1.2,1.8-3.6,4.3-3.6,4.3c-0.7-0.5-1.3-1-2-1.5c-1.9-1.3-6.5-4.6-6.5-4.6v6
		l3.8,4.4c-1.2,1-2.5,1.9-3.8,2.7v3.6l0.1-0.1c1.7-1.2,3.4-2.5,5.1-3.9C898.1-40.4,903.4-55.5,897-62.8z M879.9-45.7
		c3.3-4.7,3.8-10.1,0.9-12.8c-0.3-0.2-0.6-0.5-0.9-0.6V-45.7z M898-71c29.4,0,53.3,24,53.3,53.5c0,6-1,11.9-3,17.6h13.1v-81.5H880
		v13.6h0.1C885.8-69.9,891.8-71,898-71z"/>
	<path class="st2" d="M940.6,244.4c1.6-3,3.4-6.8,4.6-10l0,0c0,0.1,0.6,1.7,1.1,3.3c0.9-3.3,1.6-6.7,2-10.2l0,0
		c-0.1-0.5-0.4-1.2-0.5-1.6c0,0,0.6-3,0.8-6.4c0.3,2.3,0.5,4.7,0.5,7.1c0,4.1-0.5,8.2-1.4,12.1c-0.5,1.9-1.1,3.8-1.7,5.6h-5.4V244.4
		z M934.8,244.4h3.1c8.7-12.9,9.1-24.3,9.1-26.5c0-4.1-0.7-7.9-1.9-10.9c0,0-1.8-4.7-4.6-8.8c0.3,0.9,0.9,2.8,1.2,4.5
		c0,0.1,0,0.2,0.1,0.3c0.6,0.9,3.1,5.3,3.4,10.2l0,0c0,0-1.8-2.5-3.1-4c0,2.7-0.4,5.3-1,7.9c0,0,2.6,3,3.8,5c0,0-0.8,4.3-2.5,8.4
		c-1.7-2.5-4-5-4-5c-1.3,3.2-2.9,6.4-4.8,9.4c0,0,3.3,3.9,4,5C936.8,241.4,935.9,242.9,934.8,244.4z M923.9,244.4
		c5.8-6.5,10.7-14.1,13.7-22.2c2.6-7.1,4-15.7,1.7-23.4c-0.2-0.5-0.3-1-0.5-1.5c-0.7-1.9-1.7-3.5-2.7-4.8c-2.8-3.1-5.9-5.8-9.3-8.2
		c0.5,0.7,1,1.3,1.4,2c0,0,4.2,3.1,6.6,6.2c-3.1-2.2-4.9-3.1-5.1-3.2l0,0c1.2,2.9,1.5,5.3,1.5,5.3s3.7,1.9,7,4.8
		c0.5,2.1,0.6,4.3,0.6,6.5c-3.3-2.9-7.2-5.2-7.2-5.2c-0.1,2.5-0.4,5-1,7.5c0,0,3.7,2.3,7.2,5.6c0,0-1,4.6-2.7,8.2
		c-3.4-3.2-6.8-5.7-7-5.9c0,0-1.7,4.4-4.5,8.9c3.4,3,6.6,6.1,6.6,6.1c-2,3.1-4.2,6-6.6,8.7l0,0l-6-6.2c-2.5,3.1-5.2,6-8.1,8.7
		c0.1,0.2,1.4,1.5,1.9,2.1L923.9,244.4L923.9,244.4z M925.5,184.9c-0.4-0.5-0.8-1.1-1.4-1.6c-0.5-0.4-0.9-0.8-1.4-1.2
		c-5.1-3.8-14.5-5.8-14.5-5.8c0.9,0.5,1.6,1,1.6,1s3.8,1,7.2,2.6c0,0-3.1-0.7-5-1c0.8,0.7,1.6,1.5,2.3,2.4c0,0,6.2,1.1,9,2.6
		c0,0,1.3,1.3,2.4,3.7c-4.3-1.7-9.1-2.6-9.1-2.6c0.6,1.4,1.1,3,1.4,4.6c0,0,5.3,1.3,9.3,3.2c0.3,1.9,0.5,3.9,0.4,5.8
		c-4.7-2.4-9.4-3.8-9.4-3.8c-0.1,2-0.4,4.2-1,6.3c0,0,6.4,2.9,9.3,4.6c-0.6,2.6-1.5,5.1-2.6,7.5c-4.4-2.9-9.1-5.4-9.1-5.4
		c-1.2,2.8-4.1,7.4-4.1,7.4l0,0l0,0l0,0c0.1,0,4.9,3.3,8.5,6.3c-1.8,2.8-3.9,5.4-6.1,8c-0.8-0.7-7.8-7-7.8-7
		c-2.1,2.5-4.5,4.9-7.1,7.2l0,0l6.8,7.7l0,0l0,0c-4.4,3.6-8.8,6.4-8.8,6.4l-5.7-8.1c0,0-4,3-10.8,6.2v2.3H902
		C926.9,225.6,935.6,198.8,925.5,184.9z M912.9,182.1c-6.1-8.3-15.8-7.1-18.6-6.7c-3.2,0.4-5.5,1.1-5.5,1.1c0.7,0.1,1.7,0.2,2.4,0.3
		c0.5-0.1,4.9-1.1,8.2-0.7l0,0c-2.4,0.3-5.6,1.2-5.9,1.3l0,0l0,0c0.1,0,1,0.3,2.2,1c0.3-0.1,4.7-1.3,8.9-1.3l0,0c0,0,1.5,0.7,3,1.7
		c-5.4,0-9.9,1-10,1c0.6,0.6,1.3,1.2,1.8,2c5.9-0.9,11-0.5,11-0.5s0.7,0.8,1,1.3c0.4,0.6,0.8,1.3,1.1,1.9c-6-0.7-11.8-0.2-11.8-0.2
		c0.4,1,0.7,2.1,0.8,3.3c0.7,0,5.8,0,12.3,1.2c0.2,1.5,0.2,3.1,0.1,4.8c-1.1-0.3-6.5-1.6-12.3-2.2c-0.1,1.5-0.4,3-0.8,4.5
		c0.7,0.2,7.9,1.9,11.9,3.5c-0.1,0.3-0.2,0.5-0.2,0.8c-0.6,1.7-1.3,3.5-2.2,5.2c-3.3-1.6-11.2-4.7-11.2-4.7
		c-0.8,1.8-1.8,3.6-2.9,5.4c0,0,6.8,3.9,10.1,6.1c-1.5,2.2-3.2,4.3-5.1,6.4c-2.4-2.1-8.4-6.8-8.8-7.1c-1.9,2.3-4.4,4.7-5.1,5.4
		l7.2,8.2c-0.1,0.1-0.1,0.1-0.2,0.2c-1.6,1.3-3.2,2.5-4.6,3.5c-1.2,0.8-2.2,1.5-2.6,1.7c-0.1-0.1-4.8-7.6-5.5-8.8
		c-0.5,0.4-1,0.7-1.6,1.1v15.4c0.8-0.4,1.7-0.8,2.5-1.3c4-2,8-4.5,11.6-7.4c2.3-1.9,4.8-4,7.2-6.6c2.9-3,5.4-6,7.5-9.2
		C916.6,202.1,918.8,190,912.9,182.1z M897,181.5c-2.9-3.4-7.8-4.5-13.5-3.7c-0.2,0-0.3,0-0.5,0.1c-0.4,0.1-0.9,0.2-1.3,0.3
		c-0.9,0.2-1.5,0.4-1.8,0.5v1.7c0.6-0.4,1.1-0.9,1.7-1.3c1.1-0.2,2.2-0.4,3.3-0.5c-1.6,0.9-3.5,2.2-5,3.4v1.3h0.1
		c0,0,4.2-3.3,7.4-4.7c0.8,0.1,1.6,0.2,2.3,0.3c-4.9,2.1-8.6,4.7-8.8,4.9c0.5,0.3,1,0.7,1,0.7c0.1,0,4.8-3,10.1-4.8
		c0.7,0.3,1.4,0.7,2,1.2c-5.7,1.6-11.2,4.5-11.2,4.5c0.3,0.4,0.6,0.8,0.8,1.2h0.1c5.9-2.5,12.1-3.8,12.1-3.8
		c0.5,0.7,0.9,1.4,1.2,2.2c0,0-5.6,0.6-12.8,2.9c0.3,1,0.4,1.7,0.4,1.7s6.8-1.5,13-1.7c0.1,1,0.1,2.1-0.1,3.3
		c-3.7-0.2-12.5,0.3-12.9,0.3c0,0,0,1.3-0.4,2.5c0,0,6.4,0.2,12.3,1.3c-0.5,1.4-1,2.8-1.7,4.1c-3.9-1.2-9.8-2.6-11.4-3
		c-0.4,1-0.9,2-1.5,3c0,0,7.2,3.2,10,4.7l0,0l0,0c-1.2,1.8-3.6,4.3-3.6,4.3c-0.7-0.5-1.3-1-2-1.5c-1.9-1.3-6.5-4.6-6.5-4.6v6
		l3.8,4.4c-1.2,1-2.5,1.9-3.8,2.7v3.6l0.1-0.1c1.7-1.2,3.4-2.5,5.1-3.9C898.1,204,903.4,188.9,897,181.5z M879.9,198.7
		c3.3-4.7,3.8-10.1,0.9-12.8c-0.3-0.2-0.6-0.5-0.9-0.6V198.7z M898,173.3c29.4,0,53.3,24,53.3,53.5c0,6-1,11.9-3,17.6h13.1V163H880
		v13.6h0.1C885.8,174.4,891.8,173.3,898,173.3z"/>
	<path class="st2" d="M940.6,162.9c1.6-3,3.4-6.8,4.6-10l0,0c0,0.1,0.6,1.7,1.1,3.3c0.9-3.3,1.6-6.7,2-10.2l0,0
		c-0.1-0.5-0.4-1.2-0.5-1.6c0,0,0.6-3,0.8-6.4c0.3,2.3,0.5,4.7,0.5,7.1c0,4.1-0.5,8.2-1.4,12.1c-0.5,1.9-1.1,3.8-1.7,5.6
		L940.6,162.9L940.6,162.9z M934.8,162.9h3.1c8.7-12.9,9.1-24.3,9.1-26.5c0-4.1-0.7-7.9-1.9-10.9c0,0-1.8-4.7-4.6-8.8
		c0.3,0.9,0.9,2.8,1.2,4.5c0,0.1,0,0.2,0.1,0.3c0.6,0.9,3.1,5.3,3.4,10.2l0,0c0,0-1.8-2.5-3.1-4c0,2.7-0.4,5.3-1,7.9
		c0,0,2.6,3,3.8,5c0,0-0.8,4.3-2.5,8.4c-1.7-2.5-4-5-4-5c-1.3,3.2-2.9,6.4-4.8,9.4c0,0,3.3,3.9,4,5
		C936.8,160,935.9,161.4,934.8,162.9z M923.9,162.9c5.8-6.5,10.7-14.1,13.7-22.2c2.6-7.1,4-15.7,1.7-23.4c-0.2-0.5-0.3-1-0.5-1.5
		c-0.7-1.9-1.7-3.5-2.7-4.8c-2.8-3.1-5.9-5.8-9.3-8.2c0.5,0.7,1,1.3,1.4,2c0,0,4.2,3.1,6.6,6.2c-3.1-2.2-4.9-3.1-5.1-3.2l0,0
		c1.2,2.9,1.5,5.3,1.5,5.3s3.7,1.9,7,4.8c0.5,2.1,0.6,4.3,0.6,6.5c-3.3-2.9-7.2-5.2-7.2-5.2c-0.1,2.5-0.4,5-1,7.5
		c0,0,3.7,2.3,7.2,5.6c0,0-1,4.6-2.7,8.2c-3.4-3.2-6.8-5.7-7-5.9c0,0-1.7,4.4-4.5,8.9c3.4,3,6.6,6.1,6.6,6.1c-2,3.1-4.2,6-6.6,8.7
		l0,0l-6.1-6.1c-2.5,3.1-5.2,6-8.1,8.7c0.1,0.2,1.4,1.5,1.9,2.1h12.6V162.9z M925.5,103.5c-0.4-0.5-0.8-1.1-1.4-1.6
		c-0.5-0.4-0.9-0.8-1.4-1.2c-5.1-3.8-14.5-5.8-14.5-5.8c0.9,0.5,1.6,1,1.6,1s3.8,1,7.2,2.6c0,0-3.1-0.7-5-1c0.8,0.7,1.6,1.5,2.3,2.4
		c0,0,6.2,1.1,9,2.6c0,0,1.3,1.3,2.4,3.7c-4.3-1.7-9.1-2.6-9.1-2.6c0.6,1.4,1.1,3,1.4,4.6c0,0,5.3,1.3,9.3,3.2
		c0.3,1.9,0.5,3.9,0.4,5.8c-4.7-2.4-9.4-3.8-9.4-3.8c-0.1,2-0.4,4.2-1,6.3c0,0,6.4,2.9,9.3,4.6c-0.6,2.6-1.5,5.1-2.6,7.5
		c-4.4-2.9-9.1-5.4-9.1-5.4c-1.2,2.8-4.1,7.4-4.1,7.4l0,0l0,0l0,0c0.1,0,4.9,3.3,8.5,6.3c-1.8,2.8-3.9,5.4-6.1,8
		c-0.8-0.7-7.8-7-7.8-7c-2.1,2.5-4.5,4.9-7.1,7.2l0,0l6.8,7.7l0,0l0,0c-4.4,3.6-8.8,6.4-8.8,6.4l-5.7-8.1c0,0-4,3-10.8,6.2v2.3H902
		C926.9,144.2,935.6,117.4,925.5,103.5z M912.9,100.7c-6.1-8.3-15.8-7.1-18.6-6.7c-3.2,0.4-5.5,1.1-5.5,1.1c0.7,0.1,1.7,0.2,2.4,0.3
		c0.5-0.1,4.9-1.1,8.2-0.7l0,0c-2.4,0.3-5.6,1.2-5.9,1.3l0,0l0,0c0.1,0,1,0.3,2.2,1c0.3-0.1,4.7-1.3,8.9-1.3l0,0c0,0,1.5,0.7,3,1.7
		c-5.4,0-9.9,1-10,1c0.6,0.6,1.3,1.2,1.8,2c5.9-0.9,11-0.5,11-0.5s0.7,0.8,1,1.3c0.4,0.6,0.8,1.3,1.1,1.9c-6-0.7-11.8-0.2-11.8-0.2
		c0.4,1,0.7,2.1,0.8,3.3c0.7,0,5.8,0,12.3,1.2c0.2,1.5,0.2,3.1,0.1,4.8c-1.1-0.3-6.5-1.6-12.3-2.2c-0.1,1.5-0.4,3-0.8,4.5
		c0.7,0.2,7.9,1.9,11.9,3.5c-0.1,0.3-0.2,0.5-0.2,0.8c-0.6,1.7-1.3,3.5-2.2,5.2c-3.3-1.6-11.2-4.7-11.2-4.7
		c-0.8,1.8-1.8,3.6-2.9,5.4c0,0,6.8,3.9,10.1,6.1c-1.5,2.2-3.2,4.3-5.1,6.4c-2.4-2.1-8.4-6.8-8.8-7.1c-1.9,2.3-4.4,4.7-5.1,5.4
		l7.2,8.2c-0.1,0.1-0.1,0.1-0.2,0.2c-1.6,1.3-3.2,2.5-4.6,3.5c-1.2,0.8-2.2,1.5-2.6,1.7c-0.1-0.1-4.8-7.6-5.5-8.8
		c-0.5,0.4-1,0.7-1.6,1.1v15.4c0.8-0.4,1.7-0.8,2.5-1.3c4-2,8-4.5,11.6-7.4c2.3-1.9,4.8-4,7.2-6.6c2.9-3,5.4-6,7.5-9.2
		C916.6,120.7,918.8,108.5,912.9,100.7z M897,100.1c-2.9-3.4-7.8-4.5-13.5-3.7c-0.2,0-0.3,0-0.5,0.1c-0.4,0.1-0.9,0.2-1.3,0.3
		c-0.9,0.2-1.5,0.4-1.8,0.5V99c0.6-0.4,1.1-0.9,1.7-1.3c1.1-0.2,2.2-0.4,3.3-0.5c-1.6,0.9-3.5,2.2-5,3.4v1.3h0.1
		c0,0,4.2-3.3,7.4-4.7c0.8,0.1,1.6,0.2,2.3,0.3c-4.9,2.1-8.6,4.7-8.8,4.9c0.5,0.3,1,0.7,1,0.7c0.1,0,4.8-3,10.1-4.8
		c0.7,0.3,1.4,0.7,2,1.2c-5.7,1.6-11.2,4.5-11.2,4.5c0.3,0.4,0.6,0.8,0.8,1.2h0.1c5.9-2.5,12.1-3.8,12.1-3.8
		c0.5,0.7,0.9,1.4,1.2,2.2c0,0-5.6,0.6-12.8,2.9c0.3,1,0.4,1.7,0.4,1.7s6.8-1.5,13-1.7c0.1,1,0.1,2.1-0.1,3.3
		c-3.7-0.2-12.5,0.3-12.9,0.3c0,0,0,1.3-0.4,2.5c0,0,6.4,0.2,12.3,1.3c-0.5,1.4-1,2.8-1.7,4.1c-3.9-1.2-9.8-2.6-11.4-3
		c-0.4,1-0.9,2-1.5,3c0,0,7.2,3.2,10,4.7l0,0l0,0c-1.2,1.8-3.6,4.3-3.6,4.3c-0.7-0.5-1.3-1-2-1.5c-1.9-1.3-6.5-4.6-6.5-4.6v6
		l3.8,4.4c-1.2,1-2.5,1.9-3.8,2.7v3.6l0.1-0.1c1.7-1.2,3.4-2.5,5.1-3.9C898.1,122.5,903.4,107.4,897,100.1z M879.9,117.2
		c3.3-4.7,3.8-10.1,0.9-12.8c-0.3-0.2-0.6-0.5-0.9-0.6V117.2z M898,91.9c29.4,0,53.3,24,53.3,53.5c0,6-1,11.9-3,17.6h13.1V81.6H880
		v13.6h0.1C885.8,92.9,891.8,91.9,898,91.9z"/>
	<path class="st2" d="M940.6,81.5c1.6-3,3.4-6.8,4.6-10l0,0c0,0.1,0.6,1.7,1.1,3.3c0.9-3.3,1.6-6.7,2-10.2l0,0
		c-0.1-0.5-0.4-1.2-0.5-1.6c0,0,0.6-3,0.8-6.4c0.3,2.3,0.5,4.7,0.5,7.1c0,4.1-0.5,8.2-1.4,12.1c-0.5,1.9-1.1,3.8-1.7,5.6L940.6,81.5
		L940.6,81.5z M934.8,81.5h3.1c8.7-12.9,9.1-24.3,9.1-26.5c0-4.1-0.7-7.9-1.9-10.9c0,0-1.8-4.7-4.6-8.8c0.3,0.9,0.9,2.8,1.2,4.5
		c0,0.1,0,0.2,0.1,0.3c0.6,0.9,3.1,5.3,3.4,10.2l0,0c0,0-1.8-2.5-3.1-4c0,2.7-0.4,5.3-1,7.9c0,0,2.6,3,3.8,5c0,0-0.8,4.3-2.5,8.4
		c-1.7-2.5-4-5-4-5c-1.3,3.2-2.9,6.4-4.8,9.4c0,0,3.3,3.9,4,5C936.8,78.6,935.9,80,934.8,81.5z M923.9,81.5
		c5.8-6.5,10.7-14.1,13.7-22.2c2.6-7.1,4-15.7,1.7-23.4c-0.2-0.5-0.3-1-0.5-1.5c-0.7-1.9-1.7-3.5-2.7-4.8c-2.8-3.1-5.9-5.8-9.3-8.2
		c0.5,0.7,1,1.3,1.4,2c0,0,4.2,3.1,6.6,6.2c-3.1-2.2-4.9-3.1-5.1-3.2l0,0c1.2,2.9,1.5,5.3,1.5,5.3s3.7,1.9,7,4.8
		c0.5,2.1,0.6,4.3,0.6,6.5c-3.3-2.9-7.2-5.2-7.2-5.2c-0.1,2.5-0.4,5-1,7.5c0,0,3.7,2.3,7.2,5.6c0,0-1,4.6-2.7,8.2
		c-3.4-3.2-6.8-5.7-7-5.9c0,0-1.7,4.4-4.5,8.9c3.4,3,6.6,6.1,6.6,6.1c-2,3.1-4.2,6-6.6,8.7l0,0l-6.1-6.1c-2.5,3.1-5.2,6-8.1,8.7
		c0.1,0.2,1.4,1.5,1.9,2.1h12.6V81.5z M925.5,22.1c-0.4-0.5-0.8-1.1-1.4-1.6c-0.5-0.4-0.9-0.8-1.4-1.2c-5.1-3.8-14.5-5.8-14.5-5.8
		c0.9,0.5,1.6,1,1.6,1s3.8,1,7.2,2.6c0,0-3.1-0.7-5-1c0.8,0.7,1.6,1.5,2.3,2.4c0,0,6.2,1.1,9,2.6c0,0,1.3,1.3,2.4,3.7
		c-4.3-1.7-9.1-2.6-9.1-2.6c0.6,1.4,1.1,3,1.4,4.6c0,0,5.3,1.3,9.3,3.2c0.3,1.9,0.5,3.9,0.4,5.8c-4.7-2.4-9.4-3.8-9.4-3.8
		c-0.1,2-0.4,4.2-1,6.3c0,0,6.4,2.9,9.3,4.6c-0.6,2.6-1.5,5.1-2.6,7.5c-4.4-2.9-9.1-5.4-9.1-5.4c-1.2,2.8-4.1,7.4-4.1,7.4l0,0l0,0
		l0,0c0.1,0,4.9,3.3,8.5,6.3c-1.8,2.8-3.9,5.4-6.1,8c-0.8-0.7-7.8-7-7.8-7c-2.1,2.5-4.5,4.9-7.1,7.2l0,0l6.8,7.7l0,0l0,0
		c-4.4,3.6-8.8,6.4-8.8,6.4l-5.7-8.1c0,0-4,3-10.8,6.2v2.3H902C926.9,62.7,935.6,36,925.5,22.1z M912.9,19.2
		c-6.1-8.3-15.8-7.1-18.6-6.7c-3.2,0.4-5.5,1.1-5.5,1.1c0.7,0.1,1.7,0.2,2.4,0.3c0.5-0.1,4.9-1.1,8.2-0.7l0,0
		c-2.4,0.3-5.6,1.2-5.9,1.3l0,0l0,0c0.1,0,1,0.3,2.2,1c0.3-0.1,4.7-1.3,8.9-1.3l0,0c0,0,1.5,0.7,3,1.7c-5.4,0-9.9,1-10,1
		c0.6,0.6,1.3,1.2,1.8,2c5.9-0.9,11-0.5,11-0.5s0.7,0.8,1,1.3c0.4,0.6,0.8,1.3,1.1,1.9c-6-0.7-11.8-0.2-11.8-0.2
		c0.4,1,0.7,2.1,0.8,3.3c0.7,0,5.8,0,12.3,1.2c0.2,1.5,0.2,3.1,0.1,4.8c-1.1-0.3-6.5-1.6-12.3-2.2c-0.1,1.5-0.4,3-0.8,4.5
		c0.7,0.2,7.9,1.9,11.9,3.5c-0.1,0.3-0.2,0.5-0.2,0.8c-0.6,1.7-1.3,3.5-2.2,5.2c-3.3-1.6-11.2-4.7-11.2-4.7
		c-0.8,1.8-1.8,3.6-2.9,5.4c0,0,6.8,3.9,10.1,6.1c-1.5,2.2-3.2,4.3-5.1,6.4c-2.4-2.1-8.4-6.8-8.8-7.1c-1.9,2.3-4.4,4.7-5.1,5.4
		l7.2,8.2c-0.1,0.1-0.1,0.1-0.2,0.2c-1.6,1.3-3.2,2.5-4.6,3.5c-1.2,0.8-2.2,1.5-2.6,1.7c-0.1-0.1-4.8-7.6-5.5-8.8
		c-0.5,0.4-1,0.7-1.6,1.1v15.4c0.8-0.4,1.7-0.8,2.5-1.3c4-2,8-4.5,11.6-7.4c2.3-1.9,4.8-4,7.2-6.6c2.9-3,5.4-6,7.5-9.2
		C916.6,39.2,918.8,27.1,912.9,19.2z M897,18.6c-2.9-3.4-7.8-4.5-13.5-3.7c-0.2,0-0.3,0-0.5,0.1c-0.4,0.1-0.9,0.2-1.3,0.3
		c-0.9,0.2-1.5,0.4-1.8,0.5v1.7c0.6-0.4,1.1-0.9,1.7-1.3c1.1-0.2,2.2-0.4,3.3-0.5c-1.6,0.9-3.5,2.2-5,3.4v1.3h0.1
		c0,0,4.2-3.3,7.4-4.7c0.8,0.1,1.6,0.2,2.3,0.3c-4.9,2.1-8.6,4.7-8.8,4.9c0.5,0.3,1,0.7,1,0.7c0.1,0,4.8-3,10.1-4.8
		c0.7,0.3,1.4,0.7,2,1.2c-5.7,1.6-11.2,4.5-11.2,4.5c0.3,0.4,0.6,0.8,0.8,1.2h0.1c5.9-2.5,12.1-3.8,12.1-3.8
		c0.5,0.7,0.9,1.4,1.2,2.2c0,0-5.6,0.6-12.8,2.9c0.3,1,0.4,1.7,0.4,1.7s6.8-1.5,13-1.7c0.1,1,0.1,2.1-0.1,3.3
		c-3.7-0.2-12.5,0.3-12.9,0.3c0,0,0,1.3-0.4,2.5c0,0,6.4,0.2,12.3,1.3c-0.5,1.4-1,2.8-1.7,4.1c-3.9-1.2-9.8-2.6-11.4-3
		c-0.4,1-0.9,2-1.5,3c0,0,7.2,3.2,10,4.7l0,0l0,0c-1.2,1.8-3.6,4.3-3.6,4.3c-0.7-0.5-1.3-1-2-1.5c-1.9-1.3-6.5-4.6-6.5-4.6v6
		l3.8,4.4c-1.2,1-2.5,1.9-3.8,2.7v3.6l0.1-0.1c1.7-1.2,3.4-2.5,5.1-3.9C898.1,41.1,903.4,26,897,18.6z M879.9,35.8
		c3.3-4.7,3.8-10.1,0.9-12.8c-0.3-0.2-0.6-0.5-0.9-0.6V35.8z M898,10.4c29.4,0,53.3,24,53.3,53.5c0,6-1,11.9-3,17.6h13.1V0H880v13.6
		h0.1C885.8,11.5,891.8,10.4,898,10.4z"/>
	<path class="st2" d="M-20.7,0c1.6-3,3.4-6.8,4.6-10l0,0c0,0.1,0.6,1.7,1.1,3.3c0.9-3.3,1.6-6.7,2-10.2l0,0
		c-0.1-0.5-0.4-1.2-0.5-1.6c0,0,0.6-3,0.8-6.4c0.3,2.3,0.5,4.7,0.5,7.1c0,4.1-0.5,8.2-1.4,12.1c-0.5,1.9-1.1,3.8-1.7,5.6L-20.7,0
		L-20.7,0z M-26.5,0h3.1c8.7-12.9,9.1-24.3,9.1-26.5c0-4.1-0.7-7.9-1.9-10.9c0,0-1.8-4.7-4.6-8.8c0.3,0.9,0.9,2.8,1.2,4.5
		c0,0.1,0,0.2,0.1,0.3c0.6,0.9,3.1,5.3,3.4,10.2l0,0c0,0-1.8-2.5-3.1-4c0,2.7-0.4,5.3-1,7.9c0,0,2.6,3,3.8,5c0,0-0.8,4.3-2.5,8.4
		c-1.7-2.5-4-5-4-5c-1.3,3.2-2.9,6.4-4.8,9.4c0,0,3.3,3.9,4,5C-24.5-2.9-25.4-1.5-26.5,0z M-37.4,0c5.8-6.5,10.7-14.1,13.7-22.2
		c2.6-7.1,4-15.7,1.7-23.4c-0.2-0.5-0.3-1-0.5-1.5c-0.7-1.9-1.7-3.5-2.7-4.8c-2.8-3.1-5.9-5.8-9.3-8.2c0.5,0.7,1,1.3,1.4,2
		c0,0,4.2,3.1,6.6,6.2c-3.1-2.2-4.9-3.1-5.1-3.2l0,0c1.2,2.9,1.5,5.3,1.5,5.3s3.7,1.9,7,4.8c0.5,2.1,0.6,4.3,0.6,6.5
		c-3.3-2.9-7.2-5.2-7.2-5.2c-0.1,2.5-0.4,5-1,7.5c0,0,3.7,2.3,7.2,5.6c0,0-1,4.6-2.7,8.2c-3.4-3.2-6.8-5.7-7-5.9
		c0,0-1.7,4.4-4.5,8.9c3.4,3,6.6,6.1,6.6,6.1c-2,3.1-4.2,6-6.6,8.7l0,0l-6.1-6.1c-2.5,3.1-5.2,6-8.1,8.7c0.1,0.2,1.4,1.5,1.9,2.1
		L-37.4,0L-37.4,0z M-35.8-59.4c-0.4-0.5-0.8-1.1-1.4-1.6c-0.5-0.4-0.9-0.8-1.4-1.2C-43.7-66-53.1-68-53.1-68c0.9,0.5,1.6,1,1.6,1
		s3.8,1,7.2,2.6c0,0-3.1-0.7-5-1c0.8,0.7,1.6,1.5,2.3,2.4c0,0,6.2,1.1,9,2.6c0,0,1.3,1.3,2.4,3.7c-4.3-1.7-9.1-2.6-9.1-2.6
		c0.6,1.4,1.1,3,1.4,4.6c0,0,5.3,1.3,9.3,3.2c0.3,1.9,0.5,3.9,0.4,5.8c-4.7-2.4-9.4-3.8-9.4-3.8c-0.1,2-0.4,4.2-1,6.3
		c0,0,6.4,2.9,9.3,4.6c-0.6,2.6-1.5,5.1-2.6,7.5c-4.4-2.8-9.1-5.3-9.1-5.3c-1.2,2.8-4.1,7.4-4.1,7.4l0,0l0,0l0,0
		c0.1,0,4.9,3.3,8.5,6.3c-1.8,2.8-3.9,5.4-6.1,8c-0.8-0.7-7.8-7-7.8-7c-2.1,2.5-4.5,4.9-7.1,7.2l0,0l6.8,7.7l0,0l0,0
		C-60.6-3.2-65-0.4-65-0.4l-5.7-8.1c0,0-4,3-10.8,6.2V0h22.2C-34.5-18.7-25.7-45.5-35.8-59.4z M-48.4-62.2
		c-6.1-8.3-15.8-7.1-18.6-6.7c-3.2,0.4-5.5,1.1-5.5,1.1c0.7,0.1,1.7,0.2,2.4,0.3c0.5-0.1,4.9-1.1,8.2-0.7l0,0
		c-2.4,0.3-5.6,1.2-5.9,1.3l0,0l0,0c0.1,0,1,0.3,2.2,1c0.3-0.1,4.7-1.3,8.9-1.3l0,0c0,0,1.5,0.7,3,1.7c-5.4,0-9.9,1-10,1
		c0.6,0.6,1.3,1.2,1.8,2c5.9-0.9,11-0.5,11-0.5s0.7,0.8,1,1.3c0.4,0.6,0.8,1.3,1.1,1.9c-6-0.7-11.8-0.2-11.8-0.2
		c0.4,1,0.7,2.1,0.8,3.3c0.7,0,5.8,0,12.3,1.2c0.2,1.5,0.2,3.1,0.1,4.8c-1.1-0.3-6.5-1.6-12.3-2.2c-0.1,1.5-0.4,3-0.8,4.5
		c0.7,0.2,7.9,1.9,11.9,3.5c-0.1,0.3-0.2,0.5-0.2,0.8c-0.6,1.7-1.3,3.5-2.2,5.2c-3.3-1.6-11.2-4.7-11.2-4.7
		c-0.8,1.8-1.8,3.6-2.9,5.4c0,0,6.8,3.9,10.1,6.1c-1.5,2.2-3.2,4.3-5.1,6.4c-2.4-2.1-8.4-6.8-8.8-7.1c-2.1,2.3-4.5,4.7-5.2,5.4
		l7.2,8.2c-0.1,0.1-0.1,0.1-0.2,0.2c-1.6,1.3-3.2,2.5-4.6,3.5c-1.2,0.8-2.2,1.5-2.6,1.7c-0.1-0.1-4.8-7.6-5.5-8.8
		c-0.5,0.4-1,0.7-1.6,1.1v15.4c0.8-0.4,1.7-0.8,2.5-1.3c4-2,8-4.5,11.6-7.4c2.3-1.9,4.8-4,7.2-6.6c2.9-3,5.4-6,7.5-9.2
		C-44.7-42.2-42.6-54.4-48.4-62.2z M-64.3-62.8c-2.9-3.4-7.8-4.5-13.5-3.7c-0.2,0-0.3,0-0.5,0.1c-0.4,0.1-0.9,0.2-1.3,0.3
		c-0.9,0.2-1.5,0.4-1.8,0.5v1.7c0.6-0.4,1.1-0.9,1.7-1.3c1.1-0.2,2.2-0.4,3.3-0.5c-1.6,0.9-3.5,2.2-5,3.4v1.3h0.1
		c0,0,4.2-3.3,7.4-4.7c0.8,0.1,1.6,0.2,2.3,0.3c-4.9,2.1-8.6,4.7-8.8,4.9c0.5,0.3,1,0.7,1,0.7c0.1,0,4.8-3,10.1-4.8
		c0.7,0.3,1.4,0.7,2,1.2c-5.7,1.6-11.2,4.5-11.2,4.5c0.3,0.4,0.6,0.8,0.8,1.2h0.1c5.9-2.5,12.1-3.8,12.1-3.8
		c0.5,0.7,0.9,1.4,1.2,2.2c0,0-5.6,0.6-12.8,2.9c0.3,1,0.4,1.7,0.4,1.7s6.8-1.5,13-1.7c0.1,1,0.1,2.1-0.1,3.3
		c-3.7-0.2-12.5,0.3-12.9,0.3c0,0,0,1.3-0.4,2.5c0,0,6.4,0.2,12.3,1.3c-0.5,1.4-1,2.8-1.7,4.1c-3.9-1.2-9.8-2.6-11.4-3
		c-0.4,1-0.9,2-1.5,3c0,0,7.2,3.2,10,4.7l0,0l0,0c-1.2,1.8-3.6,4.3-3.6,4.3c-0.7-0.5-1.3-1-2-1.5c-1.8-1.2-6.4-4.4-6.4-4.4v6
		l3.8,4.4c-1.2,1-2.5,1.9-3.8,2.7v3.6l0.1-0.1c1.7-1.2,3.4-2.5,5.1-3.9C-63.2-40.4-57.9-55.5-64.3-62.8z M-81.4-45.7
		c3.3-4.7,3.8-10.1,0.9-12.7c-0.3-0.2-0.6-0.5-0.9-0.6V-45.7z M-63.3-71C-33.9-71-10-47-10-17.5c0,6-1,11.9-3,17.6H0.1v-81.5h-81.5
		v13.6h0.1C-75.6-69.9-69.5-71-63.3-71z"/>
	<path class="st2" d="M-20.7,244.4c1.6-3,3.4-6.8,4.6-10l0,0c0,0.1,0.6,1.7,1.1,3.3c0.9-3.3,1.6-6.7,2-10.2l0,0
		c-0.1-0.5-0.4-1.2-0.5-1.6c0,0,0.6-3,0.8-6.4c0.3,2.3,0.5,4.7,0.5,7.1c0,4.1-0.5,8.2-1.4,12.1c-0.5,1.9-1.1,3.8-1.7,5.6h-5.4V244.4
		z M-26.5,244.4h3.1c8.7-12.9,9.1-24.3,9.1-26.5c0-4.1-0.7-7.9-1.9-10.9c0,0-1.8-4.7-4.6-8.8c0.3,0.9,0.9,2.8,1.2,4.5
		c0,0.1,0,0.2,0.1,0.3c0.6,0.9,3.1,5.3,3.4,10.2l0,0c0,0-1.8-2.5-3.1-4c0,2.7-0.4,5.3-1,7.9c0,0,2.6,3,3.8,5c0,0-0.8,4.3-2.5,8.4
		c-1.7-2.5-4-5-4-5c-1.3,3.2-2.9,6.4-4.8,9.4c0,0,3.3,3.9,4,5C-24.5,241.4-25.4,242.9-26.5,244.4z M-37.4,244.4
		c5.8-6.5,10.7-14.1,13.7-22.2c2.6-7.1,4-15.7,1.7-23.4c-0.2-0.5-0.3-1-0.5-1.5c-0.7-1.9-1.7-3.5-2.7-4.8c-2.8-3.1-5.9-5.8-9.3-8.2
		c0.5,0.7,1,1.3,1.4,2c0,0,4.2,3.1,6.6,6.2c-3.1-2.2-4.9-3.1-5.1-3.2l0,0c1.2,2.9,1.5,5.3,1.5,5.3s3.7,1.9,7,4.8
		c0.5,2.1,0.6,4.3,0.6,6.5c-3.3-2.9-7.2-5.2-7.2-5.2c-0.1,2.5-0.4,5-1,7.5c0,0,3.7,2.3,7.2,5.6c0,0-1,4.6-2.7,8.2
		c-3.4-3.2-6.8-5.7-7-5.9c0,0-1.7,4.4-4.5,8.9c3.4,3,6.6,6.1,6.6,6.1c-2,3.1-4.2,6-6.6,8.7l0,0l-6.1-6.1c-2.5,3.1-5.2,6-8.1,8.7
		c0.1,0.2,1.4,1.5,1.9,2.1h12.6V244.4z M-35.8,184.9c-0.4-0.5-0.8-1.1-1.4-1.6c-0.5-0.4-0.9-0.8-1.4-1.2c-5.1-3.8-14.5-5.8-14.5-5.8
		c0.9,0.5,1.6,1,1.6,1s3.8,1,7.2,2.6c0,0-3.1-0.7-5-1c0.8,0.7,1.6,1.5,2.3,2.4c0,0,6.2,1.1,9,2.6c0,0,1.3,1.3,2.4,3.7
		c-4.3-1.7-9.1-2.6-9.1-2.6c0.6,1.4,1.1,3,1.4,4.6c0,0,5.3,1.3,9.3,3.2c0.3,1.9,0.5,3.9,0.4,5.8c-4.7-2.4-9.4-3.8-9.4-3.8
		c-0.1,2-0.4,4.2-1,6.3c0,0,6.4,2.9,9.3,4.6c-0.6,2.6-1.5,5.1-2.6,7.5c-4.4-2.9-9.1-5.4-9.1-5.4c-1.2,2.8-4.1,7.4-4.1,7.4l0,0l0,0
		l0,0c0.1,0,4.9,3.3,8.5,6.3c-1.8,2.8-3.9,5.4-6.1,8c-0.8-0.7-7.8-7-7.8-7c-2.1,2.5-4.5,4.9-7.1,7.2l0,0l6.8,7.7l0,0l0,0
		c-4.4,3.6-8.8,6.4-8.8,6.4l-5.7-8.1c0,0-4,3-10.8,6.2v2.3h22.2C-34.5,225.6-25.7,198.8-35.8,184.9z M-48.4,182.1
		c-6.1-8.3-15.8-7.1-18.6-6.7c-3.2,0.4-5.5,1.1-5.5,1.1c0.7,0.1,1.7,0.2,2.4,0.3c0.5-0.1,4.9-1.1,8.2-0.7l0,0
		c-2.4,0.3-5.6,1.2-5.9,1.3l0,0l0,0c0.1,0,1,0.3,2.2,1c0.3-0.1,4.7-1.3,8.9-1.3l0,0c0,0,1.5,0.7,3,1.7c-5.4,0-9.9,1-10,1
		c0.6,0.6,1.3,1.2,1.8,2c5.9-0.9,11-0.5,11-0.5s0.7,0.8,1,1.3c0.4,0.6,0.8,1.3,1.1,1.9c-6-0.7-11.8-0.2-11.8-0.2
		c0.4,1,0.7,2.1,0.8,3.3c0.7,0,5.8,0,12.3,1.2c0.2,1.5,0.2,3.1,0.1,4.8c-1.1-0.3-6.5-1.6-12.3-2.2c-0.1,1.5-0.4,3-0.8,4.5
		c0.7,0.2,7.9,1.9,11.9,3.5c-0.1,0.3-0.2,0.5-0.2,0.8c-0.6,1.7-1.3,3.5-2.2,5.2c-3.3-1.6-11.2-4.7-11.2-4.7
		c-0.8,1.8-1.8,3.6-2.9,5.4c0,0,6.8,3.9,10.1,6.1c-1.5,2.2-3.2,4.3-5.1,6.4c-2.4-2.1-8.4-6.8-8.8-7.1c-1.9,2.3-4.4,4.7-5.1,5.4
		l7.2,8.2c-0.1,0.1-0.1,0.1-0.2,0.2c-1.6,1.3-3.2,2.5-4.6,3.5c-1.2,0.8-2.2,1.5-2.6,1.7c-0.1-0.1-4.8-7.6-5.5-8.8
		c-0.5,0.4-1,0.7-1.6,1.1v15.4c0.8-0.4,1.7-0.8,2.5-1.3c4-2,8-4.5,11.6-7.4c2.3-1.9,4.8-4,7.2-6.6c2.9-3,5.4-6,7.5-9.2
		C-44.7,202.1-42.6,190-48.4,182.1z M-64.3,181.5c-2.9-3.4-7.8-4.5-13.5-3.7c-0.2,0-0.3,0-0.5,0.1c-0.4,0.1-0.9,0.2-1.3,0.3
		c-0.9,0.2-1.5,0.4-1.8,0.5v1.7c0.6-0.4,1.1-0.9,1.7-1.3c1.1-0.2,2.2-0.4,3.3-0.5c-1.6,0.9-3.5,2.2-5,3.4v1.3h0.1
		c0,0,4.2-3.3,7.4-4.7c0.8,0.1,1.6,0.2,2.3,0.3c-4.9,2.1-8.6,4.7-8.8,4.9c0.5,0.3,1,0.7,1,0.7c0.1,0,4.8-3,10.1-4.8
		c0.7,0.3,1.4,0.7,2,1.2c-5.7,1.6-11.2,4.5-11.2,4.5c0.3,0.4,0.6,0.8,0.8,1.2h0.1c5.9-2.5,12.1-3.8,12.1-3.8
		c0.5,0.7,0.9,1.4,1.2,2.2c0,0-5.6,0.6-12.8,2.9c0.3,1,0.4,1.7,0.4,1.7s6.8-1.5,13-1.7c0.1,1,0.1,2.1-0.1,3.3
		c-3.7-0.2-12.5,0.3-12.9,0.3c0,0,0,1.3-0.4,2.5c0,0,6.4,0.2,12.3,1.3c-0.5,1.4-1,2.8-1.7,4.1c-3.9-1.2-9.8-2.6-11.4-3
		c-0.4,1-0.9,2-1.5,3c0,0,7.2,3.2,10,4.7l0,0l0,0c-1.2,1.8-3.6,4.3-3.6,4.3c-0.7-0.5-1.3-1-2-1.5c-1.8-1.1-6.4-4.3-6.4-4.3v6
		l3.8,4.4c-1.2,1-2.5,1.9-3.8,2.7v3.6l0.1-0.1c1.7-1.2,3.4-2.5,5.1-3.9C-63.2,204-57.9,188.9-64.3,181.5z M-81.4,198.7
		c3.3-4.7,3.8-10.1,0.9-12.8c-0.3-0.2-0.6-0.5-0.9-0.6V198.7z M-63.3,173.3c29.4,0,53.3,24,53.3,53.5c0,6-1,11.9-3,17.6H0.1V163
		h-81.5v13.6h0.1C-75.6,174.4-69.5,173.3-63.3,173.3z"/>
</g>
<path class="st3" d="M838.6,163.7c3.2-6.1,6.8-13.6,9.2-20l0,0c0.1,0.2,1.3,3.4,2.2,6.6c1.9-6.5,3.2-13.3,3.9-20.3l0,0
	c-0.2-0.9-0.7-2.4-1-3.3c0,0,1.2-5.9,1.7-12.7c0.6,4.7,1,9.4,1,14.2c0,8.3-1,16.4-2.9,24.2c-1,3.9-2.2,7.7-3.4,11.2h-10.7V163.7z"/>
<path class="st3" d="M826.9,163.7h6.1c17.4-25.7,18.3-48.5,18.3-52.9c0-8.3-1.4-15.8-3.7-21.8c0,0-3.6-9.3-9.2-17.6
	c0.6,1.9,1.8,5.6,2.4,9c0,0.2,0.1,0.4,0.1,0.6c1.1,1.8,6.1,10.7,6.8,20.4l0,0c0,0-3.5-4.9-6.2-8.1c-0.1,5.3-0.8,10.7-1.9,15.8
	c0,0,5.2,6.1,7.6,10c0,0-1.6,8.5-5,16.7c-3.5-5.1-7.9-10-7.9-10c-2.6,6.4-5.9,12.9-9.5,18.9c0,0,6.6,7.8,8.1,10
	C831,157.9,829.1,160.7,826.9,163.7z"/>
<path class="st3" d="M805.1,163.7c11.6-12.9,21.4-28.1,27.3-44.4c5.1-14.1,7.9-31.4,3.4-46.7c-0.3-1-0.6-2-1-3.1
	c-1.5-3.8-3.3-7-5.4-9.6c-5.5-6.2-11.8-11.7-18.7-16.4c1,1.3,1.9,2.6,2.7,4c0,0,8.4,6.2,13.2,12.5c-6.2-4.4-9.7-6.2-10.2-6.5
	c0,0,0,0-0.1,0c2.4,5.8,3.1,10.6,3.1,10.7c0,0,7.4,3.9,14,9.6c0.9,4.3,1.3,8.6,1.2,13c-6.7-5.9-14.4-10.5-14.4-10.5
	c-0.1,5-0.8,10-1.9,15c0,0,7.3,4.6,14.5,11.1c0,0-2,9.2-5.4,16.4c-6.8-6.4-13.5-11.3-14-11.7c0,0-3.4,8.9-8.9,17.8
	c6.9,6,13.3,12.1,13.3,12.1c-3.9,6.1-8.4,12-13.2,17.4l0,0l-12.3-12.2c-5,6.2-10.4,12-16.2,17.3c0.3,0.3,2.7,3,3.8,4.2L805.1,163.7
	L805.1,163.7z"/>
<path class="st3" d="M808.3,44.9c-0.8-1.1-1.7-2.2-2.7-3.2c-0.9-0.9-1.8-1.6-2.7-2.3c-10.2-7.7-29-11.5-29-11.5
	c1.8,1,3.3,1.9,3.3,1.9c0.1,0,7.7,1.9,14.4,5.2c0,0-6.1-1.4-10-1.9c1.6,1.4,3.2,3.1,4.5,4.8c0,0,12.5,2.3,17.9,5.3
	c0,0,2.6,2.7,4.8,7.4c-8.5-3.5-18.2-5.3-18.2-5.3c1.3,2.9,2.2,6,2.8,9.2c0,0,10.6,2.6,18.6,6.4c0.7,3.8,0.9,7.7,0.8,11.7
	c-9.4-4.7-18.8-7.7-18.8-7.7c-0.2,4.1-0.8,8.3-2,12.7c0,0,12.9,5.8,18.7,9.2c-1.3,5.1-3.1,10.1-5.2,14.9
	c-8.8-5.7-18.1-10.8-18.1-10.8c-2.3,5.6-8.1,14.8-8.1,14.8l0,0l0,0l0,0c0.1,0.1,9.7,6.7,17.1,12.5c-3.7,5.5-7.8,10.9-12.3,15.9
	c-1.5-1.5-15.7-14-15.7-14c-4.3,4.9-9,9.8-14.2,14.4l0,0l13.6,15.4l0,0l0,0c-8.8,7.3-17.7,12.8-17.7,12.8l-11.4-16.1
	c0,0-8,6.1-21.5,12.5v4.7h44.4C811,126.2,828.6,72.7,808.3,44.9z"/>
<path class="st3" d="M783.2,39.3c-12.3-16.6-31.6-14.2-37.3-13.4c-6.3,0.9-11.1,2.3-11.1,2.3c1.4,0.1,3.3,0.4,4.7,0.7
	c1-0.2,9.9-2.3,16.3-1.4l0,0c-4.7,0.5-11.2,2.5-11.9,2.7l0,0l0,0c0.2,0.1,2.1,0.6,4.5,2c0.7-0.2,9.5-2.5,17.8-2.7l0,0
	c0,0,3.1,1.4,6.1,3.4c-10.8,0-19.7,2-20,2.1c1.3,1.1,2.5,2.5,3.7,4.1c11.8-1.8,22-1,22-1s1.4,1.7,2,2.6c0.8,1.1,1.6,2.6,2.2,3.8
	c-12.1-1.4-23.6-0.4-23.6-0.4c0.8,2.1,1.3,4.3,1.6,6.6c1.3,0,11.6,0,24.6,2.4c0.4,3,0.5,6.2,0.1,9.6c-2.2-0.6-12.9-3.2-24.6-4.4
	c-0.2,2.9-0.8,6-1.6,9.1c1.3,0.3,15.7,3.7,23.8,7c-0.2,0.5-0.3,1-0.5,1.5c-1.2,3.5-2.6,6.9-4.3,10.4c-6.5-3.2-22.4-9.4-22.4-9.4
	c-1.6,3.6-3.5,7.2-5.8,10.8c0,0,13.7,7.8,20.3,12.1c-3,4.3-6.5,8.6-10.3,12.7c-4.8-4.3-16.7-13.5-17.6-14.2
	c-3.9,4.6-8.7,9.4-10.2,10.8l14.3,16.4c-0.1,0.1-0.3,0.2-0.4,0.4c-3.1,2.6-6.4,5-9.3,6.9c-2.5,1.7-4.5,3-5.2,3.4
	c-0.2-0.3-9.5-15.2-11-17.6c-1,0.8-2.1,1.5-3.1,2.2v30.8c1.7-0.8,3.4-1.7,5.1-2.5c8.1-4,15.9-9,23.2-14.9c4.7-3.7,9.6-8.1,14.4-13.1
	c5.8-5.9,10.8-12.1,14.9-18.4C790.6,79.3,794.8,54.9,783.2,39.3z"/>
<path class="st3" d="M751.3,38c-5.9-6.7-15.6-9-26.9-7.4c-0.3,0-0.6,0.1-0.9,0.1c-0.9,0.1-1.7,0.3-2.6,0.5c-1.7,0.4-2.9,0.8-3.6,1.1
	v3.4c1.1-0.9,2.3-1.7,3.4-2.5c2.3-0.5,4.5-0.8,6.6-0.9c-3.3,1.9-7,4.4-10,6.7v2.6l0.1,0.1c0,0,8.3-6.6,14.9-9.4
	c1.6,0.1,3.1,0.3,4.6,0.7c-9.9,4.2-17.1,9.4-17.6,9.7c1,0.6,1.9,1.4,2.1,1.4c0.1-0.1,9.7-6.1,20.2-9.6c1.4,0.7,2.8,1.5,4,2.4
	c-11.5,3.2-22.5,9-22.5,9c0.6,0.7,1.2,1.5,1.6,2.3c0.1,0,0.1-0.1,0.2-0.1c11.7-5,24.2-7.6,24.2-7.6c1,1.3,1.8,2.8,2.4,4.5
	c0,0-11.2,1.3-25.6,5.9c0.6,2,0.8,3.5,0.8,3.5s13.6-3,26.1-3.4c0.2,2,0.1,4.3-0.2,6.6c-7.4-0.4-25,0.5-25.7,0.6c0,0-0.1,2.5-0.7,4.9
	c0,0,12.9,0.4,24.6,2.6c-0.9,2.8-2.1,5.6-3.4,8.3c-7.8-2.3-19.7-5.2-22.8-5.9c-0.8,2-1.9,4-3.1,6c0,0,14.5,6.3,20,9.4l0,0l0,0
	c-2.4,3.6-7.2,8.7-7.2,8.7c-1.4-1-2.7-2-3.9-2.9c-3.8-2.7-13-9.1-13-9.1v12l7.5,8.8c-2.5,2-5,3.8-7.5,5.4v7.1
	c0.1-0.1,0.2-0.1,0.3-0.2c3.4-2.3,6.8-4.9,10.1-7.8C753.5,82.9,764.1,52.7,751.3,38z"/>
<path class="st3" d="M717.1,72.3c6.6-9.4,7.6-20.2,1.8-25.5c-0.5-0.5-1.1-0.9-1.8-1.3V72.3z"/>
<path class="st3" d="M753.3,21.7c58.7,0,106.5,48,106.5,106.9c0,12-2,23.9-5.9,35.1H880V0.8H717.1V28h0.1
	C728.8,23.8,740.9,21.7,753.3,21.7z"/>
</svg>
