<?xml version="1.0" encoding="utf-8"?>
<!-- Generator: Adobe Illustrator 27.9.0, SVG Export Plug-In . SVG Version: 6.00 Build 0)  -->
<svg version="1.1" id="Livello_1" xmlns="http://www.w3.org/2000/svg" xmlns:xlink="http://www.w3.org/1999/xlink" x="0px" y="0px"
	 viewBox="0 0 768 249" style="enable-background:new 0 0 768 249;" xml:space="preserve">
<style type="text/css">
	.st0{fill:#FFFFFF;}
	.st1{fill:#FFCC00;}
</style>
<g>
	<g id="color_757575ff">
		<path class="st0" d="M381.5,0.7c5.4-1.6,11.8-0.6,16,3.3c3.6,3.4,5.2,8.4,5.2,13.3c0,47.7,0,95.3,0,143
			c-0.3,7.1,1.2,15.1-3.2,21.4c-4.4,6.4-13.6,8.1-20.4,4.7c-5.5-2.8-8.5-9.1-8.4-15.1c0-49.3,0-98.6,0-147.9c0.1-4.4-0.5-9,1.1-13.2
			C373.4,5.8,377,2.1,381.5,0.7z"/>
		<path class="st0" d="M254.5,90.6c8.1-11.6,21.7-18.7,35.6-20.1c14.8-1.6,31.2,0.9,42.7,11.1c10.7,9.4,15.4,23.8,16.4,37.6
			c0.3,5.4,1.1,11.4-1.7,16.3c-2.2,3.9-7.1,4.9-11.2,5c-20.6,0-41.2,0-61.8,0c1.3,7.7,4.9,15.9,12.5,19.1
			c10.6,4.5,22.6,1.9,33.2-1.3c4.2-1.2,8.6-2.8,13-2.2c6.2,1.3,10.6,8,9.9,14.2c-0.6,4.8-4.5,8.2-8.4,10.4c-7.2,4-15.4,5.6-23.5,6.5
			c-15.3,1.8-31.8,0.6-44.9-8.2c-13-8.4-20.4-23.4-22.3-38.4C241.9,123.6,244.3,105,254.5,90.6 M284.8,97.8
			c-7.7,4-9.6,13.4-10.4,21.3c15,0,30,0,45.1,0c-0.6-8-3.2-17.1-10.9-21.2C301.3,94.3,292.1,94.3,284.8,97.8z"/>
		<path class="st0" d="M130.4,71.4c5.5-1.6,12-0.6,16.2,3.6c3.5,3.4,4.9,8.4,4.9,13.2c0,17.7,0,35.4,0,53.1c0,6.4,2.6,13.2,8.1,16.7
			c4.9,3.2,11,3.5,16.7,2.8c4.9-0.6,9.7-2.9,12.5-7c3.2-4.5,3.6-10.2,3.7-15.5c0-17.3,0-34.7,0-52c0.1-6,3.7-12.1,9.4-14.3
			c6.2-2.5,14.3-1.3,18.6,4.1c3.4,3.9,4.1,9.3,4,14.3c-0.1,16,0.1,31.9-0.1,47.9c-0.3,13.7-4,28.3-14.4,37.8
			c-11.1,10.3-27.1,12.8-41.8,12.2c-13.5-0.5-27.8-4.5-37-14.9c-8.4-9.5-11.6-22.6-11.7-35c0-17.3,0-34.7,0-52
			C119.6,79.7,124,73.3,130.4,71.4z"/>
		<path class="st0" d="M523.4,71.6c15-1.9,31.4-1.2,44.6,6.9c9.1,5.5,15.3,14.9,18,25.1c1.8,6.7,2.5,13.8,2.5,20.7
			c0,15.3,0,30.6,0,46c0.1,5.1-1.6,10.4-5.4,13.9c-5.7,5.1-15.1,5.2-21,0.4c-3.9-3.2-5.9-8.3-5.8-13.3c0-15.3,0-30.7,0-46
			c0-6.8,0.3-14.2-3.8-20c-3.4-5-9.5-7.2-15.3-7.5c-5.7-0.2-12,0.9-16.3,5c-4,4-5.4,9.8-5.4,15.3c0,17.4,0,34.8,0,52.1
			c0,4.1-0.9,8.4-3.5,11.8c-5.5,7.4-17.7,8-24,1.3c-3.1-3.2-4.5-7.7-4.5-12.1c0-11.7,0-23.3,0-35c0.1-10.7-0.7-21.5,2.2-31.9
			c2.4-9.9,8.1-19.1,16.6-24.9C508.5,75.2,515.9,72.7,523.4,71.6z"/>
		<path class="st0" d="M627.1,84.2c10.9-9.6,25.8-13.8,40.1-13.4c14.1,0,28.4,2.9,40.7,9.9c5.7,3.1,9.9,9.1,9.8,15.7
			c0,33,0,66,0,99.1c-0.2,14.9-5,30.8-16.7,40.8c-11.7,10.1-27.8,13.1-42.9,12.9c-11.6-0.5-23.2-3.4-33.2-9.4c-3.6-2.3-7-5.2-9.1-9
			c-3.8-7.1,0.6-17.1,8.5-18.9c5.8-0.9,11.2,1.9,16.4,4c7.1,3.1,14.8,4.9,22.5,4.6c6.6,0,13.7-1.7,18.5-6.5
			c4.5-4.6,5.8-11.3,5.8-17.5c0-5.8,0-11.5,0-17.3c-9,7.9-21.7,9.9-33.4,9.1c-12.2-0.8-24.2-6.2-32.1-15.6
			c-11.2-12.9-14.5-30.8-13.6-47.4C609.1,109.9,615.2,94.3,627.1,84.2 M660.7,98.1c-4.9,0.8-9.7,3-13.1,6.6
			c-6.3,6.8-7.7,16.6-7.7,25.6c0.1,8.1,0.8,16.8,5.8,23.5c4.7,6.1,13.1,7.6,20.4,7c7-0.3,13.9-4.1,17.1-10.5c6-11.4,3.9-24.6,4.3-37
			c-0.2-3.7,1.1-8.4-2.6-10.8C678.1,97.4,668.9,96.9,660.7,98.1z"/>
		<path class="st0" d="M1.6,79.9c3.4-6.6,11.8-9.1,18.7-7.7c5.5,1,9.4,5.9,10.8,11.1c6.3,21.3,12.7,42.7,18.9,64
			c0.3,1.2,0.9,2.4,1.6,3.5c6.6-21.9,13-43.8,19.5-65.7c1.2-4.7,3.5-9.6,8.1-11.8c7.4-3.4,17.6-1,21.8,6.2c2.7,4.8,2,10.7,0.1,15.6
			c-9,25-17.8,50.1-26.8,75.2c-1.9,4.8-3.7,9.9-7.4,13.7c-3.9,3.7-9.6,4.1-14.6,4.1c-5.6,0-11.9-0.5-16.2-4.6c-4-3.8-6-9.1-7.9-14.1
			c-8.9-25.1-17.7-50.3-26.6-75.3C-0.3,89.5-0.7,84.3,1.6,79.9z"/>
		<path class="st0" d="M437.6,73c6.7-2.7,15.3-0.6,19.4,5.5c2.4,3.4,3,7.7,3,11.8c0,26.7,0,53.4,0,80c0,4.5-1.1,9.1-4.2,12.5
			c-5.8,6.8-17.5,7-23.5,0.4c-2.9-3.2-4.4-7.6-4.3-11.9c0-27.7,0-55.4,0-83.1C427.8,81.9,431.5,75.3,437.6,73z"/>
	</g>
	<path class="st1" d="M739.7,12c5.1-1.6,10.6-1.6,15.7,0c6.3,2,11.3,7.6,12.4,14.2c0.7,5.6,0.4,11.8-3,16.6
		c-6.7,9.4-21.2,10.7-30.4,4.3C722.6,38.3,725,16.3,739.7,12z"/>
</g>
</svg>
